<svg width="1024" height="1024">
<rect width="100%" height="100%" fill="white" />
<path d="M0 0 L128 0 L128.0 128.0 L0.0 128.00000000000003 Z" stroke-width="1" stroke="black" fill="black" stroke-linejoin="round" />
<path d="M0.0 128.00000000000003 L128.0 128.0 L128.0 256.0 L0.0 256.0 Z" stroke-width="1" stroke="black" fill="none" stroke-linejoin="round" />
<path d="M0.0 256.0 L128.0 256.0 L128.0 384.0 L0.0 384.0 Z" stroke-width="1" stroke="black" fill="black" stroke-linejoin="round" />
<path d="M0.0 384.0 L128.0 384.0 L128.0 512.0 L0.0 512.0 Z" stroke-width="1" stroke="black" fill="none" stroke-linejoin="round" />
<path d="M0.0 512.0 L128.0 512.0 L128.0 640.0 L0.0 640.0 Z" stroke-width="1" stroke="black" fill="black" stroke-linejoin="round" />
<path d="M0.0 640.0 L128.0 640.0 L128.0 768.0 L0.0 768.0 Z" stroke-width="1" stroke="black" fill="none" stroke-linejoin="round" />
<path d="M0.0 768.0 L128.0 768.0 L128.0 896.0 L0.0 896.0 Z" stroke-width="1" stroke="black" fill="black" stroke-linejoin="round" />
<path d="M0.0 896.0 L128.0 896.0 L128.0 1024.0 L0.0 1024.0 Z" stroke-width="1" stroke="black" fill="none" stroke-linejoin="round" />
<path d="M0.0 1024.0 L128.0 1024.0 L128.0 1152.0 L0.0 1152.0 Z" stroke-width="1" stroke="black" fill="black" stroke-linejoin="round" />
<path d="M128.0 7.105427357601002e-15 L256.0 0.0 L256.0 128.0 L128.0 128.0 Z" stroke-width="1" stroke="black" fill="none" stroke-linejoin="round" />
<path d="M128.0 128.0 L256.0 128.0 L256.0 256.0 L128.0 256.0 Z" stroke-width="1" stroke="black" fill="black" stroke-linejoin="round" />
<path d="M128.0 256.0 L256.0 256.0 L256.0 384.0 L128.0 384.0 Z" stroke-width="1" stroke="black" fill="none" stroke-linejoin="round" />
<path d="M128.0 384.0 L256.0 384.0 L256.0 512.0 L128.0 512.0 Z" stroke-width="1" stroke="black" fill="black" stroke-linejoin="round" />
<path d="M128.0 512.0 L256.0 512.0 L256.0 640.0 L128.0 640.0 Z" stroke-width="1" stroke="black" fill="none" stroke-linejoin="round" />
<path d="M128.0 640.0 L256.0 640.0 L256.0 768.0 L128.0 768.0 Z" stroke-width="1" stroke="black" fill="black" stroke-linejoin="round" />
<path d="M128.0 768.0 L256.0 768.0 L256.0 896.0 L128.0 896.0 Z" stroke-width="1" stroke="black" fill="none" stroke-linejoin="round" />
<path d="M128.0 896.0 L256.0 896.0 L256.0 1024.0 L128.0 1024.0 Z" stroke-width="1" stroke="black" fill="black" stroke-linejoin="round" />
<path d="M128.0 1024.0 L256.0 1024.0 L256.0 1152.0 L128.0 1152.0 Z" stroke-width="1" stroke="black" fill="none" stroke-linejoin="round" />
<path d="M256.0 7.105427357601002e-15 L384.0 0.0 L384.0 128.0 L256.0 128.0 Z" stroke-width="1" stroke="black" fill="black" stroke-linejoin="round" />
<path d="M256.0 128.0 L384.0 128.0 L384.0 256.0 L256.0 256.0 Z" stroke-width="1" stroke="black" fill="none" stroke-linejoin="round" />
<path d="M256.0 256.0 L384.0 256.0 L384.0 384.0 L256.0 384.0 Z" stroke-width="1" stroke="black" fill="black" stroke-linejoin="round" />
<path d="M256.0 384.0 L384.0 384.0 L384.0 512.0 L256.0 512.0 Z" stroke-width="1" stroke="black" fill="none" stroke-linejoin="round" />
<path d="M256.0 512.0 L384.0 512.0 L384.0 640.0 L256.0 640.0 Z" stroke-width="1" stroke="black" fill="black" stroke-linejoin="round" />
<path d="M256.0 640.0 L384.0 640.0 L384.0 768.0 L256.0 768.0 Z" stroke-width="1" stroke="black" fill="none" stroke-linejoin="round" />
<path d="M256.0 768.0 L384.0 768.0 L384.0 896.0 L256.0 896.0 Z" stroke-width="1" stroke="black" fill="black" stroke-linejoin="round" />
<path d="M256.0 896.0 L384.0 896.0 L384.0 1024.0 L256.0 1024.0 Z" stroke-width="1" stroke="black" fill="none" stroke-linejoin="round" />
<path d="M256.0 1024.0 L384.0 1024.0 L384.0 1152.0 L256.0 1152.0 Z" stroke-width="1" stroke="black" fill="black" stroke-linejoin="round" />
<path d="M384.0 7.105427357601002e-15 L512.0 0.0 L512.0 128.0 L384.0 128.0 Z" stroke-width="1" stroke="black" fill="none" stroke-linejoin="round" />
<path d="M384.0 128.0 L512.0 128.0 L512.0 256.0 L384.0 256.0 Z" stroke-width="1" stroke="black" fill="black" stroke-linejoin="round" />
<path d="M384.0 256.0 L512.0 256.0 L512.0 384.0 L384.0 384.0 Z" stroke-width="1" stroke="black" fill="none" stroke-linejoin="round" />
<path d="M384.0 384.0 L512.0 384.0 L512.0 512.0 L384.0 512.0 Z" stroke-width="1" stroke="black" fill="black" stroke-linejoin="round" />
<path d="M384.0 512.0 L512.0 512.0 L512.0 640.0 L384.0 640.0 Z" stroke-width="1" stroke="black" fill="none" stroke-linejoin="round" />
<path d="M384.0 640.0 L512.0 640.0 L512.0 768.0 L384.0 768.0 Z" stroke-width="1" stroke="black" fill="black" stroke-linejoin="round" />
<path d="M384.0 768.0 L512.0 768.0 L512.0 896.0 L384.0 896.0 Z" stroke-width="1" stroke="black" fill="none" stroke-linejoin="round" />
<path d="M384.0 896.0 L512.0 896.0 L512.0 1024.0 L384.0 1024.0 Z" stroke-width="1" stroke="black" fill="black" stroke-linejoin="round" />
<path d="M384.0 1024.0 L512.0 1024.0 L512.0 1152.0 L384.0 1152.0 Z" stroke-width="1" stroke="black" fill="none" stroke-linejoin="round" />
<path d="M512.0 7.105427357601002e-15 L640.0 0.0 L640.0 128.0 L512.0 128.0 Z" stroke-width="1" stroke="black" fill="black" stroke-linejoin="round" />
<path d="M512.0 128.0 L640.0 128.0 L640.0 256.0 L512.0 256.0 Z" stroke-width="1" stroke="black" fill="none" stroke-linejoin="round" />
<path d="M512.0 256.0 L640.0 256.0 L640.0 384.0 L512.0 384.0 Z" stroke-width="1" stroke="black" fill="black" stroke-linejoin="round" />
<path d="M512.0 384.0 L640.0 384.0 L640.0 512.0 L512.0 512.0 Z" stroke-width="1" stroke="black" fill="none" stroke-linejoin="round" />
<path d="M512.0 512.0 L640.0 512.0 L640.0 640.0 L512.0 640.0 Z" stroke-width="1" stroke="black" fill="black" stroke-linejoin="round" />
<path d="M512.0 640.0 L640.0 640.0 L640.0 768.0 L512.0 768.0 Z" stroke-width="1" stroke="black" fill="none" stroke-linejoin="round" />
<path d="M512.0 768.0 L640.0 768.0 L640.0 896.0 L512.0 896.0 Z" stroke-width="1" stroke="black" fill="black" stroke-linejoin="round" />
<path d="M512.0 896.0 L640.0 896.0 L640.0 1024.0 L512.0 1024.0 Z" stroke-width="1" stroke="black" fill="none" stroke-linejoin="round" />
<path d="M512.0 1024.0 L640.0 1024.0 L640.0 1152.0 L512.0 1152.0 Z" stroke-width="1" stroke="black" fill="black" stroke-linejoin="round" />
<path d="M640.0 7.105427357601002e-15 L768.0 0.0 L768.0 128.0 L640.0 128.0 Z" stroke-width="1" stroke="black" fill="none" stroke-linejoin="round" />
<path d="M640.0 128.0 L768.0 128.0 L768.0 256.0 L640.0 256.0 Z" stroke-width="1" stroke="black" fill="black" stroke-linejoin="round" />
<path d="M640.0 256.0 L768.0 256.0 L768.0 384.0 L640.0 384.0 Z" stroke-width="1" stroke="black" fill="none" stroke-linejoin="round" />
<path d="M640.0 384.0 L768.0 384.0 L768.0 512.0 L640.0 512.0 Z" stroke-width="1" stroke="black" fill="black" stroke-linejoin="round" />
<path d="M640.0 512.0 L768.0 512.0 L768.0 640.0 L640.0 640.0 Z" stroke-width="1" stroke="black" fill="none" stroke-linejoin="round" />
<path d="M640.0 640.0 L768.0 640.0 L768.0 768.0 L640.0 768.0 Z" stroke-width="1" stroke="black" fill="black" stroke-linejoin="round" />
<path d="M640.0 768.0 L768.0 768.0 L768.0 896.0 L640.0 896.0 Z" stroke-width="1" stroke="black" fill="none" stroke-linejoin="round" />
<path d="M640.0 896.0 L768.0 896.0 L768.0 1024.0 L640.0 1024.0 Z" stroke-width="1" stroke="black" fill="black" stroke-linejoin="round" />
<path d="M640.0 1024.0 L768.0 1024.0 L768.0 1152.0 L640.0 1152.0 Z" stroke-width="1" stroke="black" fill="none" stroke-linejoin="round" />
<path d="M768.0 7.105427357601002e-15 L896.0 0.0 L896.0 128.0 L768.0 128.0 Z" stroke-width="1" stroke="black" fill="black" stroke-linejoin="round" />
<path d="M768.0 128.0 L896.0 128.0 L896.0 256.0 L768.0 256.0 Z" stroke-width="1" stroke="black" fill="none" stroke-linejoin="round" />
<path d="M768.0 256.0 L896.0 256.0 L896.0 384.0 L768.0 384.0 Z" stroke-width="1" stroke="black" fill="black" stroke-linejoin="round" />
<path d="M768.0 384.0 L896.0 384.0 L896.0 512.0 L768.0 512.0 Z" stroke-width="1" stroke="black" fill="none" stroke-linejoin="round" />
<path d="M768.0 512.0 L896.0 512.0 L896.0 640.0 L768.0 640.0 Z" stroke-width="1" stroke="black" fill="black" stroke-linejoin="round" />
<path d="M768.0 640.0 L896.0 640.0 L896.0 768.0 L768.0 768.0 Z" stroke-width="1" stroke="black" fill="none" stroke-linejoin="round" />
<path d="M768.0 768.0 L896.0 768.0 L896.0 896.0 L768.0 896.0 Z" stroke-width="1" stroke="black" fill="black" stroke-linejoin="round" />
<path d="M768.0 896.0 L896.0 896.0 L896.0 1024.0 L768.0 1024.0 Z" stroke-width="1" stroke="black" fill="none" stroke-linejoin="round" />
<path d="M768.0 1024.0 L896.0 1024.0 L896.0 1152.0 L768.0 1152.0 Z" stroke-width="1" stroke="black" fill="black" stroke-linejoin="round" />
<path d="M896.0 7.105427357601002e-15 L1024.0 0.0 L1024.0 128.0 L896.0 128.0 Z" stroke-width="1" stroke="black" fill="none" stroke-linejoin="round" />
<path d="M896.0 128.0 L1024.0 128.0 L1024.0 256.0 L896.0 256.0 Z" stroke-width="1" stroke="black" fill="black" stroke-linejoin="round" />
<path d="M896.0 256.0 L1024.0 256.0 L1024.0 384.0 L896.0 384.0 Z" stroke-width="1" stroke="black" fill="none" stroke-linejoin="round" />
<path d="M896.0 384.0 L1024.0 384.0 L1024.0 512.0 L896.0 512.0 Z" stroke-width="1" stroke="black" fill="black" stroke-linejoin="round" />
<path d="M896.0 512.0 L1024.0 512.0 L1024.0 640.0 L896.0 640.0 Z" stroke-width="1" stroke="black" fill="none" stroke-linejoin="round" />
<path d="M896.0 640.0 L1024.0 640.0 L1024.0 768.0 L896.0 768.0 Z" stroke-width="1" stroke="black" fill="black" stroke-linejoin="round" />
<path d="M896.0 768.0 L1024.0 768.0 L1024.0 896.0 L896.0 896.0 Z" stroke-width="1" stroke="black" fill="none" stroke-linejoin="round" />
<path d="M896.0 896.0 L1024.0 896.0 L1024.0 1024.0 L896.0 1024.0 Z" stroke-width="1" stroke="black" fill="black" stroke-linejoin="round" />
<path d="M896.0 1024.0 L1024.0 1024.0 L1024.0 1152.0 L896.0 1152.0 Z" stroke-width="1" stroke="black" fill="none" stroke-linejoin="round" />
<path d="M1024.0 7.105427357601002e-15 L1152.0 0.0 L1152.0 128.0 L1024.0 128.0 Z" stroke-width="1" stroke="black" fill="black" stroke-linejoin="round" />
</svg>