<svg width="1024" height="1024">
<rect width="100%" height="100%" fill="#98dfaf" />
<path d="M798.558 722.968 L830.697 696.0 Z" stroke-width="3" stroke="#5fb49c" fill="none" stroke-linejoin="round" />
<path d="M766.419 749.936 L837.983 654.683 Z" stroke-width="3" stroke="#5fb49c" fill="none" stroke-linejoin="round" />
<path d="M734.28 776.903 L845.268 613.366 Z" stroke-width="3" stroke="#5fb49c" fill="none" stroke-linejoin="round" />
<path d="M702.141 803.871 L852.553 572.049 Z" stroke-width="3" stroke="#5fb49c" fill="none" stroke-linejoin="round" />
<path d="M670.002 830.839 L859.839 530.732 Z" stroke-width="3" stroke="#5fb49c" fill="none" stroke-linejoin="round" />
<path d="M637.863 857.807 L867.124 489.415 Z" stroke-width="3" stroke="#5fb49c" fill="none" stroke-linejoin="round" />
<path d="M637.863 857.807 L874.409 448.097 Z" stroke-width="3" stroke="#5fb49c" fill="none" stroke-linejoin="round" />
<path d="M595.909 857.807 L874.409 448.097 Z" stroke-width="3" stroke="#5fb49c" fill="none" stroke-linejoin="round" />
<path d="M553.954 857.807 L853.432 411.764 Z" stroke-width="3" stroke="#5fb49c" fill="none" stroke-linejoin="round" />
<path d="M512.0 857.807 L832.455 375.43 Z" stroke-width="3" stroke="#5fb49c" fill="none" stroke-linejoin="round" />
<path d="M470.046 857.807 L811.478 339.097 Z" stroke-width="3" stroke="#5fb49c" fill="none" stroke-linejoin="round" />
<path d="M428.091 857.807 L790.5 302.763 Z" stroke-width="3" stroke="#5fb49c" fill="none" stroke-linejoin="round" />
<path d="M386.137 857.807 L769.523 266.429 Z" stroke-width="3" stroke="#5fb49c" fill="none" stroke-linejoin="round" />
<path d="M386.137 857.807 L748.546 230.096 Z" stroke-width="3" stroke="#5fb49c" fill="none" stroke-linejoin="round" />
<path d="M353.998 830.839 L748.546 230.096 Z" stroke-width="3" stroke="#5fb49c" fill="none" stroke-linejoin="round" />
<path d="M321.859 803.871 L709.122 215.746 Z" stroke-width="3" stroke="#5fb49c" fill="none" stroke-linejoin="round" />
<path d="M289.72 776.903 L669.697 201.397 Z" stroke-width="3" stroke="#5fb49c" fill="none" stroke-linejoin="round" />
<path d="M257.581 749.936 L630.273 187.048 Z" stroke-width="3" stroke="#5fb49c" fill="none" stroke-linejoin="round" />
<path d="M225.442 722.968 L590.849 172.699 Z" stroke-width="3" stroke="#5fb49c" fill="none" stroke-linejoin="round" />
<path d="M193.303 696.0 L551.424 158.349 Z" stroke-width="3" stroke="#5fb49c" fill="none" stroke-linejoin="round" />
<path d="M193.303 696.0 L512.0 144.0 Z" stroke-width="3" stroke="#5fb49c" fill="none" stroke-linejoin="round" />
<path d="M186.017 654.683 L512.0 144.0 Z" stroke-width="3" stroke="#5fb49c" fill="none" stroke-linejoin="round" />
<path d="M178.732 613.366 L472.576 158.349 Z" stroke-width="3" stroke="#5fb49c" fill="none" stroke-linejoin="round" />
<path d="M171.447 572.049 L433.151 172.699 Z" stroke-width="3" stroke="#5fb49c" fill="none" stroke-linejoin="round" />
<path d="M164.161 530.732 L393.727 187.048 Z" stroke-width="3" stroke="#5fb49c" fill="none" stroke-linejoin="round" />
<path d="M156.876 489.415 L354.303 201.397 Z" stroke-width="3" stroke="#5fb49c" fill="none" stroke-linejoin="round" />
<path d="M149.591 448.097 L314.878 215.746 Z" stroke-width="3" stroke="#5fb49c" fill="none" stroke-linejoin="round" />
<path d="M149.591 448.097 L275.454 230.096 Z" stroke-width="3" stroke="#5fb49c" fill="none" stroke-linejoin="round" />
<path d="M170.568 411.764 L275.454 230.096 Z" stroke-width="3" stroke="#5fb49c" fill="none" stroke-linejoin="round" />
<path d="M191.545 375.43 L254.477 266.429 Z" stroke-width="3" stroke="#5fb49c" fill="none" stroke-linejoin="round" />
<path d="M212.522 339.097 L233.5 302.763 Z" stroke-width="3" stroke="#5fb49c" fill="none" stroke-linejoin="round" />
<path d="M233.5 302.763 L212.522 339.097 Z" stroke-width="3" stroke="#5fb49c" fill="none" stroke-linejoin="round" />
<path d="M254.477 266.429 L191.545 375.43 Z" stroke-width="3" stroke="#5fb49c" fill="none" stroke-linejoin="round" />
<path d="M275.454 230.096 L170.568 411.764 Z" stroke-width="3" stroke="#5fb49c" fill="none" stroke-linejoin="round" />
<path d="M275.454 230.096 L149.591 448.097 Z" stroke-width="3" stroke="#5fb49c" fill="none" stroke-linejoin="round" />
<path d="M314.878 215.746 L149.591 448.097 Z" stroke-width="3" stroke="#5fb49c" fill="none" stroke-linejoin="round" />
<path d="M354.303 201.397 L156.876 489.415 Z" stroke-width="3" stroke="#5fb49c" fill="none" stroke-linejoin="round" />
<path d="M393.727 187.048 L164.161 530.732 Z" stroke-width="3" stroke="#5fb49c" fill="none" stroke-linejoin="round" />
<path d="M433.151 172.699 L171.447 572.049 Z" stroke-width="3" stroke="#5fb49c" fill="none" stroke-linejoin="round" />
<path d="M472.576 158.349 L178.732 613.366 Z" stroke-width="3" stroke="#5fb49c" fill="none" stroke-linejoin="round" />
<path d="M512.0 144.0 L186.017 654.683 Z" stroke-width="3" stroke="#5fb49c" fill="none" stroke-linejoin="round" />
<path d="M512.0 144.0 L193.303 696.0 Z" stroke-width="3" stroke="#5fb49c" fill="none" stroke-linejoin="round" />
<path d="M551.424 158.349 L193.303 696.0 Z" stroke-width="3" stroke="#5fb49c" fill="none" stroke-linejoin="round" />
<path d="M590.849 172.699 L225.442 722.968 Z" stroke-width="3" stroke="#5fb49c" fill="none" stroke-linejoin="round" />
<path d="M630.273 187.048 L257.581 749.936 Z" stroke-width="3" stroke="#5fb49c" fill="none" stroke-linejoin="round" />
<path d="M669.697 201.397 L289.72 776.903 Z" stroke-width="3" stroke="#5fb49c" fill="none" stroke-linejoin="round" />
<path d="M709.122 215.746 L321.859 803.871 Z" stroke-width="3" stroke="#5fb49c" fill="none" stroke-linejoin="round" />
<path d="M748.546 230.096 L353.998 830.839 Z" stroke-width="3" stroke="#5fb49c" fill="none" stroke-linejoin="round" />
<path d="M748.546 230.096 L386.137 857.807 Z" stroke-width="3" stroke="#5fb49c" fill="none" stroke-linejoin="round" />
<path d="M769.523 266.429 L386.137 857.807 Z" stroke-width="3" stroke="#5fb49c" fill="none" stroke-linejoin="round" />
<path d="M790.5 302.763 L428.091 857.807 Z" stroke-width="3" stroke="#5fb49c" fill="none" stroke-linejoin="round" />
<path d="M811.478 339.097 L470.046 857.807 Z" stroke-width="3" stroke="#5fb49c" fill="none" stroke-linejoin="round" />
<path d="M832.455 375.43 L512.0 857.807 Z" stroke-width="3" stroke="#5fb49c" fill="none" stroke-linejoin="round" />
<path d="M853.432 411.764 L553.954 857.807 Z" stroke-width="3" stroke="#5fb49c" fill="none" stroke-linejoin="round" />
<path d="M874.409 448.097 L595.909 857.807 Z" stroke-width="3" stroke="#5fb49c" fill="none" stroke-linejoin="round" />
<path d="M874.409 448.097 L637.863 857.807 Z" stroke-width="3" stroke="#5fb49c" fill="none" stroke-linejoin="round" />
<path d="M867.124 489.415 L637.863 857.807 Z" stroke-width="3" stroke="#5fb49c" fill="none" stroke-linejoin="round" />
<path d="M859.839 530.732 L670.002 830.839 Z" stroke-width="3" stroke="#5fb49c" fill="none" stroke-linejoin="round" />
<path d="M852.553 572.049 L702.141 803.871 Z" stroke-width="3" stroke="#5fb49c" fill="none" stroke-linejoin="round" />
<path d="M845.268 613.366 L734.28 776.903 Z" stroke-width="3" stroke="#5fb49c" fill="none" stroke-linejoin="round" />
<path d="M837.983 654.683 L766.419 749.936 Z" stroke-width="3" stroke="#5fb49c" fill="none" stroke-linejoin="round" />
<path d="M830.697 696.0 L798.558 722.968 Z" stroke-width="3" stroke="#5fb49c" fill="none" stroke-linejoin="round" />
<path d="M225.442 301.032 L830.697 696.0 Z" stroke-width="3" stroke="#414288" fill="none" stroke-linejoin="round" />
<path d="M257.581 274.064 L186.017 369.317 Z" stroke-width="3" stroke="#414288" fill="none" stroke-linejoin="round" />
<path d="M289.72 247.097 L178.732 410.634 Z" stroke-width="3" stroke="#414288" fill="none" stroke-linejoin="round" />
<path d="M321.859 220.129 L171.447 451.951 Z" stroke-width="3" stroke="#414288" fill="none" stroke-linejoin="round" />
<path d="M353.998 193.161 L164.161 493.268 Z" stroke-width="3" stroke="#414288" fill="none" stroke-linejoin="round" />
<path d="M637.863 857.807 L156.876 534.585 Z" stroke-width="3" stroke="#414288" fill="none" stroke-linejoin="round" />
<path d="M637.863 857.807 L874.409 448.097 Z" stroke-width="3" stroke="#414288" fill="none" stroke-linejoin="round" />
<path d="M428.091 166.193 L874.409 448.097 Z" stroke-width="3" stroke="#414288" fill="none" stroke-linejoin="round" />
<path d="M470.046 166.193 L170.568 612.236 Z" stroke-width="3" stroke="#414288" fill="none" stroke-linejoin="round" />
<path d="M512.0 166.193 L191.545 648.57 Z" stroke-width="3" stroke="#414288" fill="none" stroke-linejoin="round" />
<path d="M553.954 166.193 L212.522 684.903 Z" stroke-width="3" stroke="#414288" fill="none" stroke-linejoin="round" />
<path d="M595.909 166.193 L233.5 721.237 Z" stroke-width="3" stroke="#414288" fill="none" stroke-linejoin="round" />
<path d="M386.137 857.807 L254.477 757.571 Z" stroke-width="3" stroke="#414288" fill="none" stroke-linejoin="round" />
<path d="M386.137 857.807 L748.546 230.096 Z" stroke-width="3" stroke="#414288" fill="none" stroke-linejoin="round" />
<path d="M670.002 193.161 L748.546 230.096 Z" stroke-width="3" stroke="#414288" fill="none" stroke-linejoin="round" />
<path d="M702.141 220.129 L314.878 808.254 Z" stroke-width="3" stroke="#414288" fill="none" stroke-linejoin="round" />
<path d="M734.28 247.097 L354.303 822.603 Z" stroke-width="3" stroke="#414288" fill="none" stroke-linejoin="round" />
<path d="M766.419 274.064 L393.727 836.952 Z" stroke-width="3" stroke="#414288" fill="none" stroke-linejoin="round" />
<path d="M798.558 301.032 L433.151 851.301 Z" stroke-width="3" stroke="#414288" fill="none" stroke-linejoin="round" />
<path d="M193.303 696.0 L472.576 865.651 Z" stroke-width="3" stroke="#414288" fill="none" stroke-linejoin="round" />
<path d="M193.303 696.0 L512.0 144.0 Z" stroke-width="3" stroke="#414288" fill="none" stroke-linejoin="round" />
<path d="M837.983 369.317 L512.0 144.0 Z" stroke-width="3" stroke="#414288" fill="none" stroke-linejoin="round" />
<path d="M845.268 410.634 L551.424 865.651 Z" stroke-width="3" stroke="#414288" fill="none" stroke-linejoin="round" />
<path d="M852.553 451.951 L590.849 851.301 Z" stroke-width="3" stroke="#414288" fill="none" stroke-linejoin="round" />
<path d="M859.839 493.268 L630.273 836.952 Z" stroke-width="3" stroke="#414288" fill="none" stroke-linejoin="round" />
<path d="M867.124 534.585 L669.697 822.603 Z" stroke-width="3" stroke="#414288" fill="none" stroke-linejoin="round" />
<path d="M149.591 448.097 L709.122 808.254 Z" stroke-width="3" stroke="#414288" fill="none" stroke-linejoin="round" />
<path d="M149.591 448.097 L275.454 230.096 Z" stroke-width="3" stroke="#414288" fill="none" stroke-linejoin="round" />
<path d="M853.432 612.236 L275.454 230.096 Z" stroke-width="3" stroke="#414288" fill="none" stroke-linejoin="round" />
<path d="M832.455 648.57 L769.523 757.571 Z" stroke-width="3" stroke="#414288" fill="none" stroke-linejoin="round" />
<path d="M811.478 684.903 L790.5 721.237 Z" stroke-width="3" stroke="#414288" fill="none" stroke-linejoin="round" />
<path d="M790.5 721.237 L811.478 684.903 Z" stroke-width="3" stroke="#414288" fill="none" stroke-linejoin="round" />
<path d="M769.523 757.571 L832.455 648.57 Z" stroke-width="3" stroke="#414288" fill="none" stroke-linejoin="round" />
<path d="M275.454 230.096 L853.432 612.236 Z" stroke-width="3" stroke="#414288" fill="none" stroke-linejoin="round" />
<path d="M275.454 230.096 L149.591 448.097 Z" stroke-width="3" stroke="#414288" fill="none" stroke-linejoin="round" />
<path d="M709.122 808.254 L149.591 448.097 Z" stroke-width="3" stroke="#414288" fill="none" stroke-linejoin="round" />
<path d="M669.697 822.603 L867.124 534.585 Z" stroke-width="3" stroke="#414288" fill="none" stroke-linejoin="round" />
<path d="M630.273 836.952 L859.839 493.268 Z" stroke-width="3" stroke="#414288" fill="none" stroke-linejoin="round" />
<path d="M590.849 851.301 L852.553 451.951 Z" stroke-width="3" stroke="#414288" fill="none" stroke-linejoin="round" />
<path d="M551.424 865.651 L845.268 410.634 Z" stroke-width="3" stroke="#414288" fill="none" stroke-linejoin="round" />
<path d="M512.0 144.0 L837.983 369.317 Z" stroke-width="3" stroke="#414288" fill="none" stroke-linejoin="round" />
<path d="M512.0 144.0 L193.303 696.0 Z" stroke-width="3" stroke="#414288" fill="none" stroke-linejoin="round" />
<path d="M472.576 865.651 L193.303 696.0 Z" stroke-width="3" stroke="#414288" fill="none" stroke-linejoin="round" />
<path d="M433.151 851.301 L798.558 301.032 Z" stroke-width="3" stroke="#414288" fill="none" stroke-linejoin="round" />
<path d="M393.727 836.952 L766.419 274.064 Z" stroke-width="3" stroke="#414288" fill="none" stroke-linejoin="round" />
<path d="M354.303 822.603 L734.28 247.097 Z" stroke-width="3" stroke="#414288" fill="none" stroke-linejoin="round" />
<path d="M314.878 808.254 L702.141 220.129 Z" stroke-width="3" stroke="#414288" fill="none" stroke-linejoin="round" />
<path d="M748.546 230.096 L670.002 193.161 Z" stroke-width="3" stroke="#414288" fill="none" stroke-linejoin="round" />
<path d="M748.546 230.096 L386.137 857.807 Z" stroke-width="3" stroke="#414288" fill="none" stroke-linejoin="round" />
<path d="M254.477 757.571 L386.137 857.807 Z" stroke-width="3" stroke="#414288" fill="none" stroke-linejoin="round" />
<path d="M233.5 721.237 L595.909 166.193 Z" stroke-width="3" stroke="#414288" fill="none" stroke-linejoin="round" />
<path d="M212.522 684.903 L553.954 166.193 Z" stroke-width="3" stroke="#414288" fill="none" stroke-linejoin="round" />
<path d="M191.545 648.57 L512.0 166.193 Z" stroke-width="3" stroke="#414288" fill="none" stroke-linejoin="round" />
<path d="M170.568 612.236 L470.046 166.193 Z" stroke-width="3" stroke="#414288" fill="none" stroke-linejoin="round" />
<path d="M874.409 448.097 L428.091 166.193 Z" stroke-width="3" stroke="#414288" fill="none" stroke-linejoin="round" />
<path d="M874.409 448.097 L637.863 857.807 Z" stroke-width="3" stroke="#414288" fill="none" stroke-linejoin="round" />
<path d="M156.876 534.585 L637.863 857.807 Z" stroke-width="3" stroke="#414288" fill="none" stroke-linejoin="round" />
<path d="M164.161 493.268 L353.998 193.161 Z" stroke-width="3" stroke="#414288" fill="none" stroke-linejoin="round" />
<path d="M171.447 451.951 L321.859 220.129 Z" stroke-width="3" stroke="#414288" fill="none" stroke-linejoin="round" />
<path d="M178.732 410.634 L289.72 247.097 Z" stroke-width="3" stroke="#414288" fill="none" stroke-linejoin="round" />
<path d="M186.017 369.317 L257.581 274.064 Z" stroke-width="3" stroke="#414288" fill="none" stroke-linejoin="round" />
<path d="M830.697 696.0 L225.442 301.032 Z" stroke-width="3" stroke="#414288" fill="none" stroke-linejoin="round" />
</svg>