<svg width="1024" height="1024">
<rect width="100%" height="100%" fill="#98dfaf" />
<path d="M818.794 686.021 L851.988 652.828 Z" stroke-width="3" stroke="#5fb49c" fill="none" stroke-linejoin="round" />
<path d="M785.601 719.214 L851.988 605.885 Z" stroke-width="3" stroke="#5fb49c" fill="none" stroke-linejoin="round" />
<path d="M752.408 752.408 L851.988 558.943 Z" stroke-width="3" stroke="#5fb49c" fill="none" stroke-linejoin="round" />
<path d="M719.214 785.601 L851.988 512.0 Z" stroke-width="3" stroke="#5fb49c" fill="none" stroke-linejoin="round" />
<path d="M686.021 818.794 L851.988 465.057 Z" stroke-width="3" stroke="#5fb49c" fill="none" stroke-linejoin="round" />
<path d="M652.828 851.988 L851.988 418.115 Z" stroke-width="3" stroke="#5fb49c" fill="none" stroke-linejoin="round" />
<path d="M652.828 851.988 L851.988 371.172 Z" stroke-width="3" stroke="#5fb49c" fill="none" stroke-linejoin="round" />
<path d="M605.885 851.988 L851.988 371.172 Z" stroke-width="3" stroke="#5fb49c" fill="none" stroke-linejoin="round" />
<path d="M558.943 851.988 L818.794 337.979 Z" stroke-width="3" stroke="#5fb49c" fill="none" stroke-linejoin="round" />
<path d="M512.0 851.988 L785.601 304.786 Z" stroke-width="3" stroke="#5fb49c" fill="none" stroke-linejoin="round" />
<path d="M465.057 851.988 L752.408 271.592 Z" stroke-width="3" stroke="#5fb49c" fill="none" stroke-linejoin="round" />
<path d="M418.115 851.988 L719.214 238.399 Z" stroke-width="3" stroke="#5fb49c" fill="none" stroke-linejoin="round" />
<path d="M371.172 851.988 L686.021 205.206 Z" stroke-width="3" stroke="#5fb49c" fill="none" stroke-linejoin="round" />
<path d="M371.172 851.988 L652.828 172.012 Z" stroke-width="3" stroke="#5fb49c" fill="none" stroke-linejoin="round" />
<path d="M337.979 818.794 L652.828 172.012 Z" stroke-width="3" stroke="#5fb49c" fill="none" stroke-linejoin="round" />
<path d="M304.786 785.601 L605.885 172.012 Z" stroke-width="3" stroke="#5fb49c" fill="none" stroke-linejoin="round" />
<path d="M271.592 752.408 L558.943 172.012 Z" stroke-width="3" stroke="#5fb49c" fill="none" stroke-linejoin="round" />
<path d="M238.399 719.214 L512.0 172.012 Z" stroke-width="3" stroke="#5fb49c" fill="none" stroke-linejoin="round" />
<path d="M205.206 686.021 L465.057 172.012 Z" stroke-width="3" stroke="#5fb49c" fill="none" stroke-linejoin="round" />
<path d="M172.012 652.828 L418.115 172.012 Z" stroke-width="3" stroke="#5fb49c" fill="none" stroke-linejoin="round" />
<path d="M172.012 652.828 L371.172 172.012 Z" stroke-width="3" stroke="#5fb49c" fill="none" stroke-linejoin="round" />
<path d="M172.012 605.885 L371.172 172.012 Z" stroke-width="3" stroke="#5fb49c" fill="none" stroke-linejoin="round" />
<path d="M172.012 558.943 L337.979 205.206 Z" stroke-width="3" stroke="#5fb49c" fill="none" stroke-linejoin="round" />
<path d="M172.012 512.0 L304.786 238.399 Z" stroke-width="3" stroke="#5fb49c" fill="none" stroke-linejoin="round" />
<path d="M172.012 465.057 L271.592 271.592 Z" stroke-width="3" stroke="#5fb49c" fill="none" stroke-linejoin="round" />
<path d="M172.012 418.115 L238.399 304.786 Z" stroke-width="3" stroke="#5fb49c" fill="none" stroke-linejoin="round" />
<path d="M172.012 371.172 L205.206 337.979 Z" stroke-width="3" stroke="#5fb49c" fill="none" stroke-linejoin="round" />
<path d="M172.012 371.172 L172.012 371.172 Z" stroke-width="3" stroke="#5fb49c" fill="none" stroke-linejoin="round" />
<path d="M205.206 337.979 L172.012 371.172 Z" stroke-width="3" stroke="#5fb49c" fill="none" stroke-linejoin="round" />
<path d="M238.399 304.786 L172.012 418.115 Z" stroke-width="3" stroke="#5fb49c" fill="none" stroke-linejoin="round" />
<path d="M271.592 271.592 L172.012 465.057 Z" stroke-width="3" stroke="#5fb49c" fill="none" stroke-linejoin="round" />
<path d="M304.786 238.399 L172.012 512.0 Z" stroke-width="3" stroke="#5fb49c" fill="none" stroke-linejoin="round" />
<path d="M337.979 205.206 L172.012 558.943 Z" stroke-width="3" stroke="#5fb49c" fill="none" stroke-linejoin="round" />
<path d="M371.172 172.012 L172.012 605.885 Z" stroke-width="3" stroke="#5fb49c" fill="none" stroke-linejoin="round" />
<path d="M371.172 172.012 L172.012 652.828 Z" stroke-width="3" stroke="#5fb49c" fill="none" stroke-linejoin="round" />
<path d="M418.115 172.012 L172.012 652.828 Z" stroke-width="3" stroke="#5fb49c" fill="none" stroke-linejoin="round" />
<path d="M465.057 172.012 L205.206 686.021 Z" stroke-width="3" stroke="#5fb49c" fill="none" stroke-linejoin="round" />
<path d="M512.0 172.012 L238.399 719.214 Z" stroke-width="3" stroke="#5fb49c" fill="none" stroke-linejoin="round" />
<path d="M558.943 172.012 L271.592 752.408 Z" stroke-width="3" stroke="#5fb49c" fill="none" stroke-linejoin="round" />
<path d="M605.885 172.012 L304.786 785.601 Z" stroke-width="3" stroke="#5fb49c" fill="none" stroke-linejoin="round" />
<path d="M652.828 172.012 L337.979 818.794 Z" stroke-width="3" stroke="#5fb49c" fill="none" stroke-linejoin="round" />
<path d="M652.828 172.012 L371.172 851.988 Z" stroke-width="3" stroke="#5fb49c" fill="none" stroke-linejoin="round" />
<path d="M686.021 205.206 L371.172 851.988 Z" stroke-width="3" stroke="#5fb49c" fill="none" stroke-linejoin="round" />
<path d="M719.214 238.399 L418.115 851.988 Z" stroke-width="3" stroke="#5fb49c" fill="none" stroke-linejoin="round" />
<path d="M752.408 271.592 L465.057 851.988 Z" stroke-width="3" stroke="#5fb49c" fill="none" stroke-linejoin="round" />
<path d="M785.601 304.786 L512.0 851.988 Z" stroke-width="3" stroke="#5fb49c" fill="none" stroke-linejoin="round" />
<path d="M818.794 337.979 L558.943 851.988 Z" stroke-width="3" stroke="#5fb49c" fill="none" stroke-linejoin="round" />
<path d="M851.988 371.172 L605.885 851.988 Z" stroke-width="3" stroke="#5fb49c" fill="none" stroke-linejoin="round" />
<path d="M851.988 371.172 L652.828 851.988 Z" stroke-width="3" stroke="#5fb49c" fill="none" stroke-linejoin="round" />
<path d="M851.988 418.115 L652.828 851.988 Z" stroke-width="3" stroke="#5fb49c" fill="none" stroke-linejoin="round" />
<path d="M851.988 465.057 L686.021 818.794 Z" stroke-width="3" stroke="#5fb49c" fill="none" stroke-linejoin="round" />
<path d="M851.988 512.0 L719.214 785.601 Z" stroke-width="3" stroke="#5fb49c" fill="none" stroke-linejoin="round" />
<path d="M851.988 558.943 L752.408 752.408 Z" stroke-width="3" stroke="#5fb49c" fill="none" stroke-linejoin="round" />
<path d="M851.988 605.885 L785.601 719.214 Z" stroke-width="3" stroke="#5fb49c" fill="none" stroke-linejoin="round" />
<path d="M851.988 652.828 L818.794 686.021 Z" stroke-width="3" stroke="#5fb49c" fill="none" stroke-linejoin="round" />
<path d="M205.206 337.979 L851.988 652.828 Z" stroke-width="3" stroke="#414288" fill="none" stroke-linejoin="round" />
<path d="M238.399 304.786 L172.012 418.115 Z" stroke-width="3" stroke="#414288" fill="none" stroke-linejoin="round" />
<path d="M271.592 271.592 L172.012 465.057 Z" stroke-width="3" stroke="#414288" fill="none" stroke-linejoin="round" />
<path d="M304.786 238.399 L172.012 512.0 Z" stroke-width="3" stroke="#414288" fill="none" stroke-linejoin="round" />
<path d="M337.979 205.206 L172.012 558.943 Z" stroke-width="3" stroke="#414288" fill="none" stroke-linejoin="round" />
<path d="M652.828 851.988 L172.012 605.885 Z" stroke-width="3" stroke="#414288" fill="none" stroke-linejoin="round" />
<path d="M652.828 851.988 L851.988 371.172 Z" stroke-width="3" stroke="#414288" fill="none" stroke-linejoin="round" />
<path d="M418.115 172.012 L851.988 371.172 Z" stroke-width="3" stroke="#414288" fill="none" stroke-linejoin="round" />
<path d="M465.057 172.012 L205.206 686.021 Z" stroke-width="3" stroke="#414288" fill="none" stroke-linejoin="round" />
<path d="M512.0 172.012 L238.399 719.214 Z" stroke-width="3" stroke="#414288" fill="none" stroke-linejoin="round" />
<path d="M558.943 172.012 L271.592 752.408 Z" stroke-width="3" stroke="#414288" fill="none" stroke-linejoin="round" />
<path d="M605.885 172.012 L304.786 785.601 Z" stroke-width="3" stroke="#414288" fill="none" stroke-linejoin="round" />
<path d="M371.172 851.988 L337.979 818.794 Z" stroke-width="3" stroke="#414288" fill="none" stroke-linejoin="round" />
<path d="M371.172 851.988 L652.828 172.012 Z" stroke-width="3" stroke="#414288" fill="none" stroke-linejoin="round" />
<path d="M686.021 205.206 L652.828 172.012 Z" stroke-width="3" stroke="#414288" fill="none" stroke-linejoin="round" />
<path d="M719.214 238.399 L418.115 851.988 Z" stroke-width="3" stroke="#414288" fill="none" stroke-linejoin="round" />
<path d="M752.408 271.592 L465.057 851.988 Z" stroke-width="3" stroke="#414288" fill="none" stroke-linejoin="round" />
<path d="M785.601 304.786 L512.0 851.988 Z" stroke-width="3" stroke="#414288" fill="none" stroke-linejoin="round" />
<path d="M818.794 337.979 L558.943 851.988 Z" stroke-width="3" stroke="#414288" fill="none" stroke-linejoin="round" />
<path d="M172.012 652.828 L605.885 851.988 Z" stroke-width="3" stroke="#414288" fill="none" stroke-linejoin="round" />
<path d="M172.012 652.828 L371.172 172.012 Z" stroke-width="3" stroke="#414288" fill="none" stroke-linejoin="round" />
<path d="M851.988 418.115 L371.172 172.012 Z" stroke-width="3" stroke="#414288" fill="none" stroke-linejoin="round" />
<path d="M851.988 465.057 L686.021 818.794 Z" stroke-width="3" stroke="#414288" fill="none" stroke-linejoin="round" />
<path d="M851.988 512.0 L719.214 785.601 Z" stroke-width="3" stroke="#414288" fill="none" stroke-linejoin="round" />
<path d="M851.988 558.943 L752.408 752.408 Z" stroke-width="3" stroke="#414288" fill="none" stroke-linejoin="round" />
<path d="M851.988 605.885 L785.601 719.214 Z" stroke-width="3" stroke="#414288" fill="none" stroke-linejoin="round" />
<path d="M172.012 371.172 L818.794 686.021 Z" stroke-width="3" stroke="#414288" fill="none" stroke-linejoin="round" />
<path d="M172.012 371.172 L172.012 371.172 Z" stroke-width="3" stroke="#414288" fill="none" stroke-linejoin="round" />
<path d="M818.794 686.021 L172.012 371.172 Z" stroke-width="3" stroke="#414288" fill="none" stroke-linejoin="round" />
<path d="M785.601 719.214 L851.988 605.885 Z" stroke-width="3" stroke="#414288" fill="none" stroke-linejoin="round" />
<path d="M752.408 752.408 L851.988 558.943 Z" stroke-width="3" stroke="#414288" fill="none" stroke-linejoin="round" />
<path d="M719.214 785.601 L851.988 512.0 Z" stroke-width="3" stroke="#414288" fill="none" stroke-linejoin="round" />
<path d="M686.021 818.794 L851.988 465.057 Z" stroke-width="3" stroke="#414288" fill="none" stroke-linejoin="round" />
<path d="M371.172 172.012 L851.988 418.115 Z" stroke-width="3" stroke="#414288" fill="none" stroke-linejoin="round" />
<path d="M371.172 172.012 L172.012 652.828 Z" stroke-width="3" stroke="#414288" fill="none" stroke-linejoin="round" />
<path d="M605.885 851.988 L172.012 652.828 Z" stroke-width="3" stroke="#414288" fill="none" stroke-linejoin="round" />
<path d="M558.943 851.988 L818.794 337.979 Z" stroke-width="3" stroke="#414288" fill="none" stroke-linejoin="round" />
<path d="M512.0 851.988 L785.601 304.786 Z" stroke-width="3" stroke="#414288" fill="none" stroke-linejoin="round" />
<path d="M465.057 851.988 L752.408 271.592 Z" stroke-width="3" stroke="#414288" fill="none" stroke-linejoin="round" />
<path d="M418.115 851.988 L719.214 238.399 Z" stroke-width="3" stroke="#414288" fill="none" stroke-linejoin="round" />
<path d="M652.828 172.012 L686.021 205.206 Z" stroke-width="3" stroke="#414288" fill="none" stroke-linejoin="round" />
<path d="M652.828 172.012 L371.172 851.988 Z" stroke-width="3" stroke="#414288" fill="none" stroke-linejoin="round" />
<path d="M337.979 818.794 L371.172 851.988 Z" stroke-width="3" stroke="#414288" fill="none" stroke-linejoin="round" />
<path d="M304.786 785.601 L605.885 172.012 Z" stroke-width="3" stroke="#414288" fill="none" stroke-linejoin="round" />
<path d="M271.592 752.408 L558.943 172.012 Z" stroke-width="3" stroke="#414288" fill="none" stroke-linejoin="round" />
<path d="M238.399 719.214 L512.0 172.012 Z" stroke-width="3" stroke="#414288" fill="none" stroke-linejoin="round" />
<path d="M205.206 686.021 L465.057 172.012 Z" stroke-width="3" stroke="#414288" fill="none" stroke-linejoin="round" />
<path d="M851.988 371.172 L418.115 172.012 Z" stroke-width="3" stroke="#414288" fill="none" stroke-linejoin="round" />
<path d="M851.988 371.172 L652.828 851.988 Z" stroke-width="3" stroke="#414288" fill="none" stroke-linejoin="round" />
<path d="M172.012 605.885 L652.828 851.988 Z" stroke-width="3" stroke="#414288" fill="none" stroke-linejoin="round" />
<path d="M172.012 558.943 L337.979 205.206 Z" stroke-width="3" stroke="#414288" fill="none" stroke-linejoin="round" />
<path d="M172.012 512.0 L304.786 238.399 Z" stroke-width="3" stroke="#414288" fill="none" stroke-linejoin="round" />
<path d="M172.012 465.057 L271.592 271.592 Z" stroke-width="3" stroke="#414288" fill="none" stroke-linejoin="round" />
<path d="M172.012 418.115 L238.399 304.786 Z" stroke-width="3" stroke="#414288" fill="none" stroke-linejoin="round" />
<path d="M851.988 652.828 L205.206 337.979 Z" stroke-width="3" stroke="#414288" fill="none" stroke-linejoin="round" />
</svg>