<svg width="1024" height="1024">
<rect width="100%" height="100%" fill="#98dfaf" />
<path d="M642.528 854.04 L351.434 184.265 Z" stroke-width="5" stroke="#5fb49c" fill="none" stroke-linejoin="round" />
<path d="M626.444 858.547 L336.113 190.919 Z" stroke-width="5" stroke="#5fb49c" fill="none" stroke-linejoin="round" />
<path d="M610.36 863.053 L320.793 197.574 Z" stroke-width="5" stroke="#5fb49c" fill="none" stroke-linejoin="round" />
<path d="M594.277 867.56 L320.793 197.574 Z" stroke-width="5" stroke="#5fb49c" fill="none" stroke-linejoin="round" />
<path d="M578.193 872.066 L307.836 208.115 Z" stroke-width="5" stroke="#5fb49c" fill="none" stroke-linejoin="round" />
<path d="M562.109 876.572 L294.88 218.656 Z" stroke-width="5" stroke="#5fb49c" fill="none" stroke-linejoin="round" />
<path d="M562.109 876.572 L281.923 229.197 Z" stroke-width="5" stroke="#5fb49c" fill="none" stroke-linejoin="round" />
<path d="M545.406 876.572 L268.966 239.738 Z" stroke-width="5" stroke="#5fb49c" fill="none" stroke-linejoin="round" />
<path d="M528.703 876.572 L256.009 250.279 Z" stroke-width="5" stroke="#5fb49c" fill="none" stroke-linejoin="round" />
<path d="M512.0 876.572 L243.052 260.82 Z" stroke-width="5" stroke="#5fb49c" fill="none" stroke-linejoin="round" />
<path d="M495.297 876.572 L243.052 260.82 Z" stroke-width="5" stroke="#5fb49c" fill="none" stroke-linejoin="round" />
<path d="M478.594 876.572 L233.42 274.466 Z" stroke-width="5" stroke="#5fb49c" fill="none" stroke-linejoin="round" />
<path d="M461.891 876.572 L223.788 288.112 Z" stroke-width="5" stroke="#5fb49c" fill="none" stroke-linejoin="round" />
<path d="M461.891 876.572 L214.155 301.758 Z" stroke-width="5" stroke="#5fb49c" fill="none" stroke-linejoin="round" />
<path d="M445.807 872.066 L204.523 315.404 Z" stroke-width="5" stroke="#5fb49c" fill="none" stroke-linejoin="round" />
<path d="M429.723 867.56 L194.891 329.05 Z" stroke-width="5" stroke="#5fb49c" fill="none" stroke-linejoin="round" />
<path d="M413.64 863.053 L185.258 342.696 Z" stroke-width="5" stroke="#5fb49c" fill="none" stroke-linejoin="round" />
<path d="M397.556 858.547 L185.258 342.696 Z" stroke-width="5" stroke="#5fb49c" fill="none" stroke-linejoin="round" />
<path d="M381.472 854.04 L179.665 358.435 Z" stroke-width="5" stroke="#5fb49c" fill="none" stroke-linejoin="round" />
<path d="M365.388 849.534 L174.071 374.173 Z" stroke-width="5" stroke="#5fb49c" fill="none" stroke-linejoin="round" />
<path d="M365.388 849.534 L168.478 389.912 Z" stroke-width="5" stroke="#5fb49c" fill="none" stroke-linejoin="round" />
<path d="M351.117 840.855 L162.884 405.651 Z" stroke-width="5" stroke="#5fb49c" fill="none" stroke-linejoin="round" />
<path d="M336.845 832.176 L157.291 421.39 Z" stroke-width="5" stroke="#5fb49c" fill="none" stroke-linejoin="round" />
<path d="M322.574 823.498 L151.697 437.128 Z" stroke-width="5" stroke="#5fb49c" fill="none" stroke-linejoin="round" />
<path d="M308.303 814.819 L151.697 437.128 Z" stroke-width="5" stroke="#5fb49c" fill="none" stroke-linejoin="round" />
<path d="M294.031 806.14 L150.557 453.792 Z" stroke-width="5" stroke="#5fb49c" fill="none" stroke-linejoin="round" />
<path d="M279.76 797.462 L149.417 470.457 Z" stroke-width="5" stroke="#5fb49c" fill="none" stroke-linejoin="round" />
<path d="M279.76 797.462 L148.277 487.121 Z" stroke-width="5" stroke="#5fb49c" fill="none" stroke-linejoin="round" />
<path d="M268.359 785.255 L147.138 503.785 Z" stroke-width="5" stroke="#5fb49c" fill="none" stroke-linejoin="round" />
<path d="M256.958 773.047 L145.998 520.449 Z" stroke-width="5" stroke="#5fb49c" fill="none" stroke-linejoin="round" />
<path d="M245.557 760.84 L144.858 537.113 Z" stroke-width="5" stroke="#5fb49c" fill="none" stroke-linejoin="round" />
<path d="M234.157 748.633 L144.858 537.113 Z" stroke-width="5" stroke="#5fb49c" fill="none" stroke-linejoin="round" />
<path d="M222.756 736.426 L148.256 553.467 Z" stroke-width="5" stroke="#5fb49c" fill="none" stroke-linejoin="round" />
<path d="M211.355 724.218 L151.655 569.821 Z" stroke-width="5" stroke="#5fb49c" fill="none" stroke-linejoin="round" />
<path d="M211.355 724.218 L155.053 586.174 Z" stroke-width="5" stroke="#5fb49c" fill="none" stroke-linejoin="round" />
<path d="M203.671 709.388 L158.451 602.528 Z" stroke-width="5" stroke="#5fb49c" fill="none" stroke-linejoin="round" />
<path d="M195.986 694.557 L161.85 618.882 Z" stroke-width="5" stroke="#5fb49c" fill="none" stroke-linejoin="round" />
<path d="M188.302 679.727 L165.248 635.236 Z" stroke-width="5" stroke="#5fb49c" fill="none" stroke-linejoin="round" />
<path d="M180.617 664.897 L165.248 635.236 Z" stroke-width="5" stroke="#5fb49c" fill="none" stroke-linejoin="round" />
<path d="M172.932 650.066 L172.932 650.066 Z" stroke-width="5" stroke="#5fb49c" fill="none" stroke-linejoin="round" />
<path d="M165.248 635.236 L180.617 664.897 Z" stroke-width="5" stroke="#5fb49c" fill="none" stroke-linejoin="round" />
<path d="M165.248 635.236 L188.302 679.727 Z" stroke-width="5" stroke="#5fb49c" fill="none" stroke-linejoin="round" />
<path d="M161.85 618.882 L195.986 694.557 Z" stroke-width="5" stroke="#5fb49c" fill="none" stroke-linejoin="round" />
<path d="M158.451 602.528 L203.671 709.388 Z" stroke-width="5" stroke="#5fb49c" fill="none" stroke-linejoin="round" />
<path d="M155.053 586.174 L211.355 724.218 Z" stroke-width="5" stroke="#5fb49c" fill="none" stroke-linejoin="round" />
<path d="M151.655 569.821 L211.355 724.218 Z" stroke-width="5" stroke="#5fb49c" fill="none" stroke-linejoin="round" />
<path d="M148.256 553.467 L222.756 736.426 Z" stroke-width="5" stroke="#5fb49c" fill="none" stroke-linejoin="round" />
<path d="M144.858 537.113 L234.157 748.633 Z" stroke-width="5" stroke="#5fb49c" fill="none" stroke-linejoin="round" />
<path d="M144.858 537.113 L245.557 760.84 Z" stroke-width="5" stroke="#5fb49c" fill="none" stroke-linejoin="round" />
<path d="M145.998 520.449 L256.958 773.047 Z" stroke-width="5" stroke="#5fb49c" fill="none" stroke-linejoin="round" />
<path d="M147.138 503.785 L268.359 785.255 Z" stroke-width="5" stroke="#5fb49c" fill="none" stroke-linejoin="round" />
<path d="M148.277 487.121 L279.76 797.462 Z" stroke-width="5" stroke="#5fb49c" fill="none" stroke-linejoin="round" />
<path d="M149.417 470.457 L279.76 797.462 Z" stroke-width="5" stroke="#5fb49c" fill="none" stroke-linejoin="round" />
<path d="M150.557 453.792 L294.031 806.14 Z" stroke-width="5" stroke="#5fb49c" fill="none" stroke-linejoin="round" />
<path d="M151.697 437.128 L308.303 814.819 Z" stroke-width="5" stroke="#5fb49c" fill="none" stroke-linejoin="round" />
<path d="M151.697 437.128 L322.574 823.498 Z" stroke-width="5" stroke="#5fb49c" fill="none" stroke-linejoin="round" />
<path d="M157.291 421.39 L336.845 832.176 Z" stroke-width="5" stroke="#5fb49c" fill="none" stroke-linejoin="round" />
<path d="M162.884 405.651 L351.117 840.855 Z" stroke-width="5" stroke="#5fb49c" fill="none" stroke-linejoin="round" />
<path d="M168.478 389.912 L365.388 849.534 Z" stroke-width="5" stroke="#5fb49c" fill="none" stroke-linejoin="round" />
<path d="M174.071 374.173 L365.388 849.534 Z" stroke-width="5" stroke="#5fb49c" fill="none" stroke-linejoin="round" />
<path d="M179.665 358.435 L381.472 854.04 Z" stroke-width="5" stroke="#5fb49c" fill="none" stroke-linejoin="round" />
<path d="M185.258 342.696 L397.556 858.547 Z" stroke-width="5" stroke="#5fb49c" fill="none" stroke-linejoin="round" />
<path d="M185.258 342.696 L413.64 863.053 Z" stroke-width="5" stroke="#5fb49c" fill="none" stroke-linejoin="round" />
<path d="M194.891 329.05 L429.723 867.56 Z" stroke-width="5" stroke="#5fb49c" fill="none" stroke-linejoin="round" />
<path d="M204.523 315.404 L445.807 872.066 Z" stroke-width="5" stroke="#5fb49c" fill="none" stroke-linejoin="round" />
<path d="M214.155 301.758 L461.891 876.572 Z" stroke-width="5" stroke="#5fb49c" fill="none" stroke-linejoin="round" />
<path d="M223.788 288.112 L461.891 876.572 Z" stroke-width="5" stroke="#5fb49c" fill="none" stroke-linejoin="round" />
<path d="M233.42 274.466 L478.594 876.572 Z" stroke-width="5" stroke="#5fb49c" fill="none" stroke-linejoin="round" />
<path d="M243.052 260.82 L495.297 876.572 Z" stroke-width="5" stroke="#5fb49c" fill="none" stroke-linejoin="round" />
<path d="M243.052 260.82 L512.0 876.572 Z" stroke-width="5" stroke="#5fb49c" fill="none" stroke-linejoin="round" />
<path d="M256.009 250.279 L528.703 876.572 Z" stroke-width="5" stroke="#5fb49c" fill="none" stroke-linejoin="round" />
<path d="M268.966 239.738 L545.406 876.572 Z" stroke-width="5" stroke="#5fb49c" fill="none" stroke-linejoin="round" />
<path d="M281.923 229.197 L562.109 876.572 Z" stroke-width="5" stroke="#5fb49c" fill="none" stroke-linejoin="round" />
<path d="M294.88 218.656 L562.109 876.572 Z" stroke-width="5" stroke="#5fb49c" fill="none" stroke-linejoin="round" />
<path d="M307.836 208.115 L578.193 872.066 Z" stroke-width="5" stroke="#5fb49c" fill="none" stroke-linejoin="round" />
<path d="M320.793 197.574 L594.277 867.56 Z" stroke-width="5" stroke="#5fb49c" fill="none" stroke-linejoin="round" />
<path d="M320.793 197.574 L610.36 863.053 Z" stroke-width="5" stroke="#5fb49c" fill="none" stroke-linejoin="round" />
<path d="M336.113 190.919 L626.444 858.547 Z" stroke-width="5" stroke="#5fb49c" fill="none" stroke-linejoin="round" />
<path d="M351.434 184.265 L642.528 854.04 Z" stroke-width="5" stroke="#5fb49c" fill="none" stroke-linejoin="round" />
<path d="M366.754 177.61 L658.612 849.534 Z" stroke-width="5" stroke="#5fb49c" fill="none" stroke-linejoin="round" />
<path d="M382.074 170.956 L658.612 849.534 Z" stroke-width="5" stroke="#5fb49c" fill="none" stroke-linejoin="round" />
<path d="M397.395 164.301 L672.883 840.855 Z" stroke-width="5" stroke="#5fb49c" fill="none" stroke-linejoin="round" />
<path d="M412.715 157.646 L687.155 832.176 Z" stroke-width="5" stroke="#5fb49c" fill="none" stroke-linejoin="round" />
<path d="M412.715 157.646 L701.426 823.498 Z" stroke-width="5" stroke="#5fb49c" fill="none" stroke-linejoin="round" />
<path d="M429.262 155.372 L715.697 814.819 Z" stroke-width="5" stroke="#5fb49c" fill="none" stroke-linejoin="round" />
<path d="M445.81 153.098 L729.969 806.14 Z" stroke-width="5" stroke="#5fb49c" fill="none" stroke-linejoin="round" />
<path d="M462.357 150.823 L744.24 797.462 Z" stroke-width="5" stroke="#5fb49c" fill="none" stroke-linejoin="round" />
<path d="M478.905 148.549 L744.24 797.462 Z" stroke-width="5" stroke="#5fb49c" fill="none" stroke-linejoin="round" />
<path d="M495.452 146.274 L755.641 785.255 Z" stroke-width="5" stroke="#5fb49c" fill="none" stroke-linejoin="round" />
<path d="M512.0 144.0 L767.042 773.047 Z" stroke-width="5" stroke="#5fb49c" fill="none" stroke-linejoin="round" />
<path d="M512.0 144.0 L778.443 760.84 Z" stroke-width="5" stroke="#5fb49c" fill="none" stroke-linejoin="round" />
<path d="M528.548 146.274 L789.843 748.633 Z" stroke-width="5" stroke="#5fb49c" fill="none" stroke-linejoin="round" />
<path d="M545.095 148.549 L801.244 736.426 Z" stroke-width="5" stroke="#5fb49c" fill="none" stroke-linejoin="round" />
<path d="M561.643 150.823 L812.645 724.218 Z" stroke-width="5" stroke="#5fb49c" fill="none" stroke-linejoin="round" />
<path d="M578.19 153.098 L812.645 724.218 Z" stroke-width="5" stroke="#5fb49c" fill="none" stroke-linejoin="round" />
<path d="M594.738 155.372 L820.329 709.388 Z" stroke-width="5" stroke="#5fb49c" fill="none" stroke-linejoin="round" />
<path d="M611.285 157.646 L828.014 694.557 Z" stroke-width="5" stroke="#5fb49c" fill="none" stroke-linejoin="round" />
<path d="M611.285 157.646 L835.698 679.727 Z" stroke-width="5" stroke="#5fb49c" fill="none" stroke-linejoin="round" />
<path d="M626.605 164.301 L843.383 664.897 Z" stroke-width="5" stroke="#5fb49c" fill="none" stroke-linejoin="round" />
<path d="M641.926 170.956 L851.068 650.066 Z" stroke-width="5" stroke="#5fb49c" fill="none" stroke-linejoin="round" />
<path d="M657.246 177.61 L858.752 635.236 Z" stroke-width="5" stroke="#5fb49c" fill="none" stroke-linejoin="round" />
<path d="M672.566 184.265 L858.752 635.236 Z" stroke-width="5" stroke="#5fb49c" fill="none" stroke-linejoin="round" />
<path d="M687.887 190.919 L862.15 618.882 Z" stroke-width="5" stroke="#5fb49c" fill="none" stroke-linejoin="round" />
<path d="M703.207 197.574 L865.549 602.528 Z" stroke-width="5" stroke="#5fb49c" fill="none" stroke-linejoin="round" />
<path d="M703.207 197.574 L868.947 586.174 Z" stroke-width="5" stroke="#5fb49c" fill="none" stroke-linejoin="round" />
<path d="M716.164 208.115 L872.345 569.821 Z" stroke-width="5" stroke="#5fb49c" fill="none" stroke-linejoin="round" />
<path d="M729.12 218.656 L875.744 553.467 Z" stroke-width="5" stroke="#5fb49c" fill="none" stroke-linejoin="round" />
<path d="M742.077 229.197 L879.142 537.113 Z" stroke-width="5" stroke="#5fb49c" fill="none" stroke-linejoin="round" />
<path d="M755.034 239.738 L879.142 537.113 Z" stroke-width="5" stroke="#5fb49c" fill="none" stroke-linejoin="round" />
<path d="M767.991 250.279 L878.002 520.449 Z" stroke-width="5" stroke="#5fb49c" fill="none" stroke-linejoin="round" />
<path d="M780.948 260.82 L876.862 503.785 Z" stroke-width="5" stroke="#5fb49c" fill="none" stroke-linejoin="round" />
<path d="M780.948 260.82 L875.723 487.121 Z" stroke-width="5" stroke="#5fb49c" fill="none" stroke-linejoin="round" />
<path d="M790.58 274.466 L874.583 470.457 Z" stroke-width="5" stroke="#5fb49c" fill="none" stroke-linejoin="round" />
<path d="M800.212 288.112 L873.443 453.792 Z" stroke-width="5" stroke="#5fb49c" fill="none" stroke-linejoin="round" />
<path d="M809.845 301.758 L872.303 437.128 Z" stroke-width="5" stroke="#5fb49c" fill="none" stroke-linejoin="round" />
<path d="M819.477 315.404 L872.303 437.128 Z" stroke-width="5" stroke="#5fb49c" fill="none" stroke-linejoin="round" />
<path d="M829.109 329.05 L866.709 421.39 Z" stroke-width="5" stroke="#5fb49c" fill="none" stroke-linejoin="round" />
<path d="M838.742 342.696 L861.116 405.651 Z" stroke-width="5" stroke="#5fb49c" fill="none" stroke-linejoin="round" />
<path d="M838.742 342.696 L855.522 389.912 Z" stroke-width="5" stroke="#5fb49c" fill="none" stroke-linejoin="round" />
<path d="M844.335 358.435 L849.929 374.173 Z" stroke-width="5" stroke="#5fb49c" fill="none" stroke-linejoin="round" />
<path d="M849.929 374.173 L844.335 358.435 Z" stroke-width="5" stroke="#5fb49c" fill="none" stroke-linejoin="round" />
<path d="M855.522 389.912 L838.742 342.696 Z" stroke-width="5" stroke="#5fb49c" fill="none" stroke-linejoin="round" />
<path d="M861.116 405.651 L838.742 342.696 Z" stroke-width="5" stroke="#5fb49c" fill="none" stroke-linejoin="round" />
<path d="M866.709 421.39 L829.109 329.05 Z" stroke-width="5" stroke="#5fb49c" fill="none" stroke-linejoin="round" />
<path d="M872.303 437.128 L819.477 315.404 Z" stroke-width="5" stroke="#5fb49c" fill="none" stroke-linejoin="round" />
<path d="M872.303 437.128 L809.845 301.758 Z" stroke-width="5" stroke="#5fb49c" fill="none" stroke-linejoin="round" />
<path d="M873.443 453.792 L800.212 288.112 Z" stroke-width="5" stroke="#5fb49c" fill="none" stroke-linejoin="round" />
<path d="M874.583 470.457 L790.58 274.466 Z" stroke-width="5" stroke="#5fb49c" fill="none" stroke-linejoin="round" />
<path d="M875.723 487.121 L780.948 260.82 Z" stroke-width="5" stroke="#5fb49c" fill="none" stroke-linejoin="round" />
<path d="M876.862 503.785 L780.948 260.82 Z" stroke-width="5" stroke="#5fb49c" fill="none" stroke-linejoin="round" />
<path d="M878.002 520.449 L767.991 250.279 Z" stroke-width="5" stroke="#5fb49c" fill="none" stroke-linejoin="round" />
<path d="M879.142 537.113 L755.034 239.738 Z" stroke-width="5" stroke="#5fb49c" fill="none" stroke-linejoin="round" />
<path d="M879.142 537.113 L742.077 229.197 Z" stroke-width="5" stroke="#5fb49c" fill="none" stroke-linejoin="round" />
<path d="M875.744 553.467 L729.12 218.656 Z" stroke-width="5" stroke="#5fb49c" fill="none" stroke-linejoin="round" />
<path d="M872.345 569.821 L716.164 208.115 Z" stroke-width="5" stroke="#5fb49c" fill="none" stroke-linejoin="round" />
<path d="M868.947 586.174 L703.207 197.574 Z" stroke-width="5" stroke="#5fb49c" fill="none" stroke-linejoin="round" />
<path d="M865.549 602.528 L703.207 197.574 Z" stroke-width="5" stroke="#5fb49c" fill="none" stroke-linejoin="round" />
<path d="M862.15 618.882 L687.887 190.919 Z" stroke-width="5" stroke="#5fb49c" fill="none" stroke-linejoin="round" />
<path d="M858.752 635.236 L672.566 184.265 Z" stroke-width="5" stroke="#5fb49c" fill="none" stroke-linejoin="round" />
<path d="M858.752 635.236 L657.246 177.61 Z" stroke-width="5" stroke="#5fb49c" fill="none" stroke-linejoin="round" />
<path d="M851.068 650.066 L641.926 170.956 Z" stroke-width="5" stroke="#5fb49c" fill="none" stroke-linejoin="round" />
<path d="M843.383 664.897 L626.605 164.301 Z" stroke-width="5" stroke="#5fb49c" fill="none" stroke-linejoin="round" />
<path d="M835.698 679.727 L611.285 157.646 Z" stroke-width="5" stroke="#5fb49c" fill="none" stroke-linejoin="round" />
<path d="M828.014 694.557 L611.285 157.646 Z" stroke-width="5" stroke="#5fb49c" fill="none" stroke-linejoin="round" />
<path d="M820.329 709.388 L594.738 155.372 Z" stroke-width="5" stroke="#5fb49c" fill="none" stroke-linejoin="round" />
<path d="M812.645 724.218 L578.19 153.098 Z" stroke-width="5" stroke="#5fb49c" fill="none" stroke-linejoin="round" />
<path d="M812.645 724.218 L561.643 150.823 Z" stroke-width="5" stroke="#5fb49c" fill="none" stroke-linejoin="round" />
<path d="M801.244 736.426 L545.095 148.549 Z" stroke-width="5" stroke="#5fb49c" fill="none" stroke-linejoin="round" />
<path d="M789.843 748.633 L528.548 146.274 Z" stroke-width="5" stroke="#5fb49c" fill="none" stroke-linejoin="round" />
<path d="M778.443 760.84 L512.0 144.0 Z" stroke-width="5" stroke="#5fb49c" fill="none" stroke-linejoin="round" />
<path d="M767.042 773.047 L512.0 144.0 Z" stroke-width="5" stroke="#5fb49c" fill="none" stroke-linejoin="round" />
<path d="M755.641 785.255 L495.452 146.274 Z" stroke-width="5" stroke="#5fb49c" fill="none" stroke-linejoin="round" />
<path d="M744.24 797.462 L478.905 148.549 Z" stroke-width="5" stroke="#5fb49c" fill="none" stroke-linejoin="round" />
<path d="M744.24 797.462 L462.357 150.823 Z" stroke-width="5" stroke="#5fb49c" fill="none" stroke-linejoin="round" />
<path d="M729.969 806.14 L445.81 153.098 Z" stroke-width="5" stroke="#5fb49c" fill="none" stroke-linejoin="round" />
<path d="M715.697 814.819 L429.262 155.372 Z" stroke-width="5" stroke="#5fb49c" fill="none" stroke-linejoin="round" />
<path d="M701.426 823.498 L412.715 157.646 Z" stroke-width="5" stroke="#5fb49c" fill="none" stroke-linejoin="round" />
<path d="M687.155 832.176 L412.715 157.646 Z" stroke-width="5" stroke="#5fb49c" fill="none" stroke-linejoin="round" />
<path d="M672.883 840.855 L397.395 164.301 Z" stroke-width="5" stroke="#5fb49c" fill="none" stroke-linejoin="round" />
<path d="M658.612 849.534 L382.074 170.956 Z" stroke-width="5" stroke="#5fb49c" fill="none" stroke-linejoin="round" />
<path d="M517.671 878.056 L473.209 149.113 Z" stroke-width="3" stroke="#414288" fill="none" stroke-linejoin="round" />
<path d="M501.016 876.79 L456.537 150.126 Z" stroke-width="3" stroke="#414288" fill="none" stroke-linejoin="round" />
<path d="M484.361 875.523 L567.636 148.23 Z" stroke-width="3" stroke="#414288" fill="none" stroke-linejoin="round" />
<path d="M467.706 874.257 L567.636 148.23 Z" stroke-width="3" stroke="#414288" fill="none" stroke-linejoin="round" />
<path d="M451.051 872.991 L424.084 156.613 Z" stroke-width="3" stroke="#414288" fill="none" stroke-linejoin="round" />
<path d="M316.043 823.488 L408.303 162.087 Z" stroke-width="3" stroke="#414288" fill="none" stroke-linejoin="round" />
<path d="M316.043 823.488 L392.522 167.561 Z" stroke-width="3" stroke="#414288" fill="none" stroke-linejoin="round" />
<path d="M418.7 866.012 L376.742 173.035 Z" stroke-width="3" stroke="#414288" fill="none" stroke-linejoin="round" />
<path d="M403.005 860.299 L360.961 178.509 Z" stroke-width="3" stroke="#414288" fill="none" stroke-linejoin="round" />
<path d="M387.309 854.586 L467.429 146.709 Z" stroke-width="3" stroke="#414288" fill="none" stroke-linejoin="round" />
<path d="M371.613 848.873 L467.429 146.709 Z" stroke-width="3" stroke="#414288" fill="none" stroke-linejoin="round" />
<path d="M355.917 843.16 L331.462 193.511 Z" stroke-width="3" stroke="#414288" fill="none" stroke-linejoin="round" />
<path d="M239.271 759.069 L317.743 203.04 Z" stroke-width="3" stroke="#414288" fill="none" stroke-linejoin="round" />
<path d="M239.271 759.069 L304.024 212.568 Z" stroke-width="3" stroke="#414288" fill="none" stroke-linejoin="round" />
<path d="M326.649 827.712 L290.306 222.097 Z" stroke-width="3" stroke="#414288" fill="none" stroke-linejoin="round" />
<path d="M313.077 817.976 L276.587 231.626 Z" stroke-width="3" stroke="#414288" fill="none" stroke-linejoin="round" />
<path d="M299.504 808.241 L370.528 172.28 Z" stroke-width="3" stroke="#414288" fill="none" stroke-linejoin="round" />
<path d="M285.932 798.505 L370.528 172.28 Z" stroke-width="3" stroke="#414288" fill="none" stroke-linejoin="round" />
<path d="M272.359 788.769 L252.229 254.031 Z" stroke-width="3" stroke="#414288" fill="none" stroke-linejoin="round" />
<path d="M182.726 676.326 L241.59 266.907 Z" stroke-width="3" stroke="#414288" fill="none" stroke-linejoin="round" />
<path d="M182.726 676.326 L230.951 279.783 Z" stroke-width="3" stroke="#414288" fill="none" stroke-linejoin="round" />
<path d="M248.344 765.997 L220.312 292.66 Z" stroke-width="3" stroke="#414288" fill="none" stroke-linejoin="round" />
<path d="M237.902 752.961 L209.673 305.536 Z" stroke-width="3" stroke="#414288" fill="none" stroke-linejoin="round" />
<path d="M227.459 739.925 L284.119 223.047 Z" stroke-width="3" stroke="#414288" fill="none" stroke-linejoin="round" />
<path d="M217.017 726.888 L284.119 223.047 Z" stroke-width="3" stroke="#414288" fill="none" stroke-linejoin="round" />
<path d="M206.574 713.852 L192.263 333.682 Z" stroke-width="3" stroke="#414288" fill="none" stroke-linejoin="round" />
<path d="M150.602 581.395 L185.492 348.951 Z" stroke-width="3" stroke="#414288" fill="none" stroke-linejoin="round" />
<path d="M150.602 581.395 L178.722 364.221 Z" stroke-width="3" stroke="#414288" fill="none" stroke-linejoin="round" />
<path d="M189.594 685.445 L171.951 379.49 Z" stroke-width="3" stroke="#414288" fill="none" stroke-linejoin="round" />
<path d="M183.056 670.075 L165.181 394.759 Z" stroke-width="3" stroke="#414288" fill="none" stroke-linejoin="round" />
<path d="M176.518 654.704 L214.61 295.243 Z" stroke-width="3" stroke="#414288" fill="none" stroke-linejoin="round" />
<path d="M169.979 639.334 L214.61 295.243 Z" stroke-width="3" stroke="#414288" fill="none" stroke-linejoin="round" />
<path d="M163.441 623.964 L156.01 426.559 Z" stroke-width="3" stroke="#414288" fill="none" stroke-linejoin="round" />
<path d="M145.281 481.318 L153.61 443.088 Z" stroke-width="3" stroke="#414288" fill="none" stroke-linejoin="round" />
<path d="M145.281 481.318 L151.21 459.618 Z" stroke-width="3" stroke="#414288" fill="none" stroke-linejoin="round" />
<path d="M154.754 592.029 L148.81 476.148 Z" stroke-width="3" stroke="#414288" fill="none" stroke-linejoin="round" />
<path d="M152.606 575.465 L146.411 492.678 Z" stroke-width="3" stroke="#414288" fill="none" stroke-linejoin="round" />
<path d="M150.457 558.9 L167.158 383.516 Z" stroke-width="3" stroke="#414288" fill="none" stroke-linejoin="round" />
<path d="M148.308 542.336 L167.158 383.516 Z" stroke-width="3" stroke="#414288" fill="none" stroke-linejoin="round" />
<path d="M146.159 525.772 L146.159 525.772 Z" stroke-width="3" stroke="#414288" fill="none" stroke-linejoin="round" />
<path d="M167.158 383.516 L148.308 542.336 Z" stroke-width="3" stroke="#414288" fill="none" stroke-linejoin="round" />
<path d="M167.158 383.516 L150.457 558.9 Z" stroke-width="3" stroke="#414288" fill="none" stroke-linejoin="round" />
<path d="M146.411 492.678 L152.606 575.465 Z" stroke-width="3" stroke="#414288" fill="none" stroke-linejoin="round" />
<path d="M148.81 476.148 L154.754 592.029 Z" stroke-width="3" stroke="#414288" fill="none" stroke-linejoin="round" />
<path d="M151.21 459.618 L145.281 481.318 Z" stroke-width="3" stroke="#414288" fill="none" stroke-linejoin="round" />
<path d="M153.61 443.088 L145.281 481.318 Z" stroke-width="3" stroke="#414288" fill="none" stroke-linejoin="round" />
<path d="M156.01 426.559 L163.441 623.964 Z" stroke-width="3" stroke="#414288" fill="none" stroke-linejoin="round" />
<path d="M214.61 295.243 L169.979 639.334 Z" stroke-width="3" stroke="#414288" fill="none" stroke-linejoin="round" />
<path d="M214.61 295.243 L176.518 654.704 Z" stroke-width="3" stroke="#414288" fill="none" stroke-linejoin="round" />
<path d="M165.181 394.759 L183.056 670.075 Z" stroke-width="3" stroke="#414288" fill="none" stroke-linejoin="round" />
<path d="M171.951 379.49 L189.594 685.445 Z" stroke-width="3" stroke="#414288" fill="none" stroke-linejoin="round" />
<path d="M178.722 364.221 L150.602 581.395 Z" stroke-width="3" stroke="#414288" fill="none" stroke-linejoin="round" />
<path d="M185.492 348.951 L150.602 581.395 Z" stroke-width="3" stroke="#414288" fill="none" stroke-linejoin="round" />
<path d="M192.263 333.682 L206.574 713.852 Z" stroke-width="3" stroke="#414288" fill="none" stroke-linejoin="round" />
<path d="M284.119 223.047 L217.017 726.888 Z" stroke-width="3" stroke="#414288" fill="none" stroke-linejoin="round" />
<path d="M284.119 223.047 L227.459 739.925 Z" stroke-width="3" stroke="#414288" fill="none" stroke-linejoin="round" />
<path d="M209.673 305.536 L237.902 752.961 Z" stroke-width="3" stroke="#414288" fill="none" stroke-linejoin="round" />
<path d="M220.312 292.66 L248.344 765.997 Z" stroke-width="3" stroke="#414288" fill="none" stroke-linejoin="round" />
<path d="M230.951 279.783 L182.726 676.326 Z" stroke-width="3" stroke="#414288" fill="none" stroke-linejoin="round" />
<path d="M241.59 266.907 L182.726 676.326 Z" stroke-width="3" stroke="#414288" fill="none" stroke-linejoin="round" />
<path d="M252.229 254.031 L272.359 788.769 Z" stroke-width="3" stroke="#414288" fill="none" stroke-linejoin="round" />
<path d="M370.528 172.28 L285.932 798.505 Z" stroke-width="3" stroke="#414288" fill="none" stroke-linejoin="round" />
<path d="M370.528 172.28 L299.504 808.241 Z" stroke-width="3" stroke="#414288" fill="none" stroke-linejoin="round" />
<path d="M276.587 231.626 L313.077 817.976 Z" stroke-width="3" stroke="#414288" fill="none" stroke-linejoin="round" />
<path d="M290.306 222.097 L326.649 827.712 Z" stroke-width="3" stroke="#414288" fill="none" stroke-linejoin="round" />
<path d="M304.024 212.568 L239.271 759.069 Z" stroke-width="3" stroke="#414288" fill="none" stroke-linejoin="round" />
<path d="M317.743 203.04 L239.271 759.069 Z" stroke-width="3" stroke="#414288" fill="none" stroke-linejoin="round" />
<path d="M331.462 193.511 L355.917 843.16 Z" stroke-width="3" stroke="#414288" fill="none" stroke-linejoin="round" />
<path d="M467.429 146.709 L371.613 848.873 Z" stroke-width="3" stroke="#414288" fill="none" stroke-linejoin="round" />
<path d="M467.429 146.709 L387.309 854.586 Z" stroke-width="3" stroke="#414288" fill="none" stroke-linejoin="round" />
<path d="M360.961 178.509 L403.005 860.299 Z" stroke-width="3" stroke="#414288" fill="none" stroke-linejoin="round" />
<path d="M376.742 173.035 L418.7 866.012 Z" stroke-width="3" stroke="#414288" fill="none" stroke-linejoin="round" />
<path d="M392.522 167.561 L316.043 823.488 Z" stroke-width="3" stroke="#414288" fill="none" stroke-linejoin="round" />
<path d="M408.303 162.087 L316.043 823.488 Z" stroke-width="3" stroke="#414288" fill="none" stroke-linejoin="round" />
<path d="M424.084 156.613 L451.051 872.991 Z" stroke-width="3" stroke="#414288" fill="none" stroke-linejoin="round" />
<path d="M567.636 148.23 L467.706 874.257 Z" stroke-width="3" stroke="#414288" fill="none" stroke-linejoin="round" />
<path d="M567.636 148.23 L484.361 875.523 Z" stroke-width="3" stroke="#414288" fill="none" stroke-linejoin="round" />
<path d="M456.537 150.126 L501.016 876.79 Z" stroke-width="3" stroke="#414288" fill="none" stroke-linejoin="round" />
<path d="M473.209 149.113 L517.671 878.056 Z" stroke-width="3" stroke="#414288" fill="none" stroke-linejoin="round" />
<path d="M489.881 148.099 L407.348 864.806 Z" stroke-width="3" stroke="#414288" fill="none" stroke-linejoin="round" />
<path d="M506.554 147.086 L407.348 864.806 Z" stroke-width="3" stroke="#414288" fill="none" stroke-linejoin="round" />
<path d="M523.226 146.072 L550.706 876.048 Z" stroke-width="3" stroke="#414288" fill="none" stroke-linejoin="round" />
<path d="M663.717 176.73 L567.085 872.774 Z" stroke-width="3" stroke="#414288" fill="none" stroke-linejoin="round" />
<path d="M663.717 176.73 L583.464 869.5 Z" stroke-width="3" stroke="#414288" fill="none" stroke-linejoin="round" />
<path d="M556.226 148.581 L599.843 866.225 Z" stroke-width="3" stroke="#414288" fill="none" stroke-linejoin="round" />
<path d="M572.553 152.104 L616.222 862.951 Z" stroke-width="3" stroke="#414288" fill="none" stroke-linejoin="round" />
<path d="M588.881 155.626 L506.415 879.958 Z" stroke-width="3" stroke="#414288" fill="none" stroke-linejoin="round" />
<path d="M605.208 159.148 L506.415 879.958 Z" stroke-width="3" stroke="#414288" fill="none" stroke-linejoin="round" />
<path d="M621.536 162.671 L647.489 852.105 Z" stroke-width="3" stroke="#414288" fill="none" stroke-linejoin="round" />
<path d="M748.546 230.096 L662.378 844.534 Z" stroke-width="3" stroke="#414288" fill="none" stroke-linejoin="round" />
<path d="M748.546 230.096 L677.266 836.962 Z" stroke-width="3" stroke="#414288" fill="none" stroke-linejoin="round" />
<path d="M652.635 173.99 L692.154 829.39 Z" stroke-width="3" stroke="#414288" fill="none" stroke-linejoin="round" />
<path d="M667.407 181.787 L707.043 821.818 Z" stroke-width="3" stroke="#414288" fill="none" stroke-linejoin="round" />
<path d="M682.179 189.584 L605.896 867.82 Z" stroke-width="3" stroke="#414288" fill="none" stroke-linejoin="round" />
<path d="M696.95 197.38 L605.896 867.82 Z" stroke-width="3" stroke="#414288" fill="none" stroke-linejoin="round" />
<path d="M711.722 205.177 L734.224 802.939 Z" stroke-width="3" stroke="#414288" fill="none" stroke-linejoin="round" />
<path d="M815.831 304.369 L746.518 791.631 Z" stroke-width="3" stroke="#414288" fill="none" stroke-linejoin="round" />
<path d="M815.831 304.369 L758.811 780.323 Z" stroke-width="3" stroke="#414288" fill="none" stroke-linejoin="round" />
<path d="M738.614 224.467 L771.104 769.015 Z" stroke-width="3" stroke="#414288" fill="none" stroke-linejoin="round" />
<path d="M750.734 235.96 L783.398 757.708 Z" stroke-width="3" stroke="#414288" fill="none" stroke-linejoin="round" />
<path d="M762.855 247.453 L698.413 829.292 Z" stroke-width="3" stroke="#414288" fill="none" stroke-linejoin="round" />
<path d="M774.975 258.946 L698.413 829.292 Z" stroke-width="3" stroke="#414288" fill="none" stroke-linejoin="round" />
<path d="M787.095 270.439 L804.478 732.195 Z" stroke-width="3" stroke="#414288" fill="none" stroke-linejoin="round" />
<path d="M860.582 394.041 L813.265 717.989 Z" stroke-width="3" stroke="#414288" fill="none" stroke-linejoin="round" />
<path d="M860.582 394.041 L822.051 703.784 Z" stroke-width="3" stroke="#414288" fill="none" stroke-linejoin="round" />
<path d="M807.786 296.269 L830.838 689.579 Z" stroke-width="3" stroke="#414288" fill="none" stroke-linejoin="round" />
<path d="M816.356 310.606 L839.625 675.374 Z" stroke-width="3" stroke="#414288" fill="none" stroke-linejoin="round" />
<path d="M824.926 324.943 L777.105 767.232 Z" stroke-width="3" stroke="#414288" fill="none" stroke-linejoin="round" />
<path d="M833.496 339.28 L777.105 767.232 Z" stroke-width="3" stroke="#414288" fill="none" stroke-linejoin="round" />
<path d="M842.066 353.617 L853.04 645.12 Z" stroke-width="3" stroke="#414288" fill="none" stroke-linejoin="round" />
<path d="M879.481 492.462 L857.668 629.071 Z" stroke-width="3" stroke="#414288" fill="none" stroke-linejoin="round" />
<path d="M879.481 492.462 L862.297 613.022 Z" stroke-width="3" stroke="#414288" fill="none" stroke-linejoin="round" />
<path d="M855.021 384.071 L866.925 596.972 Z" stroke-width="3" stroke="#414288" fill="none" stroke-linejoin="round" />
<path d="M859.405 400.189 L871.553 580.923 Z" stroke-width="3" stroke="#414288" fill="none" stroke-linejoin="round" />
<path d="M863.789 416.306 L836.135 686.243 Z" stroke-width="3" stroke="#414288" fill="none" stroke-linejoin="round" />
<path d="M868.174 432.424 L836.135 686.243 Z" stroke-width="3" stroke="#414288" fill="none" stroke-linejoin="round" />
<path d="M872.558 448.541 L876.308 548.172 Z" stroke-width="3" stroke="#414288" fill="none" stroke-linejoin="round" />
<path d="M871.125 592.331 L876.435 531.469 Z" stroke-width="3" stroke="#414288" fill="none" stroke-linejoin="round" />
<path d="M871.125 592.331 L876.562 514.766 Z" stroke-width="3" stroke="#414288" fill="none" stroke-linejoin="round" />
<path d="M876.815 481.361 L876.689 498.064 Z" stroke-width="3" stroke="#414288" fill="none" stroke-linejoin="round" />
<path d="M876.689 498.064 L876.815 481.361 Z" stroke-width="3" stroke="#414288" fill="none" stroke-linejoin="round" />
<path d="M876.562 514.766 L871.125 592.331 Z" stroke-width="3" stroke="#414288" fill="none" stroke-linejoin="round" />
<path d="M876.435 531.469 L871.125 592.331 Z" stroke-width="3" stroke="#414288" fill="none" stroke-linejoin="round" />
<path d="M876.308 548.172 L872.558 448.541 Z" stroke-width="3" stroke="#414288" fill="none" stroke-linejoin="round" />
<path d="M836.135 686.243 L868.174 432.424 Z" stroke-width="3" stroke="#414288" fill="none" stroke-linejoin="round" />
<path d="M836.135 686.243 L863.789 416.306 Z" stroke-width="3" stroke="#414288" fill="none" stroke-linejoin="round" />
<path d="M871.553 580.923 L859.405 400.189 Z" stroke-width="3" stroke="#414288" fill="none" stroke-linejoin="round" />
<path d="M866.925 596.972 L855.021 384.071 Z" stroke-width="3" stroke="#414288" fill="none" stroke-linejoin="round" />
<path d="M862.297 613.022 L879.481 492.462 Z" stroke-width="3" stroke="#414288" fill="none" stroke-linejoin="round" />
<path d="M857.668 629.071 L879.481 492.462 Z" stroke-width="3" stroke="#414288" fill="none" stroke-linejoin="round" />
<path d="M853.04 645.12 L842.066 353.617 Z" stroke-width="3" stroke="#414288" fill="none" stroke-linejoin="round" />
<path d="M777.105 767.232 L833.496 339.28 Z" stroke-width="3" stroke="#414288" fill="none" stroke-linejoin="round" />
<path d="M777.105 767.232 L824.926 324.943 Z" stroke-width="3" stroke="#414288" fill="none" stroke-linejoin="round" />
<path d="M839.625 675.374 L816.356 310.606 Z" stroke-width="3" stroke="#414288" fill="none" stroke-linejoin="round" />
<path d="M830.838 689.579 L807.786 296.269 Z" stroke-width="3" stroke="#414288" fill="none" stroke-linejoin="round" />
<path d="M822.051 703.784 L860.582 394.041 Z" stroke-width="3" stroke="#414288" fill="none" stroke-linejoin="round" />
<path d="M813.265 717.989 L860.582 394.041 Z" stroke-width="3" stroke="#414288" fill="none" stroke-linejoin="round" />
<path d="M804.478 732.195 L787.095 270.439 Z" stroke-width="3" stroke="#414288" fill="none" stroke-linejoin="round" />
<path d="M698.413 829.292 L774.975 258.946 Z" stroke-width="3" stroke="#414288" fill="none" stroke-linejoin="round" />
<path d="M698.413 829.292 L762.855 247.453 Z" stroke-width="3" stroke="#414288" fill="none" stroke-linejoin="round" />
<path d="M783.398 757.708 L750.734 235.96 Z" stroke-width="3" stroke="#414288" fill="none" stroke-linejoin="round" />
<path d="M771.104 769.015 L738.614 224.467 Z" stroke-width="3" stroke="#414288" fill="none" stroke-linejoin="round" />
<path d="M758.811 780.323 L815.831 304.369 Z" stroke-width="3" stroke="#414288" fill="none" stroke-linejoin="round" />
<path d="M746.518 791.631 L815.831 304.369 Z" stroke-width="3" stroke="#414288" fill="none" stroke-linejoin="round" />
<path d="M734.224 802.939 L711.722 205.177 Z" stroke-width="3" stroke="#414288" fill="none" stroke-linejoin="round" />
<path d="M605.896 867.82 L696.95 197.38 Z" stroke-width="3" stroke="#414288" fill="none" stroke-linejoin="round" />
<path d="M605.896 867.82 L682.179 189.584 Z" stroke-width="3" stroke="#414288" fill="none" stroke-linejoin="round" />
<path d="M707.043 821.818 L667.407 181.787 Z" stroke-width="3" stroke="#414288" fill="none" stroke-linejoin="round" />
<path d="M692.154 829.39 L652.635 173.99 Z" stroke-width="3" stroke="#414288" fill="none" stroke-linejoin="round" />
<path d="M677.266 836.962 L748.546 230.096 Z" stroke-width="3" stroke="#414288" fill="none" stroke-linejoin="round" />
<path d="M662.378 844.534 L748.546 230.096 Z" stroke-width="3" stroke="#414288" fill="none" stroke-linejoin="round" />
<path d="M647.489 852.105 L621.536 162.671 Z" stroke-width="3" stroke="#414288" fill="none" stroke-linejoin="round" />
<path d="M506.415 879.958 L605.208 159.148 Z" stroke-width="3" stroke="#414288" fill="none" stroke-linejoin="round" />
<path d="M506.415 879.958 L588.881 155.626 Z" stroke-width="3" stroke="#414288" fill="none" stroke-linejoin="round" />
<path d="M616.222 862.951 L572.553 152.104 Z" stroke-width="3" stroke="#414288" fill="none" stroke-linejoin="round" />
<path d="M599.843 866.225 L556.226 148.581 Z" stroke-width="3" stroke="#414288" fill="none" stroke-linejoin="round" />
<path d="M583.464 869.5 L663.717 176.73 Z" stroke-width="3" stroke="#414288" fill="none" stroke-linejoin="round" />
<path d="M567.085 872.774 L663.717 176.73 Z" stroke-width="3" stroke="#414288" fill="none" stroke-linejoin="round" />
<path d="M550.706 876.048 L523.226 146.072 Z" stroke-width="3" stroke="#414288" fill="none" stroke-linejoin="round" />
<path d="M407.348 864.806 L506.554 147.086 Z" stroke-width="3" stroke="#414288" fill="none" stroke-linejoin="round" />
</svg>