<svg width="1024" height="1024">
<rect width="100%" height="100%" fill="#98dfaf" />
<path d="M642.528 854.04 L351.434 184.265 Z" stroke-width="5" stroke="#5fb49c" fill="none" stroke-linejoin="round" />
<path d="M626.444 858.547 L336.113 190.919 Z" stroke-width="5" stroke="#5fb49c" fill="none" stroke-linejoin="round" />
<path d="M610.36 863.053 L320.793 197.574 Z" stroke-width="5" stroke="#5fb49c" fill="none" stroke-linejoin="round" />
<path d="M594.277 867.56 L320.793 197.574 Z" stroke-width="5" stroke="#5fb49c" fill="none" stroke-linejoin="round" />
<path d="M578.193 872.066 L307.836 208.115 Z" stroke-width="5" stroke="#5fb49c" fill="none" stroke-linejoin="round" />
<path d="M562.109 876.572 L294.88 218.656 Z" stroke-width="5" stroke="#5fb49c" fill="none" stroke-linejoin="round" />
<path d="M562.109 876.572 L281.923 229.197 Z" stroke-width="5" stroke="#5fb49c" fill="none" stroke-linejoin="round" />
<path d="M545.406 876.572 L268.966 239.738 Z" stroke-width="5" stroke="#5fb49c" fill="none" stroke-linejoin="round" />
<path d="M528.703 876.572 L256.009 250.279 Z" stroke-width="5" stroke="#5fb49c" fill="none" stroke-linejoin="round" />
<path d="M512.0 876.572 L243.052 260.82 Z" stroke-width="5" stroke="#5fb49c" fill="none" stroke-linejoin="round" />
<path d="M495.297 876.572 L243.052 260.82 Z" stroke-width="5" stroke="#5fb49c" fill="none" stroke-linejoin="round" />
<path d="M478.594 876.572 L233.42 274.466 Z" stroke-width="5" stroke="#5fb49c" fill="none" stroke-linejoin="round" />
<path d="M461.891 876.572 L223.788 288.112 Z" stroke-width="5" stroke="#5fb49c" fill="none" stroke-linejoin="round" />
<path d="M461.891 876.572 L214.155 301.758 Z" stroke-width="5" stroke="#5fb49c" fill="none" stroke-linejoin="round" />
<path d="M445.807 872.066 L204.523 315.404 Z" stroke-width="5" stroke="#5fb49c" fill="none" stroke-linejoin="round" />
<path d="M429.723 867.56 L194.891 329.05 Z" stroke-width="5" stroke="#5fb49c" fill="none" stroke-linejoin="round" />
<path d="M413.64 863.053 L185.258 342.696 Z" stroke-width="5" stroke="#5fb49c" fill="none" stroke-linejoin="round" />
<path d="M397.556 858.547 L185.258 342.696 Z" stroke-width="5" stroke="#5fb49c" fill="none" stroke-linejoin="round" />
<path d="M381.472 854.04 L179.665 358.435 Z" stroke-width="5" stroke="#5fb49c" fill="none" stroke-linejoin="round" />
<path d="M365.388 849.534 L174.071 374.173 Z" stroke-width="5" stroke="#5fb49c" fill="none" stroke-linejoin="round" />
<path d="M365.388 849.534 L168.478 389.912 Z" stroke-width="5" stroke="#5fb49c" fill="none" stroke-linejoin="round" />
<path d="M351.117 840.855 L162.884 405.651 Z" stroke-width="5" stroke="#5fb49c" fill="none" stroke-linejoin="round" />
<path d="M336.845 832.176 L157.291 421.39 Z" stroke-width="5" stroke="#5fb49c" fill="none" stroke-linejoin="round" />
<path d="M322.574 823.498 L151.697 437.128 Z" stroke-width="5" stroke="#5fb49c" fill="none" stroke-linejoin="round" />
<path d="M308.303 814.819 L151.697 437.128 Z" stroke-width="5" stroke="#5fb49c" fill="none" stroke-linejoin="round" />
<path d="M294.031 806.14 L150.557 453.792 Z" stroke-width="5" stroke="#5fb49c" fill="none" stroke-linejoin="round" />
<path d="M279.76 797.462 L149.417 470.457 Z" stroke-width="5" stroke="#5fb49c" fill="none" stroke-linejoin="round" />
<path d="M279.76 797.462 L148.277 487.121 Z" stroke-width="5" stroke="#5fb49c" fill="none" stroke-linejoin="round" />
<path d="M268.359 785.255 L147.138 503.785 Z" stroke-width="5" stroke="#5fb49c" fill="none" stroke-linejoin="round" />
<path d="M256.958 773.047 L145.998 520.449 Z" stroke-width="5" stroke="#5fb49c" fill="none" stroke-linejoin="round" />
<path d="M245.557 760.84 L144.858 537.113 Z" stroke-width="5" stroke="#5fb49c" fill="none" stroke-linejoin="round" />
<path d="M234.157 748.633 L144.858 537.113 Z" stroke-width="5" stroke="#5fb49c" fill="none" stroke-linejoin="round" />
<path d="M222.756 736.426 L148.256 553.467 Z" stroke-width="5" stroke="#5fb49c" fill="none" stroke-linejoin="round" />
<path d="M211.355 724.218 L151.655 569.821 Z" stroke-width="5" stroke="#5fb49c" fill="none" stroke-linejoin="round" />
<path d="M211.355 724.218 L155.053 586.174 Z" stroke-width="5" stroke="#5fb49c" fill="none" stroke-linejoin="round" />
<path d="M203.671 709.388 L158.451 602.528 Z" stroke-width="5" stroke="#5fb49c" fill="none" stroke-linejoin="round" />
<path d="M195.986 694.557 L161.85 618.882 Z" stroke-width="5" stroke="#5fb49c" fill="none" stroke-linejoin="round" />
<path d="M188.302 679.727 L165.248 635.236 Z" stroke-width="5" stroke="#5fb49c" fill="none" stroke-linejoin="round" />
<path d="M180.617 664.897 L165.248 635.236 Z" stroke-width="5" stroke="#5fb49c" fill="none" stroke-linejoin="round" />
<path d="M172.932 650.066 L172.932 650.066 Z" stroke-width="5" stroke="#5fb49c" fill="none" stroke-linejoin="round" />
<path d="M165.248 635.236 L180.617 664.897 Z" stroke-width="5" stroke="#5fb49c" fill="none" stroke-linejoin="round" />
<path d="M165.248 635.236 L188.302 679.727 Z" stroke-width="5" stroke="#5fb49c" fill="none" stroke-linejoin="round" />
<path d="M161.85 618.882 L195.986 694.557 Z" stroke-width="5" stroke="#5fb49c" fill="none" stroke-linejoin="round" />
<path d="M158.451 602.528 L203.671 709.388 Z" stroke-width="5" stroke="#5fb49c" fill="none" stroke-linejoin="round" />
<path d="M155.053 586.174 L211.355 724.218 Z" stroke-width="5" stroke="#5fb49c" fill="none" stroke-linejoin="round" />
<path d="M151.655 569.821 L211.355 724.218 Z" stroke-width="5" stroke="#5fb49c" fill="none" stroke-linejoin="round" />
<path d="M148.256 553.467 L222.756 736.426 Z" stroke-width="5" stroke="#5fb49c" fill="none" stroke-linejoin="round" />
<path d="M144.858 537.113 L234.157 748.633 Z" stroke-width="5" stroke="#5fb49c" fill="none" stroke-linejoin="round" />
<path d="M144.858 537.113 L245.557 760.84 Z" stroke-width="5" stroke="#5fb49c" fill="none" stroke-linejoin="round" />
<path d="M145.998 520.449 L256.958 773.047 Z" stroke-width="5" stroke="#5fb49c" fill="none" stroke-linejoin="round" />
<path d="M147.138 503.785 L268.359 785.255 Z" stroke-width="5" stroke="#5fb49c" fill="none" stroke-linejoin="round" />
<path d="M148.277 487.121 L279.76 797.462 Z" stroke-width="5" stroke="#5fb49c" fill="none" stroke-linejoin="round" />
<path d="M149.417 470.457 L279.76 797.462 Z" stroke-width="5" stroke="#5fb49c" fill="none" stroke-linejoin="round" />
<path d="M150.557 453.792 L294.031 806.14 Z" stroke-width="5" stroke="#5fb49c" fill="none" stroke-linejoin="round" />
<path d="M151.697 437.128 L308.303 814.819 Z" stroke-width="5" stroke="#5fb49c" fill="none" stroke-linejoin="round" />
<path d="M151.697 437.128 L322.574 823.498 Z" stroke-width="5" stroke="#5fb49c" fill="none" stroke-linejoin="round" />
<path d="M157.291 421.39 L336.845 832.176 Z" stroke-width="5" stroke="#5fb49c" fill="none" stroke-linejoin="round" />
<path d="M162.884 405.651 L351.117 840.855 Z" stroke-width="5" stroke="#5fb49c" fill="none" stroke-linejoin="round" />
<path d="M168.478 389.912 L365.388 849.534 Z" stroke-width="5" stroke="#5fb49c" fill="none" stroke-linejoin="round" />
<path d="M174.071 374.173 L365.388 849.534 Z" stroke-width="5" stroke="#5fb49c" fill="none" stroke-linejoin="round" />
<path d="M179.665 358.435 L381.472 854.04 Z" stroke-width="5" stroke="#5fb49c" fill="none" stroke-linejoin="round" />
<path d="M185.258 342.696 L397.556 858.547 Z" stroke-width="5" stroke="#5fb49c" fill="none" stroke-linejoin="round" />
<path d="M185.258 342.696 L413.64 863.053 Z" stroke-width="5" stroke="#5fb49c" fill="none" stroke-linejoin="round" />
<path d="M194.891 329.05 L429.723 867.56 Z" stroke-width="5" stroke="#5fb49c" fill="none" stroke-linejoin="round" />
<path d="M204.523 315.404 L445.807 872.066 Z" stroke-width="5" stroke="#5fb49c" fill="none" stroke-linejoin="round" />
<path d="M214.155 301.758 L461.891 876.572 Z" stroke-width="5" stroke="#5fb49c" fill="none" stroke-linejoin="round" />
<path d="M223.788 288.112 L461.891 876.572 Z" stroke-width="5" stroke="#5fb49c" fill="none" stroke-linejoin="round" />
<path d="M233.42 274.466 L478.594 876.572 Z" stroke-width="5" stroke="#5fb49c" fill="none" stroke-linejoin="round" />
<path d="M243.052 260.82 L495.297 876.572 Z" stroke-width="5" stroke="#5fb49c" fill="none" stroke-linejoin="round" />
<path d="M243.052 260.82 L512.0 876.572 Z" stroke-width="5" stroke="#5fb49c" fill="none" stroke-linejoin="round" />
<path d="M256.009 250.279 L528.703 876.572 Z" stroke-width="5" stroke="#5fb49c" fill="none" stroke-linejoin="round" />
<path d="M268.966 239.738 L545.406 876.572 Z" stroke-width="5" stroke="#5fb49c" fill="none" stroke-linejoin="round" />
<path d="M281.923 229.197 L562.109 876.572 Z" stroke-width="5" stroke="#5fb49c" fill="none" stroke-linejoin="round" />
<path d="M294.88 218.656 L562.109 876.572 Z" stroke-width="5" stroke="#5fb49c" fill="none" stroke-linejoin="round" />
<path d="M307.836 208.115 L578.193 872.066 Z" stroke-width="5" stroke="#5fb49c" fill="none" stroke-linejoin="round" />
<path d="M320.793 197.574 L594.277 867.56 Z" stroke-width="5" stroke="#5fb49c" fill="none" stroke-linejoin="round" />
<path d="M320.793 197.574 L610.36 863.053 Z" stroke-width="5" stroke="#5fb49c" fill="none" stroke-linejoin="round" />
<path d="M336.113 190.919 L626.444 858.547 Z" stroke-width="5" stroke="#5fb49c" fill="none" stroke-linejoin="round" />
<path d="M351.434 184.265 L642.528 854.04 Z" stroke-width="5" stroke="#5fb49c" fill="none" stroke-linejoin="round" />
<path d="M366.754 177.61 L658.612 849.534 Z" stroke-width="5" stroke="#5fb49c" fill="none" stroke-linejoin="round" />
<path d="M382.074 170.956 L658.612 849.534 Z" stroke-width="5" stroke="#5fb49c" fill="none" stroke-linejoin="round" />
<path d="M397.395 164.301 L672.883 840.855 Z" stroke-width="5" stroke="#5fb49c" fill="none" stroke-linejoin="round" />
<path d="M412.715 157.646 L687.155 832.176 Z" stroke-width="5" stroke="#5fb49c" fill="none" stroke-linejoin="round" />
<path d="M412.715 157.646 L701.426 823.498 Z" stroke-width="5" stroke="#5fb49c" fill="none" stroke-linejoin="round" />
<path d="M429.262 155.372 L715.697 814.819 Z" stroke-width="5" stroke="#5fb49c" fill="none" stroke-linejoin="round" />
<path d="M445.81 153.098 L729.969 806.14 Z" stroke-width="5" stroke="#5fb49c" fill="none" stroke-linejoin="round" />
<path d="M462.357 150.823 L744.24 797.462 Z" stroke-width="5" stroke="#5fb49c" fill="none" stroke-linejoin="round" />
<path d="M478.905 148.549 L744.24 797.462 Z" stroke-width="5" stroke="#5fb49c" fill="none" stroke-linejoin="round" />
<path d="M495.452 146.274 L755.641 785.255 Z" stroke-width="5" stroke="#5fb49c" fill="none" stroke-linejoin="round" />
<path d="M512.0 144.0 L767.042 773.047 Z" stroke-width="5" stroke="#5fb49c" fill="none" stroke-linejoin="round" />
<path d="M512.0 144.0 L778.443 760.84 Z" stroke-width="5" stroke="#5fb49c" fill="none" stroke-linejoin="round" />
<path d="M528.548 146.274 L789.843 748.633 Z" stroke-width="5" stroke="#5fb49c" fill="none" stroke-linejoin="round" />
<path d="M545.095 148.549 L801.244 736.426 Z" stroke-width="5" stroke="#5fb49c" fill="none" stroke-linejoin="round" />
<path d="M561.643 150.823 L812.645 724.218 Z" stroke-width="5" stroke="#5fb49c" fill="none" stroke-linejoin="round" />
<path d="M578.19 153.098 L812.645 724.218 Z" stroke-width="5" stroke="#5fb49c" fill="none" stroke-linejoin="round" />
<path d="M594.738 155.372 L820.329 709.388 Z" stroke-width="5" stroke="#5fb49c" fill="none" stroke-linejoin="round" />
<path d="M611.285 157.646 L828.014 694.557 Z" stroke-width="5" stroke="#5fb49c" fill="none" stroke-linejoin="round" />
<path d="M611.285 157.646 L835.698 679.727 Z" stroke-width="5" stroke="#5fb49c" fill="none" stroke-linejoin="round" />
<path d="M626.605 164.301 L843.383 664.897 Z" stroke-width="5" stroke="#5fb49c" fill="none" stroke-linejoin="round" />
<path d="M641.926 170.956 L851.068 650.066 Z" stroke-width="5" stroke="#5fb49c" fill="none" stroke-linejoin="round" />
<path d="M657.246 177.61 L858.752 635.236 Z" stroke-width="5" stroke="#5fb49c" fill="none" stroke-linejoin="round" />
<path d="M672.566 184.265 L858.752 635.236 Z" stroke-width="5" stroke="#5fb49c" fill="none" stroke-linejoin="round" />
<path d="M687.887 190.919 L862.15 618.882 Z" stroke-width="5" stroke="#5fb49c" fill="none" stroke-linejoin="round" />
<path d="M703.207 197.574 L865.549 602.528 Z" stroke-width="5" stroke="#5fb49c" fill="none" stroke-linejoin="round" />
<path d="M703.207 197.574 L868.947 586.174 Z" stroke-width="5" stroke="#5fb49c" fill="none" stroke-linejoin="round" />
<path d="M716.164 208.115 L872.345 569.821 Z" stroke-width="5" stroke="#5fb49c" fill="none" stroke-linejoin="round" />
<path d="M729.12 218.656 L875.744 553.467 Z" stroke-width="5" stroke="#5fb49c" fill="none" stroke-linejoin="round" />
<path d="M742.077 229.197 L879.142 537.113 Z" stroke-width="5" stroke="#5fb49c" fill="none" stroke-linejoin="round" />
<path d="M755.034 239.738 L879.142 537.113 Z" stroke-width="5" stroke="#5fb49c" fill="none" stroke-linejoin="round" />
<path d="M767.991 250.279 L878.002 520.449 Z" stroke-width="5" stroke="#5fb49c" fill="none" stroke-linejoin="round" />
<path d="M780.948 260.82 L876.862 503.785 Z" stroke-width="5" stroke="#5fb49c" fill="none" stroke-linejoin="round" />
<path d="M780.948 260.82 L875.723 487.121 Z" stroke-width="5" stroke="#5fb49c" fill="none" stroke-linejoin="round" />
<path d="M790.58 274.466 L874.583 470.457 Z" stroke-width="5" stroke="#5fb49c" fill="none" stroke-linejoin="round" />
<path d="M800.212 288.112 L873.443 453.792 Z" stroke-width="5" stroke="#5fb49c" fill="none" stroke-linejoin="round" />
<path d="M809.845 301.758 L872.303 437.128 Z" stroke-width="5" stroke="#5fb49c" fill="none" stroke-linejoin="round" />
<path d="M819.477 315.404 L872.303 437.128 Z" stroke-width="5" stroke="#5fb49c" fill="none" stroke-linejoin="round" />
<path d="M829.109 329.05 L866.709 421.39 Z" stroke-width="5" stroke="#5fb49c" fill="none" stroke-linejoin="round" />
<path d="M838.742 342.696 L861.116 405.651 Z" stroke-width="5" stroke="#5fb49c" fill="none" stroke-linejoin="round" />
<path d="M838.742 342.696 L855.522 389.912 Z" stroke-width="5" stroke="#5fb49c" fill="none" stroke-linejoin="round" />
<path d="M844.335 358.435 L849.929 374.173 Z" stroke-width="5" stroke="#5fb49c" fill="none" stroke-linejoin="round" />
<path d="M849.929 374.173 L844.335 358.435 Z" stroke-width="5" stroke="#5fb49c" fill="none" stroke-linejoin="round" />
<path d="M855.522 389.912 L838.742 342.696 Z" stroke-width="5" stroke="#5fb49c" fill="none" stroke-linejoin="round" />
<path d="M861.116 405.651 L838.742 342.696 Z" stroke-width="5" stroke="#5fb49c" fill="none" stroke-linejoin="round" />
<path d="M866.709 421.39 L829.109 329.05 Z" stroke-width="5" stroke="#5fb49c" fill="none" stroke-linejoin="round" />
<path d="M872.303 437.128 L819.477 315.404 Z" stroke-width="5" stroke="#5fb49c" fill="none" stroke-linejoin="round" />
<path d="M872.303 437.128 L809.845 301.758 Z" stroke-width="5" stroke="#5fb49c" fill="none" stroke-linejoin="round" />
<path d="M873.443 453.792 L800.212 288.112 Z" stroke-width="5" stroke="#5fb49c" fill="none" stroke-linejoin="round" />
<path d="M874.583 470.457 L790.58 274.466 Z" stroke-width="5" stroke="#5fb49c" fill="none" stroke-linejoin="round" />
<path d="M875.723 487.121 L780.948 260.82 Z" stroke-width="5" stroke="#5fb49c" fill="none" stroke-linejoin="round" />
<path d="M876.862 503.785 L780.948 260.82 Z" stroke-width="5" stroke="#5fb49c" fill="none" stroke-linejoin="round" />
<path d="M878.002 520.449 L767.991 250.279 Z" stroke-width="5" stroke="#5fb49c" fill="none" stroke-linejoin="round" />
<path d="M879.142 537.113 L755.034 239.738 Z" stroke-width="5" stroke="#5fb49c" fill="none" stroke-linejoin="round" />
<path d="M879.142 537.113 L742.077 229.197 Z" stroke-width="5" stroke="#5fb49c" fill="none" stroke-linejoin="round" />
<path d="M875.744 553.467 L729.12 218.656 Z" stroke-width="5" stroke="#5fb49c" fill="none" stroke-linejoin="round" />
<path d="M872.345 569.821 L716.164 208.115 Z" stroke-width="5" stroke="#5fb49c" fill="none" stroke-linejoin="round" />
<path d="M868.947 586.174 L703.207 197.574 Z" stroke-width="5" stroke="#5fb49c" fill="none" stroke-linejoin="round" />
<path d="M865.549 602.528 L703.207 197.574 Z" stroke-width="5" stroke="#5fb49c" fill="none" stroke-linejoin="round" />
<path d="M862.15 618.882 L687.887 190.919 Z" stroke-width="5" stroke="#5fb49c" fill="none" stroke-linejoin="round" />
<path d="M858.752 635.236 L672.566 184.265 Z" stroke-width="5" stroke="#5fb49c" fill="none" stroke-linejoin="round" />
<path d="M858.752 635.236 L657.246 177.61 Z" stroke-width="5" stroke="#5fb49c" fill="none" stroke-linejoin="round" />
<path d="M851.068 650.066 L641.926 170.956 Z" stroke-width="5" stroke="#5fb49c" fill="none" stroke-linejoin="round" />
<path d="M843.383 664.897 L626.605 164.301 Z" stroke-width="5" stroke="#5fb49c" fill="none" stroke-linejoin="round" />
<path d="M835.698 679.727 L611.285 157.646 Z" stroke-width="5" stroke="#5fb49c" fill="none" stroke-linejoin="round" />
<path d="M828.014 694.557 L611.285 157.646 Z" stroke-width="5" stroke="#5fb49c" fill="none" stroke-linejoin="round" />
<path d="M820.329 709.388 L594.738 155.372 Z" stroke-width="5" stroke="#5fb49c" fill="none" stroke-linejoin="round" />
<path d="M812.645 724.218 L578.19 153.098 Z" stroke-width="5" stroke="#5fb49c" fill="none" stroke-linejoin="round" />
<path d="M812.645 724.218 L561.643 150.823 Z" stroke-width="5" stroke="#5fb49c" fill="none" stroke-linejoin="round" />
<path d="M801.244 736.426 L545.095 148.549 Z" stroke-width="5" stroke="#5fb49c" fill="none" stroke-linejoin="round" />
<path d="M789.843 748.633 L528.548 146.274 Z" stroke-width="5" stroke="#5fb49c" fill="none" stroke-linejoin="round" />
<path d="M778.443 760.84 L512.0 144.0 Z" stroke-width="5" stroke="#5fb49c" fill="none" stroke-linejoin="round" />
<path d="M767.042 773.047 L512.0 144.0 Z" stroke-width="5" stroke="#5fb49c" fill="none" stroke-linejoin="round" />
<path d="M755.641 785.255 L495.452 146.274 Z" stroke-width="5" stroke="#5fb49c" fill="none" stroke-linejoin="round" />
<path d="M744.24 797.462 L478.905 148.549 Z" stroke-width="5" stroke="#5fb49c" fill="none" stroke-linejoin="round" />
<path d="M744.24 797.462 L462.357 150.823 Z" stroke-width="5" stroke="#5fb49c" fill="none" stroke-linejoin="round" />
<path d="M729.969 806.14 L445.81 153.098 Z" stroke-width="5" stroke="#5fb49c" fill="none" stroke-linejoin="round" />
<path d="M715.697 814.819 L429.262 155.372 Z" stroke-width="5" stroke="#5fb49c" fill="none" stroke-linejoin="round" />
<path d="M701.426 823.498 L412.715 157.646 Z" stroke-width="5" stroke="#5fb49c" fill="none" stroke-linejoin="round" />
<path d="M687.155 832.176 L412.715 157.646 Z" stroke-width="5" stroke="#5fb49c" fill="none" stroke-linejoin="round" />
<path d="M672.883 840.855 L397.395 164.301 Z" stroke-width="5" stroke="#5fb49c" fill="none" stroke-linejoin="round" />
<path d="M658.612 849.534 L382.074 170.956 Z" stroke-width="5" stroke="#5fb49c" fill="none" stroke-linejoin="round" />
<path d="M281.048 796.061 L715.544 209.078 Z" stroke-width="3" stroke="#414288" fill="none" stroke-linejoin="round" />
<path d="M269.104 784.385 L702.121 199.137 Z" stroke-width="3" stroke="#414288" fill="none" stroke-linejoin="round" />
<path d="M257.159 772.709 L879.905 503.623 Z" stroke-width="3" stroke="#414288" fill="none" stroke-linejoin="round" />
<path d="M245.215 761.034 L879.905 503.623 Z" stroke-width="3" stroke="#414288" fill="none" stroke-linejoin="round" />
<path d="M233.27 749.358 L673.09 183.246 Z" stroke-width="3" stroke="#414288" fill="none" stroke-linejoin="round" />
<path d="M171.216 373.11 L657.483 177.296 Z" stroke-width="3" stroke="#414288" fill="none" stroke-linejoin="round" />
<path d="M171.216 373.11 L641.876 171.346 Z" stroke-width="3" stroke="#414288" fill="none" stroke-linejoin="round" />
<path d="M212.974 723.217 L626.269 165.395 Z" stroke-width="3" stroke="#414288" fill="none" stroke-linejoin="round" />
<path d="M204.623 708.752 L610.661 159.445 Z" stroke-width="3" stroke="#414288" fill="none" stroke-linejoin="round" />
<path d="M196.271 694.286 L864.002 404.674 Z" stroke-width="3" stroke="#414288" fill="none" stroke-linejoin="round" />
<path d="M187.919 679.821 L864.002 404.674 Z" stroke-width="3" stroke="#414288" fill="none" stroke-linejoin="round" />
<path d="M179.568 665.356 L578.42 151.976 Z" stroke-width="3" stroke="#414288" fill="none" stroke-linejoin="round" />
<path d="M221.326 286.318 L561.786 150.457 Z" stroke-width="3" stroke="#414288" fill="none" stroke-linejoin="round" />
<path d="M221.326 286.318 L545.152 148.938 Z" stroke-width="3" stroke="#414288" fill="none" stroke-linejoin="round" />
<path d="M167.077 634.708 L528.518 147.419 Z" stroke-width="3" stroke="#414288" fill="none" stroke-linejoin="round" />
<path d="M162.938 618.526 L511.885 145.9 Z" stroke-width="3" stroke="#414288" fill="none" stroke-linejoin="round" />
<path d="M158.799 602.344 L821.992 313.685 Z" stroke-width="3" stroke="#414288" fill="none" stroke-linejoin="round" />
<path d="M154.66 586.162 L821.992 313.685 Z" stroke-width="3" stroke="#414288" fill="none" stroke-linejoin="round" />
<path d="M150.521 569.98 L478.824 147.407 Z" stroke-width="3" stroke="#414288" fill="none" stroke-linejoin="round" />
<path d="M292.993 216.264 L462.397 150.432 Z" stroke-width="3" stroke="#414288" fill="none" stroke-linejoin="round" />
<path d="M292.993 216.264 L445.97 153.457 Z" stroke-width="3" stroke="#414288" fill="none" stroke-linejoin="round" />
<path d="M146.762 537.099 L429.543 156.482 Z" stroke-width="3" stroke="#414288" fill="none" stroke-linejoin="round" />
<path d="M147.142 520.4 L413.116 159.507 Z" stroke-width="3" stroke="#414288" fill="none" stroke-linejoin="round" />
<path d="M147.522 503.701 L756.992 237.404 Z" stroke-width="3" stroke="#414288" fill="none" stroke-linejoin="round" />
<path d="M147.902 487.002 L756.992 237.404 Z" stroke-width="3" stroke="#414288" fill="none" stroke-linejoin="round" />
<path d="M148.282 470.304 L381.688 169.878 Z" stroke-width="3" stroke="#414288" fill="none" stroke-linejoin="round" />
<path d="M380.903 168.143 L366.686 177.222 Z" stroke-width="3" stroke="#414288" fill="none" stroke-linejoin="round" />
<path d="M380.903 168.143 L351.685 184.567 Z" stroke-width="3" stroke="#414288" fill="none" stroke-linejoin="round" />
<path d="M153.534 437.628 L336.683 191.912 Z" stroke-width="3" stroke="#414288" fill="none" stroke-linejoin="round" />
<path d="M158.405 421.651 L321.682 199.257 Z" stroke-width="3" stroke="#414288" fill="none" stroke-linejoin="round" />
<path d="M163.277 405.674 L673.822 181.489 Z" stroke-width="3" stroke="#414288" fill="none" stroke-linejoin="round" />
<path d="M168.148 389.697 L673.822 181.489 Z" stroke-width="3" stroke="#414288" fill="none" stroke-linejoin="round" />
<path d="M173.02 373.72 L294.217 217.722 Z" stroke-width="3" stroke="#414288" fill="none" stroke-linejoin="round" />
<path d="M478.536 145.525 L281.753 228.842 Z" stroke-width="3" stroke="#414288" fill="none" stroke-linejoin="round" />
<path d="M478.536 145.525 L269.29 239.962 Z" stroke-width="3" stroke="#414288" fill="none" stroke-linejoin="round" />
<path d="M186.892 343.673 L256.826 251.082 Z" stroke-width="3" stroke="#414288" fill="none" stroke-linejoin="round" />
<path d="M195.894 329.603 L244.362 262.202 Z" stroke-width="3" stroke="#414288" fill="none" stroke-linejoin="round" />
<path d="M204.895 315.532 L578.651 150.086 Z" stroke-width="3" stroke="#414288" fill="none" stroke-linejoin="round" />
<path d="M213.896 301.462 L578.651 150.086 Z" stroke-width="3" stroke="#414288" fill="none" stroke-linejoin="round" />
<path d="M222.897 287.392 L222.897 287.392 Z" stroke-width="3" stroke="#414288" fill="none" stroke-linejoin="round" />
<path d="M578.651 150.086 L213.896 301.462 Z" stroke-width="3" stroke="#414288" fill="none" stroke-linejoin="round" />
<path d="M578.651 150.086 L204.895 315.532 Z" stroke-width="3" stroke="#414288" fill="none" stroke-linejoin="round" />
<path d="M244.362 262.202 L195.894 329.603 Z" stroke-width="3" stroke="#414288" fill="none" stroke-linejoin="round" />
<path d="M256.826 251.082 L186.892 343.673 Z" stroke-width="3" stroke="#414288" fill="none" stroke-linejoin="round" />
<path d="M269.29 239.962 L478.536 145.525 Z" stroke-width="3" stroke="#414288" fill="none" stroke-linejoin="round" />
<path d="M281.753 228.842 L478.536 145.525 Z" stroke-width="3" stroke="#414288" fill="none" stroke-linejoin="round" />
<path d="M294.217 217.722 L173.02 373.72 Z" stroke-width="3" stroke="#414288" fill="none" stroke-linejoin="round" />
<path d="M673.822 181.489 L168.148 389.697 Z" stroke-width="3" stroke="#414288" fill="none" stroke-linejoin="round" />
<path d="M673.822 181.489 L163.277 405.674 Z" stroke-width="3" stroke="#414288" fill="none" stroke-linejoin="round" />
<path d="M321.682 199.257 L158.405 421.651 Z" stroke-width="3" stroke="#414288" fill="none" stroke-linejoin="round" />
<path d="M336.683 191.912 L153.534 437.628 Z" stroke-width="3" stroke="#414288" fill="none" stroke-linejoin="round" />
<path d="M351.685 184.567 L380.903 168.143 Z" stroke-width="3" stroke="#414288" fill="none" stroke-linejoin="round" />
<path d="M366.686 177.222 L380.903 168.143 Z" stroke-width="3" stroke="#414288" fill="none" stroke-linejoin="round" />
<path d="M381.688 169.878 L148.282 470.304 Z" stroke-width="3" stroke="#414288" fill="none" stroke-linejoin="round" />
<path d="M756.992 237.404 L147.902 487.002 Z" stroke-width="3" stroke="#414288" fill="none" stroke-linejoin="round" />
<path d="M756.992 237.404 L147.522 503.701 Z" stroke-width="3" stroke="#414288" fill="none" stroke-linejoin="round" />
<path d="M413.116 159.507 L147.142 520.4 Z" stroke-width="3" stroke="#414288" fill="none" stroke-linejoin="round" />
<path d="M429.543 156.482 L146.762 537.099 Z" stroke-width="3" stroke="#414288" fill="none" stroke-linejoin="round" />
<path d="M445.97 153.457 L292.993 216.264 Z" stroke-width="3" stroke="#414288" fill="none" stroke-linejoin="round" />
<path d="M462.397 150.432 L292.993 216.264 Z" stroke-width="3" stroke="#414288" fill="none" stroke-linejoin="round" />
<path d="M478.824 147.407 L150.521 569.98 Z" stroke-width="3" stroke="#414288" fill="none" stroke-linejoin="round" />
<path d="M821.992 313.685 L154.66 586.162 Z" stroke-width="3" stroke="#414288" fill="none" stroke-linejoin="round" />
<path d="M821.992 313.685 L158.799 602.344 Z" stroke-width="3" stroke="#414288" fill="none" stroke-linejoin="round" />
<path d="M511.885 145.9 L162.938 618.526 Z" stroke-width="3" stroke="#414288" fill="none" stroke-linejoin="round" />
<path d="M528.518 147.419 L167.077 634.708 Z" stroke-width="3" stroke="#414288" fill="none" stroke-linejoin="round" />
<path d="M545.152 148.938 L221.326 286.318 Z" stroke-width="3" stroke="#414288" fill="none" stroke-linejoin="round" />
<path d="M561.786 150.457 L221.326 286.318 Z" stroke-width="3" stroke="#414288" fill="none" stroke-linejoin="round" />
<path d="M578.42 151.976 L179.568 665.356 Z" stroke-width="3" stroke="#414288" fill="none" stroke-linejoin="round" />
<path d="M864.002 404.674 L187.919 679.821 Z" stroke-width="3" stroke="#414288" fill="none" stroke-linejoin="round" />
<path d="M864.002 404.674 L196.271 694.286 Z" stroke-width="3" stroke="#414288" fill="none" stroke-linejoin="round" />
<path d="M610.661 159.445 L204.623 708.752 Z" stroke-width="3" stroke="#414288" fill="none" stroke-linejoin="round" />
<path d="M626.269 165.395 L212.974 723.217 Z" stroke-width="3" stroke="#414288" fill="none" stroke-linejoin="round" />
<path d="M641.876 171.346 L171.216 373.11 Z" stroke-width="3" stroke="#414288" fill="none" stroke-linejoin="round" />
<path d="M657.483 177.296 L171.216 373.11 Z" stroke-width="3" stroke="#414288" fill="none" stroke-linejoin="round" />
<path d="M673.09 183.246 L233.27 749.358 Z" stroke-width="3" stroke="#414288" fill="none" stroke-linejoin="round" />
<path d="M879.905 503.623 L245.215 761.034 Z" stroke-width="3" stroke="#414288" fill="none" stroke-linejoin="round" />
<path d="M879.905 503.623 L257.159 772.709 Z" stroke-width="3" stroke="#414288" fill="none" stroke-linejoin="round" />
<path d="M702.121 199.137 L269.104 784.385 Z" stroke-width="3" stroke="#414288" fill="none" stroke-linejoin="round" />
<path d="M715.544 209.078 L281.048 796.061 Z" stroke-width="3" stroke="#414288" fill="none" stroke-linejoin="round" />
<path d="M728.967 219.018 L146.381 470.202 Z" stroke-width="3" stroke="#414288" fill="none" stroke-linejoin="round" />
<path d="M742.39 228.959 L146.381 470.202 Z" stroke-width="3" stroke="#414288" fill="none" stroke-linejoin="round" />
<path d="M755.813 238.899 L307.645 815.756 Z" stroke-width="3" stroke="#414288" fill="none" stroke-linejoin="round" />
<path d="M868.522 603.193 L322.296 823.776 Z" stroke-width="3" stroke="#414288" fill="none" stroke-linejoin="round" />
<path d="M868.522 603.193 L336.948 831.797 Z" stroke-width="3" stroke="#414288" fill="none" stroke-linejoin="round" />
<path d="M779.48 262.033 L351.6 839.817 Z" stroke-width="3" stroke="#414288" fill="none" stroke-linejoin="round" />
<path d="M789.724 275.226 L366.251 847.837 Z" stroke-width="3" stroke="#414288" fill="none" stroke-linejoin="round" />
<path d="M799.967 288.42 L148.663 570.395 Z" stroke-width="3" stroke="#414288" fill="none" stroke-linejoin="round" />
<path d="M810.21 301.613 L148.663 570.395 Z" stroke-width="3" stroke="#414288" fill="none" stroke-linejoin="round" />
<path d="M820.454 314.807 L397.175 859.627 Z" stroke-width="3" stroke="#414288" fill="none" stroke-linejoin="round" />
<path d="M830.697 696.0 L413.447 863.396 Z" stroke-width="3" stroke="#414288" fill="none" stroke-linejoin="round" />
<path d="M830.697 696.0 L429.72 867.166 Z" stroke-width="3" stroke="#414288" fill="none" stroke-linejoin="round" />
<path d="M837.001 343.468 L445.992 870.936 Z" stroke-width="3" stroke="#414288" fill="none" stroke-linejoin="round" />
<path d="M843.305 358.936 L462.264 874.706 Z" stroke-width="3" stroke="#414288" fill="none" stroke-linejoin="round" />
<path d="M849.61 374.403 L177.891 666.257 Z" stroke-width="3" stroke="#414288" fill="none" stroke-linejoin="round" />
<path d="M855.914 389.871 L177.891 666.257 Z" stroke-width="3" stroke="#414288" fill="none" stroke-linejoin="round" />
<path d="M862.218 405.339 L495.222 877.715 Z" stroke-width="3" stroke="#414288" fill="none" stroke-linejoin="round" />
<path d="M769.237 775.16 L511.908 876.955 Z" stroke-width="3" stroke="#414288" fill="none" stroke-linejoin="round" />
<path d="M769.237 775.16 L528.593 876.195 Z" stroke-width="3" stroke="#414288" fill="none" stroke-linejoin="round" />
<path d="M870.419 437.402 L545.279 875.434 Z" stroke-width="3" stroke="#414288" fill="none" stroke-linejoin="round" />
<path d="M872.316 453.997 L561.965 874.674 Z" stroke-width="3" stroke="#414288" fill="none" stroke-linejoin="round" />
<path d="M874.213 470.592 L231.899 750.678 Z" stroke-width="3" stroke="#414288" fill="none" stroke-linejoin="round" />
<path d="M876.11 487.187 L231.899 750.678 Z" stroke-width="3" stroke="#414288" fill="none" stroke-linejoin="round" />
<path d="M878.008 503.782 L594.513 868.68 Z" stroke-width="3" stroke="#414288" fill="none" stroke-linejoin="round" />
<path d="M688.698 834.803 L610.375 863.446 Z" stroke-width="3" stroke="#414288" fill="none" stroke-linejoin="round" />
<path d="M688.698 834.803 L626.237 858.212 Z" stroke-width="3" stroke="#414288" fill="none" stroke-linejoin="round" />
<path d="M877.254 536.868 L642.099 852.979 Z" stroke-width="3" stroke="#414288" fill="none" stroke-linejoin="round" />
<path d="M874.604 553.36 L657.96 847.745 Z" stroke-width="3" stroke="#414288" fill="none" stroke-linejoin="round" />
<path d="M871.953 569.851 L306.68 817.398 Z" stroke-width="3" stroke="#414288" fill="none" stroke-linejoin="round" />
<path d="M869.303 586.343 L306.68 817.398 Z" stroke-width="3" stroke="#414288" fill="none" stroke-linejoin="round" />
<path d="M866.652 602.834 L687.684 833.192 Z" stroke-width="3" stroke="#414288" fill="none" stroke-linejoin="round" />
<path d="M595.054 870.505 L701.546 823.873 Z" stroke-width="3" stroke="#414288" fill="none" stroke-linejoin="round" />
<path d="M595.054 870.505 L715.407 814.553 Z" stroke-width="3" stroke="#414288" fill="none" stroke-linejoin="round" />
<path d="M857.0 634.491 L729.269 805.234 Z" stroke-width="3" stroke="#414288" fill="none" stroke-linejoin="round" />
<path d="M849.999 649.655 L743.131 795.915 Z" stroke-width="3" stroke="#414288" fill="none" stroke-linejoin="round" />
<path d="M842.997 664.82 L396.689 861.467 Z" stroke-width="3" stroke="#414288" fill="none" stroke-linejoin="round" />
<path d="M835.995 679.985 L396.689 861.467 Z" stroke-width="3" stroke="#414288" fill="none" stroke-linejoin="round" />
<path d="M828.994 695.15 L767.826 773.882 Z" stroke-width="3" stroke="#414288" fill="none" stroke-linejoin="round" />
<path d="M495.251 879.619 L778.659 761.169 Z" stroke-width="3" stroke="#414288" fill="none" stroke-linejoin="round" />
<path d="M495.251 879.619 L789.492 748.455 Z" stroke-width="3" stroke="#414288" fill="none" stroke-linejoin="round" />
<path d="M811.159 723.028 L800.326 735.742 Z" stroke-width="3" stroke="#414288" fill="none" stroke-linejoin="round" />
<path d="M800.326 735.742 L811.159 723.028 Z" stroke-width="3" stroke="#414288" fill="none" stroke-linejoin="round" />
<path d="M789.492 748.455 L495.251 879.619 Z" stroke-width="3" stroke="#414288" fill="none" stroke-linejoin="round" />
<path d="M778.659 761.169 L495.251 879.619 Z" stroke-width="3" stroke="#414288" fill="none" stroke-linejoin="round" />
<path d="M767.826 773.882 L828.994 695.15 Z" stroke-width="3" stroke="#414288" fill="none" stroke-linejoin="round" />
<path d="M396.689 861.467 L835.995 679.985 Z" stroke-width="3" stroke="#414288" fill="none" stroke-linejoin="round" />
<path d="M396.689 861.467 L842.997 664.82 Z" stroke-width="3" stroke="#414288" fill="none" stroke-linejoin="round" />
<path d="M743.131 795.915 L849.999 649.655 Z" stroke-width="3" stroke="#414288" fill="none" stroke-linejoin="round" />
<path d="M729.269 805.234 L857.0 634.491 Z" stroke-width="3" stroke="#414288" fill="none" stroke-linejoin="round" />
<path d="M715.407 814.553 L595.054 870.505 Z" stroke-width="3" stroke="#414288" fill="none" stroke-linejoin="round" />
<path d="M701.546 823.873 L595.054 870.505 Z" stroke-width="3" stroke="#414288" fill="none" stroke-linejoin="round" />
<path d="M687.684 833.192 L866.652 602.834 Z" stroke-width="3" stroke="#414288" fill="none" stroke-linejoin="round" />
<path d="M306.68 817.398 L869.303 586.343 Z" stroke-width="3" stroke="#414288" fill="none" stroke-linejoin="round" />
<path d="M306.68 817.398 L871.953 569.851 Z" stroke-width="3" stroke="#414288" fill="none" stroke-linejoin="round" />
<path d="M657.96 847.745 L874.604 553.36 Z" stroke-width="3" stroke="#414288" fill="none" stroke-linejoin="round" />
<path d="M642.099 852.979 L877.254 536.868 Z" stroke-width="3" stroke="#414288" fill="none" stroke-linejoin="round" />
<path d="M626.237 858.212 L688.698 834.803 Z" stroke-width="3" stroke="#414288" fill="none" stroke-linejoin="round" />
<path d="M610.375 863.446 L688.698 834.803 Z" stroke-width="3" stroke="#414288" fill="none" stroke-linejoin="round" />
<path d="M594.513 868.68 L878.008 503.782 Z" stroke-width="3" stroke="#414288" fill="none" stroke-linejoin="round" />
<path d="M231.899 750.678 L876.11 487.187 Z" stroke-width="3" stroke="#414288" fill="none" stroke-linejoin="round" />
<path d="M231.899 750.678 L874.213 470.592 Z" stroke-width="3" stroke="#414288" fill="none" stroke-linejoin="round" />
<path d="M561.965 874.674 L872.316 453.997 Z" stroke-width="3" stroke="#414288" fill="none" stroke-linejoin="round" />
<path d="M545.279 875.434 L870.419 437.402 Z" stroke-width="3" stroke="#414288" fill="none" stroke-linejoin="round" />
<path d="M528.593 876.195 L769.237 775.16 Z" stroke-width="3" stroke="#414288" fill="none" stroke-linejoin="round" />
<path d="M511.908 876.955 L769.237 775.16 Z" stroke-width="3" stroke="#414288" fill="none" stroke-linejoin="round" />
<path d="M495.222 877.715 L862.218 405.339 Z" stroke-width="3" stroke="#414288" fill="none" stroke-linejoin="round" />
<path d="M177.891 666.257 L855.914 389.871 Z" stroke-width="3" stroke="#414288" fill="none" stroke-linejoin="round" />
<path d="M177.891 666.257 L849.61 374.403 Z" stroke-width="3" stroke="#414288" fill="none" stroke-linejoin="round" />
<path d="M462.264 874.706 L843.305 358.936 Z" stroke-width="3" stroke="#414288" fill="none" stroke-linejoin="round" />
<path d="M445.992 870.936 L837.001 343.468 Z" stroke-width="3" stroke="#414288" fill="none" stroke-linejoin="round" />
<path d="M429.72 867.166 L830.697 696.0 Z" stroke-width="3" stroke="#414288" fill="none" stroke-linejoin="round" />
<path d="M413.447 863.396 L830.697 696.0 Z" stroke-width="3" stroke="#414288" fill="none" stroke-linejoin="round" />
<path d="M397.175 859.627 L820.454 314.807 Z" stroke-width="3" stroke="#414288" fill="none" stroke-linejoin="round" />
<path d="M148.663 570.395 L810.21 301.613 Z" stroke-width="3" stroke="#414288" fill="none" stroke-linejoin="round" />
<path d="M148.663 570.395 L799.967 288.42 Z" stroke-width="3" stroke="#414288" fill="none" stroke-linejoin="round" />
<path d="M366.251 847.837 L789.724 275.226 Z" stroke-width="3" stroke="#414288" fill="none" stroke-linejoin="round" />
<path d="M351.6 839.817 L779.48 262.033 Z" stroke-width="3" stroke="#414288" fill="none" stroke-linejoin="round" />
<path d="M336.948 831.797 L868.522 603.193 Z" stroke-width="3" stroke="#414288" fill="none" stroke-linejoin="round" />
<path d="M322.296 823.776 L868.522 603.193 Z" stroke-width="3" stroke="#414288" fill="none" stroke-linejoin="round" />
<path d="M307.645 815.756 L755.813 238.899 Z" stroke-width="3" stroke="#414288" fill="none" stroke-linejoin="round" />
<path d="M146.381 470.202 L742.39 228.959 Z" stroke-width="3" stroke="#414288" fill="none" stroke-linejoin="round" />
</svg>