<svg width="1024" height="1024">
<rect width="100%" height="100%" fill="#98dfaf" />
<path d="M642.528 854.04 L351.434 184.265 Z" stroke-width="5" stroke="#5fb49c" fill="none" stroke-linejoin="round" />
<path d="M626.444 858.547 L336.113 190.919 Z" stroke-width="5" stroke="#5fb49c" fill="none" stroke-linejoin="round" />
<path d="M610.36 863.053 L320.793 197.574 Z" stroke-width="5" stroke="#5fb49c" fill="none" stroke-linejoin="round" />
<path d="M594.277 867.56 L320.793 197.574 Z" stroke-width="5" stroke="#5fb49c" fill="none" stroke-linejoin="round" />
<path d="M578.193 872.066 L307.836 208.115 Z" stroke-width="5" stroke="#5fb49c" fill="none" stroke-linejoin="round" />
<path d="M562.109 876.572 L294.88 218.656 Z" stroke-width="5" stroke="#5fb49c" fill="none" stroke-linejoin="round" />
<path d="M562.109 876.572 L281.923 229.197 Z" stroke-width="5" stroke="#5fb49c" fill="none" stroke-linejoin="round" />
<path d="M545.406 876.572 L268.966 239.738 Z" stroke-width="5" stroke="#5fb49c" fill="none" stroke-linejoin="round" />
<path d="M528.703 876.572 L256.009 250.279 Z" stroke-width="5" stroke="#5fb49c" fill="none" stroke-linejoin="round" />
<path d="M512.0 876.572 L243.052 260.82 Z" stroke-width="5" stroke="#5fb49c" fill="none" stroke-linejoin="round" />
<path d="M495.297 876.572 L243.052 260.82 Z" stroke-width="5" stroke="#5fb49c" fill="none" stroke-linejoin="round" />
<path d="M478.594 876.572 L233.42 274.466 Z" stroke-width="5" stroke="#5fb49c" fill="none" stroke-linejoin="round" />
<path d="M461.891 876.572 L223.788 288.112 Z" stroke-width="5" stroke="#5fb49c" fill="none" stroke-linejoin="round" />
<path d="M461.891 876.572 L214.155 301.758 Z" stroke-width="5" stroke="#5fb49c" fill="none" stroke-linejoin="round" />
<path d="M445.807 872.066 L204.523 315.404 Z" stroke-width="5" stroke="#5fb49c" fill="none" stroke-linejoin="round" />
<path d="M429.723 867.56 L194.891 329.05 Z" stroke-width="5" stroke="#5fb49c" fill="none" stroke-linejoin="round" />
<path d="M413.64 863.053 L185.258 342.696 Z" stroke-width="5" stroke="#5fb49c" fill="none" stroke-linejoin="round" />
<path d="M397.556 858.547 L185.258 342.696 Z" stroke-width="5" stroke="#5fb49c" fill="none" stroke-linejoin="round" />
<path d="M381.472 854.04 L179.665 358.435 Z" stroke-width="5" stroke="#5fb49c" fill="none" stroke-linejoin="round" />
<path d="M365.388 849.534 L174.071 374.173 Z" stroke-width="5" stroke="#5fb49c" fill="none" stroke-linejoin="round" />
<path d="M365.388 849.534 L168.478 389.912 Z" stroke-width="5" stroke="#5fb49c" fill="none" stroke-linejoin="round" />
<path d="M351.117 840.855 L162.884 405.651 Z" stroke-width="5" stroke="#5fb49c" fill="none" stroke-linejoin="round" />
<path d="M336.845 832.176 L157.291 421.39 Z" stroke-width="5" stroke="#5fb49c" fill="none" stroke-linejoin="round" />
<path d="M322.574 823.498 L151.697 437.128 Z" stroke-width="5" stroke="#5fb49c" fill="none" stroke-linejoin="round" />
<path d="M308.303 814.819 L151.697 437.128 Z" stroke-width="5" stroke="#5fb49c" fill="none" stroke-linejoin="round" />
<path d="M294.031 806.14 L150.557 453.792 Z" stroke-width="5" stroke="#5fb49c" fill="none" stroke-linejoin="round" />
<path d="M279.76 797.462 L149.417 470.457 Z" stroke-width="5" stroke="#5fb49c" fill="none" stroke-linejoin="round" />
<path d="M279.76 797.462 L148.277 487.121 Z" stroke-width="5" stroke="#5fb49c" fill="none" stroke-linejoin="round" />
<path d="M268.359 785.255 L147.138 503.785 Z" stroke-width="5" stroke="#5fb49c" fill="none" stroke-linejoin="round" />
<path d="M256.958 773.047 L145.998 520.449 Z" stroke-width="5" stroke="#5fb49c" fill="none" stroke-linejoin="round" />
<path d="M245.557 760.84 L144.858 537.113 Z" stroke-width="5" stroke="#5fb49c" fill="none" stroke-linejoin="round" />
<path d="M234.157 748.633 L144.858 537.113 Z" stroke-width="5" stroke="#5fb49c" fill="none" stroke-linejoin="round" />
<path d="M222.756 736.426 L148.256 553.467 Z" stroke-width="5" stroke="#5fb49c" fill="none" stroke-linejoin="round" />
<path d="M211.355 724.218 L151.655 569.821 Z" stroke-width="5" stroke="#5fb49c" fill="none" stroke-linejoin="round" />
<path d="M211.355 724.218 L155.053 586.174 Z" stroke-width="5" stroke="#5fb49c" fill="none" stroke-linejoin="round" />
<path d="M203.671 709.388 L158.451 602.528 Z" stroke-width="5" stroke="#5fb49c" fill="none" stroke-linejoin="round" />
<path d="M195.986 694.557 L161.85 618.882 Z" stroke-width="5" stroke="#5fb49c" fill="none" stroke-linejoin="round" />
<path d="M188.302 679.727 L165.248 635.236 Z" stroke-width="5" stroke="#5fb49c" fill="none" stroke-linejoin="round" />
<path d="M180.617 664.897 L165.248 635.236 Z" stroke-width="5" stroke="#5fb49c" fill="none" stroke-linejoin="round" />
<path d="M172.932 650.066 L172.932 650.066 Z" stroke-width="5" stroke="#5fb49c" fill="none" stroke-linejoin="round" />
<path d="M165.248 635.236 L180.617 664.897 Z" stroke-width="5" stroke="#5fb49c" fill="none" stroke-linejoin="round" />
<path d="M165.248 635.236 L188.302 679.727 Z" stroke-width="5" stroke="#5fb49c" fill="none" stroke-linejoin="round" />
<path d="M161.85 618.882 L195.986 694.557 Z" stroke-width="5" stroke="#5fb49c" fill="none" stroke-linejoin="round" />
<path d="M158.451 602.528 L203.671 709.388 Z" stroke-width="5" stroke="#5fb49c" fill="none" stroke-linejoin="round" />
<path d="M155.053 586.174 L211.355 724.218 Z" stroke-width="5" stroke="#5fb49c" fill="none" stroke-linejoin="round" />
<path d="M151.655 569.821 L211.355 724.218 Z" stroke-width="5" stroke="#5fb49c" fill="none" stroke-linejoin="round" />
<path d="M148.256 553.467 L222.756 736.426 Z" stroke-width="5" stroke="#5fb49c" fill="none" stroke-linejoin="round" />
<path d="M144.858 537.113 L234.157 748.633 Z" stroke-width="5" stroke="#5fb49c" fill="none" stroke-linejoin="round" />
<path d="M144.858 537.113 L245.557 760.84 Z" stroke-width="5" stroke="#5fb49c" fill="none" stroke-linejoin="round" />
<path d="M145.998 520.449 L256.958 773.047 Z" stroke-width="5" stroke="#5fb49c" fill="none" stroke-linejoin="round" />
<path d="M147.138 503.785 L268.359 785.255 Z" stroke-width="5" stroke="#5fb49c" fill="none" stroke-linejoin="round" />
<path d="M148.277 487.121 L279.76 797.462 Z" stroke-width="5" stroke="#5fb49c" fill="none" stroke-linejoin="round" />
<path d="M149.417 470.457 L279.76 797.462 Z" stroke-width="5" stroke="#5fb49c" fill="none" stroke-linejoin="round" />
<path d="M150.557 453.792 L294.031 806.14 Z" stroke-width="5" stroke="#5fb49c" fill="none" stroke-linejoin="round" />
<path d="M151.697 437.128 L308.303 814.819 Z" stroke-width="5" stroke="#5fb49c" fill="none" stroke-linejoin="round" />
<path d="M151.697 437.128 L322.574 823.498 Z" stroke-width="5" stroke="#5fb49c" fill="none" stroke-linejoin="round" />
<path d="M157.291 421.39 L336.845 832.176 Z" stroke-width="5" stroke="#5fb49c" fill="none" stroke-linejoin="round" />
<path d="M162.884 405.651 L351.117 840.855 Z" stroke-width="5" stroke="#5fb49c" fill="none" stroke-linejoin="round" />
<path d="M168.478 389.912 L365.388 849.534 Z" stroke-width="5" stroke="#5fb49c" fill="none" stroke-linejoin="round" />
<path d="M174.071 374.173 L365.388 849.534 Z" stroke-width="5" stroke="#5fb49c" fill="none" stroke-linejoin="round" />
<path d="M179.665 358.435 L381.472 854.04 Z" stroke-width="5" stroke="#5fb49c" fill="none" stroke-linejoin="round" />
<path d="M185.258 342.696 L397.556 858.547 Z" stroke-width="5" stroke="#5fb49c" fill="none" stroke-linejoin="round" />
<path d="M185.258 342.696 L413.64 863.053 Z" stroke-width="5" stroke="#5fb49c" fill="none" stroke-linejoin="round" />
<path d="M194.891 329.05 L429.723 867.56 Z" stroke-width="5" stroke="#5fb49c" fill="none" stroke-linejoin="round" />
<path d="M204.523 315.404 L445.807 872.066 Z" stroke-width="5" stroke="#5fb49c" fill="none" stroke-linejoin="round" />
<path d="M214.155 301.758 L461.891 876.572 Z" stroke-width="5" stroke="#5fb49c" fill="none" stroke-linejoin="round" />
<path d="M223.788 288.112 L461.891 876.572 Z" stroke-width="5" stroke="#5fb49c" fill="none" stroke-linejoin="round" />
<path d="M233.42 274.466 L478.594 876.572 Z" stroke-width="5" stroke="#5fb49c" fill="none" stroke-linejoin="round" />
<path d="M243.052 260.82 L495.297 876.572 Z" stroke-width="5" stroke="#5fb49c" fill="none" stroke-linejoin="round" />
<path d="M243.052 260.82 L512.0 876.572 Z" stroke-width="5" stroke="#5fb49c" fill="none" stroke-linejoin="round" />
<path d="M256.009 250.279 L528.703 876.572 Z" stroke-width="5" stroke="#5fb49c" fill="none" stroke-linejoin="round" />
<path d="M268.966 239.738 L545.406 876.572 Z" stroke-width="5" stroke="#5fb49c" fill="none" stroke-linejoin="round" />
<path d="M281.923 229.197 L562.109 876.572 Z" stroke-width="5" stroke="#5fb49c" fill="none" stroke-linejoin="round" />
<path d="M294.88 218.656 L562.109 876.572 Z" stroke-width="5" stroke="#5fb49c" fill="none" stroke-linejoin="round" />
<path d="M307.836 208.115 L578.193 872.066 Z" stroke-width="5" stroke="#5fb49c" fill="none" stroke-linejoin="round" />
<path d="M320.793 197.574 L594.277 867.56 Z" stroke-width="5" stroke="#5fb49c" fill="none" stroke-linejoin="round" />
<path d="M320.793 197.574 L610.36 863.053 Z" stroke-width="5" stroke="#5fb49c" fill="none" stroke-linejoin="round" />
<path d="M336.113 190.919 L626.444 858.547 Z" stroke-width="5" stroke="#5fb49c" fill="none" stroke-linejoin="round" />
<path d="M351.434 184.265 L642.528 854.04 Z" stroke-width="5" stroke="#5fb49c" fill="none" stroke-linejoin="round" />
<path d="M366.754 177.61 L658.612 849.534 Z" stroke-width="5" stroke="#5fb49c" fill="none" stroke-linejoin="round" />
<path d="M382.074 170.956 L658.612 849.534 Z" stroke-width="5" stroke="#5fb49c" fill="none" stroke-linejoin="round" />
<path d="M397.395 164.301 L672.883 840.855 Z" stroke-width="5" stroke="#5fb49c" fill="none" stroke-linejoin="round" />
<path d="M412.715 157.646 L687.155 832.176 Z" stroke-width="5" stroke="#5fb49c" fill="none" stroke-linejoin="round" />
<path d="M412.715 157.646 L701.426 823.498 Z" stroke-width="5" stroke="#5fb49c" fill="none" stroke-linejoin="round" />
<path d="M429.262 155.372 L715.697 814.819 Z" stroke-width="5" stroke="#5fb49c" fill="none" stroke-linejoin="round" />
<path d="M445.81 153.098 L729.969 806.14 Z" stroke-width="5" stroke="#5fb49c" fill="none" stroke-linejoin="round" />
<path d="M462.357 150.823 L744.24 797.462 Z" stroke-width="5" stroke="#5fb49c" fill="none" stroke-linejoin="round" />
<path d="M478.905 148.549 L744.24 797.462 Z" stroke-width="5" stroke="#5fb49c" fill="none" stroke-linejoin="round" />
<path d="M495.452 146.274 L755.641 785.255 Z" stroke-width="5" stroke="#5fb49c" fill="none" stroke-linejoin="round" />
<path d="M512.0 144.0 L767.042 773.047 Z" stroke-width="5" stroke="#5fb49c" fill="none" stroke-linejoin="round" />
<path d="M512.0 144.0 L778.443 760.84 Z" stroke-width="5" stroke="#5fb49c" fill="none" stroke-linejoin="round" />
<path d="M528.548 146.274 L789.843 748.633 Z" stroke-width="5" stroke="#5fb49c" fill="none" stroke-linejoin="round" />
<path d="M545.095 148.549 L801.244 736.426 Z" stroke-width="5" stroke="#5fb49c" fill="none" stroke-linejoin="round" />
<path d="M561.643 150.823 L812.645 724.218 Z" stroke-width="5" stroke="#5fb49c" fill="none" stroke-linejoin="round" />
<path d="M578.19 153.098 L812.645 724.218 Z" stroke-width="5" stroke="#5fb49c" fill="none" stroke-linejoin="round" />
<path d="M594.738 155.372 L820.329 709.388 Z" stroke-width="5" stroke="#5fb49c" fill="none" stroke-linejoin="round" />
<path d="M611.285 157.646 L828.014 694.557 Z" stroke-width="5" stroke="#5fb49c" fill="none" stroke-linejoin="round" />
<path d="M611.285 157.646 L835.698 679.727 Z" stroke-width="5" stroke="#5fb49c" fill="none" stroke-linejoin="round" />
<path d="M626.605 164.301 L843.383 664.897 Z" stroke-width="5" stroke="#5fb49c" fill="none" stroke-linejoin="round" />
<path d="M641.926 170.956 L851.068 650.066 Z" stroke-width="5" stroke="#5fb49c" fill="none" stroke-linejoin="round" />
<path d="M657.246 177.61 L858.752 635.236 Z" stroke-width="5" stroke="#5fb49c" fill="none" stroke-linejoin="round" />
<path d="M672.566 184.265 L858.752 635.236 Z" stroke-width="5" stroke="#5fb49c" fill="none" stroke-linejoin="round" />
<path d="M687.887 190.919 L862.15 618.882 Z" stroke-width="5" stroke="#5fb49c" fill="none" stroke-linejoin="round" />
<path d="M703.207 197.574 L865.549 602.528 Z" stroke-width="5" stroke="#5fb49c" fill="none" stroke-linejoin="round" />
<path d="M703.207 197.574 L868.947 586.174 Z" stroke-width="5" stroke="#5fb49c" fill="none" stroke-linejoin="round" />
<path d="M716.164 208.115 L872.345 569.821 Z" stroke-width="5" stroke="#5fb49c" fill="none" stroke-linejoin="round" />
<path d="M729.12 218.656 L875.744 553.467 Z" stroke-width="5" stroke="#5fb49c" fill="none" stroke-linejoin="round" />
<path d="M742.077 229.197 L879.142 537.113 Z" stroke-width="5" stroke="#5fb49c" fill="none" stroke-linejoin="round" />
<path d="M755.034 239.738 L879.142 537.113 Z" stroke-width="5" stroke="#5fb49c" fill="none" stroke-linejoin="round" />
<path d="M767.991 250.279 L878.002 520.449 Z" stroke-width="5" stroke="#5fb49c" fill="none" stroke-linejoin="round" />
<path d="M780.948 260.82 L876.862 503.785 Z" stroke-width="5" stroke="#5fb49c" fill="none" stroke-linejoin="round" />
<path d="M780.948 260.82 L875.723 487.121 Z" stroke-width="5" stroke="#5fb49c" fill="none" stroke-linejoin="round" />
<path d="M790.58 274.466 L874.583 470.457 Z" stroke-width="5" stroke="#5fb49c" fill="none" stroke-linejoin="round" />
<path d="M800.212 288.112 L873.443 453.792 Z" stroke-width="5" stroke="#5fb49c" fill="none" stroke-linejoin="round" />
<path d="M809.845 301.758 L872.303 437.128 Z" stroke-width="5" stroke="#5fb49c" fill="none" stroke-linejoin="round" />
<path d="M819.477 315.404 L872.303 437.128 Z" stroke-width="5" stroke="#5fb49c" fill="none" stroke-linejoin="round" />
<path d="M829.109 329.05 L866.709 421.39 Z" stroke-width="5" stroke="#5fb49c" fill="none" stroke-linejoin="round" />
<path d="M838.742 342.696 L861.116 405.651 Z" stroke-width="5" stroke="#5fb49c" fill="none" stroke-linejoin="round" />
<path d="M838.742 342.696 L855.522 389.912 Z" stroke-width="5" stroke="#5fb49c" fill="none" stroke-linejoin="round" />
<path d="M844.335 358.435 L849.929 374.173 Z" stroke-width="5" stroke="#5fb49c" fill="none" stroke-linejoin="round" />
<path d="M849.929 374.173 L844.335 358.435 Z" stroke-width="5" stroke="#5fb49c" fill="none" stroke-linejoin="round" />
<path d="M855.522 389.912 L838.742 342.696 Z" stroke-width="5" stroke="#5fb49c" fill="none" stroke-linejoin="round" />
<path d="M861.116 405.651 L838.742 342.696 Z" stroke-width="5" stroke="#5fb49c" fill="none" stroke-linejoin="round" />
<path d="M866.709 421.39 L829.109 329.05 Z" stroke-width="5" stroke="#5fb49c" fill="none" stroke-linejoin="round" />
<path d="M872.303 437.128 L819.477 315.404 Z" stroke-width="5" stroke="#5fb49c" fill="none" stroke-linejoin="round" />
<path d="M872.303 437.128 L809.845 301.758 Z" stroke-width="5" stroke="#5fb49c" fill="none" stroke-linejoin="round" />
<path d="M873.443 453.792 L800.212 288.112 Z" stroke-width="5" stroke="#5fb49c" fill="none" stroke-linejoin="round" />
<path d="M874.583 470.457 L790.58 274.466 Z" stroke-width="5" stroke="#5fb49c" fill="none" stroke-linejoin="round" />
<path d="M875.723 487.121 L780.948 260.82 Z" stroke-width="5" stroke="#5fb49c" fill="none" stroke-linejoin="round" />
<path d="M876.862 503.785 L780.948 260.82 Z" stroke-width="5" stroke="#5fb49c" fill="none" stroke-linejoin="round" />
<path d="M878.002 520.449 L767.991 250.279 Z" stroke-width="5" stroke="#5fb49c" fill="none" stroke-linejoin="round" />
<path d="M879.142 537.113 L755.034 239.738 Z" stroke-width="5" stroke="#5fb49c" fill="none" stroke-linejoin="round" />
<path d="M879.142 537.113 L742.077 229.197 Z" stroke-width="5" stroke="#5fb49c" fill="none" stroke-linejoin="round" />
<path d="M875.744 553.467 L729.12 218.656 Z" stroke-width="5" stroke="#5fb49c" fill="none" stroke-linejoin="round" />
<path d="M872.345 569.821 L716.164 208.115 Z" stroke-width="5" stroke="#5fb49c" fill="none" stroke-linejoin="round" />
<path d="M868.947 586.174 L703.207 197.574 Z" stroke-width="5" stroke="#5fb49c" fill="none" stroke-linejoin="round" />
<path d="M865.549 602.528 L703.207 197.574 Z" stroke-width="5" stroke="#5fb49c" fill="none" stroke-linejoin="round" />
<path d="M862.15 618.882 L687.887 190.919 Z" stroke-width="5" stroke="#5fb49c" fill="none" stroke-linejoin="round" />
<path d="M858.752 635.236 L672.566 184.265 Z" stroke-width="5" stroke="#5fb49c" fill="none" stroke-linejoin="round" />
<path d="M858.752 635.236 L657.246 177.61 Z" stroke-width="5" stroke="#5fb49c" fill="none" stroke-linejoin="round" />
<path d="M851.068 650.066 L641.926 170.956 Z" stroke-width="5" stroke="#5fb49c" fill="none" stroke-linejoin="round" />
<path d="M843.383 664.897 L626.605 164.301 Z" stroke-width="5" stroke="#5fb49c" fill="none" stroke-linejoin="round" />
<path d="M835.698 679.727 L611.285 157.646 Z" stroke-width="5" stroke="#5fb49c" fill="none" stroke-linejoin="round" />
<path d="M828.014 694.557 L611.285 157.646 Z" stroke-width="5" stroke="#5fb49c" fill="none" stroke-linejoin="round" />
<path d="M820.329 709.388 L594.738 155.372 Z" stroke-width="5" stroke="#5fb49c" fill="none" stroke-linejoin="round" />
<path d="M812.645 724.218 L578.19 153.098 Z" stroke-width="5" stroke="#5fb49c" fill="none" stroke-linejoin="round" />
<path d="M812.645 724.218 L561.643 150.823 Z" stroke-width="5" stroke="#5fb49c" fill="none" stroke-linejoin="round" />
<path d="M801.244 736.426 L545.095 148.549 Z" stroke-width="5" stroke="#5fb49c" fill="none" stroke-linejoin="round" />
<path d="M789.843 748.633 L528.548 146.274 Z" stroke-width="5" stroke="#5fb49c" fill="none" stroke-linejoin="round" />
<path d="M778.443 760.84 L512.0 144.0 Z" stroke-width="5" stroke="#5fb49c" fill="none" stroke-linejoin="round" />
<path d="M767.042 773.047 L512.0 144.0 Z" stroke-width="5" stroke="#5fb49c" fill="none" stroke-linejoin="round" />
<path d="M755.641 785.255 L495.452 146.274 Z" stroke-width="5" stroke="#5fb49c" fill="none" stroke-linejoin="round" />
<path d="M744.24 797.462 L478.905 148.549 Z" stroke-width="5" stroke="#5fb49c" fill="none" stroke-linejoin="round" />
<path d="M744.24 797.462 L462.357 150.823 Z" stroke-width="5" stroke="#5fb49c" fill="none" stroke-linejoin="round" />
<path d="M729.969 806.14 L445.81 153.098 Z" stroke-width="5" stroke="#5fb49c" fill="none" stroke-linejoin="round" />
<path d="M715.697 814.819 L429.262 155.372 Z" stroke-width="5" stroke="#5fb49c" fill="none" stroke-linejoin="round" />
<path d="M701.426 823.498 L412.715 157.646 Z" stroke-width="5" stroke="#5fb49c" fill="none" stroke-linejoin="round" />
<path d="M687.155 832.176 L412.715 157.646 Z" stroke-width="5" stroke="#5fb49c" fill="none" stroke-linejoin="round" />
<path d="M672.883 840.855 L397.395 164.301 Z" stroke-width="5" stroke="#5fb49c" fill="none" stroke-linejoin="round" />
<path d="M658.612 849.534 L382.074 170.956 Z" stroke-width="5" stroke="#5fb49c" fill="none" stroke-linejoin="round" />
<path d="M454.02 873.479 L536.813 147.89 Z" stroke-width="3" stroke="#414288" fill="none" stroke-linejoin="round" />
<path d="M437.838 869.34 L520.218 145.992 Z" stroke-width="3" stroke="#414288" fill="none" stroke-linejoin="round" />
<path d="M421.656 865.201 L688.698 189.197 Z" stroke-width="3" stroke="#414288" fill="none" stroke-linejoin="round" />
<path d="M405.474 861.062 L688.698 189.197 Z" stroke-width="3" stroke="#414288" fill="none" stroke-linejoin="round" />
<path d="M389.292 856.923 L487.132 146.746 Z" stroke-width="3" stroke="#414288" fill="none" stroke-linejoin="round" />
<path d="M221.326 737.682 L470.64 149.396 Z" stroke-width="3" stroke="#414288" fill="none" stroke-linejoin="round" />
<path d="M221.326 737.682 L454.149 152.047 Z" stroke-width="3" stroke="#414288" fill="none" stroke-linejoin="round" />
<path d="M358.644 844.432 L437.657 154.697 Z" stroke-width="3" stroke="#414288" fill="none" stroke-linejoin="round" />
<path d="M344.179 836.081 L421.166 157.348 Z" stroke-width="3" stroke="#414288" fill="none" stroke-linejoin="round" />
<path d="M329.714 827.729 L595.054 153.495 Z" stroke-width="3" stroke="#414288" fill="none" stroke-linejoin="round" />
<path d="M315.248 819.377 L595.054 153.495 Z" stroke-width="3" stroke="#414288" fill="none" stroke-linejoin="round" />
<path d="M300.783 811.026 L389.509 167.0 Z" stroke-width="3" stroke="#414288" fill="none" stroke-linejoin="round" />
<path d="M171.216 650.89 L374.345 174.001 Z" stroke-width="3" stroke="#414288" fill="none" stroke-linejoin="round" />
<path d="M171.216 650.89 L359.18 181.003 Z" stroke-width="3" stroke="#414288" fill="none" stroke-linejoin="round" />
<path d="M274.642 790.73 L344.015 188.005 Z" stroke-width="3" stroke="#414288" fill="none" stroke-linejoin="round" />
<path d="M262.966 778.785 L328.85 195.006 Z" stroke-width="3" stroke="#414288" fill="none" stroke-linejoin="round" />
<path d="M251.291 766.841 L495.251 144.381 Z" stroke-width="3" stroke="#414288" fill="none" stroke-linejoin="round" />
<path d="M239.615 754.896 L495.251 144.381 Z" stroke-width="3" stroke="#414288" fill="none" stroke-linejoin="round" />
<path d="M227.939 742.952 L300.972 212.841 Z" stroke-width="3" stroke="#414288" fill="none" stroke-linejoin="round" />
<path d="M146.381 553.798 L288.258 223.674 Z" stroke-width="3" stroke="#414288" fill="none" stroke-linejoin="round" />
<path d="M146.381 553.798 L275.545 234.508 Z" stroke-width="3" stroke="#414288" fill="none" stroke-linejoin="round" />
<path d="M208.244 716.355 L262.831 245.341 Z" stroke-width="3" stroke="#414288" fill="none" stroke-linejoin="round" />
<path d="M200.224 701.704 L250.118 256.174 Z" stroke-width="3" stroke="#414288" fill="none" stroke-linejoin="round" />
<path d="M192.203 687.052 L396.689 162.533 Z" stroke-width="3" stroke="#414288" fill="none" stroke-linejoin="round" />
<path d="M184.183 672.4 L396.689 162.533 Z" stroke-width="3" stroke="#414288" fill="none" stroke-linejoin="round" />
<path d="M176.163 657.749 L228.085 280.869 Z" stroke-width="3" stroke="#414288" fill="none" stroke-linejoin="round" />
<path d="M148.663 453.605 L218.766 294.731 Z" stroke-width="3" stroke="#414288" fill="none" stroke-linejoin="round" />
<path d="M148.663 453.605 L209.447 308.593 Z" stroke-width="3" stroke="#414288" fill="none" stroke-linejoin="round" />
<path d="M164.373 626.825 L200.127 322.454 Z" stroke-width="3" stroke="#414288" fill="none" stroke-linejoin="round" />
<path d="M160.604 610.553 L190.808 336.316 Z" stroke-width="3" stroke="#414288" fill="none" stroke-linejoin="round" />
<path d="M156.834 594.28 L306.68 206.602 Z" stroke-width="3" stroke="#414288" fill="none" stroke-linejoin="round" />
<path d="M153.064 578.008 L306.68 206.602 Z" stroke-width="3" stroke="#414288" fill="none" stroke-linejoin="round" />
<path d="M149.294 561.736 L176.255 366.04 Z" stroke-width="3" stroke="#414288" fill="none" stroke-linejoin="round" />
<path d="M177.891 357.743 L171.021 381.901 Z" stroke-width="3" stroke="#414288" fill="none" stroke-linejoin="round" />
<path d="M177.891 357.743 L165.788 397.763 Z" stroke-width="3" stroke="#414288" fill="none" stroke-linejoin="round" />
<path d="M146.285 528.778 L160.554 413.625 Z" stroke-width="3" stroke="#414288" fill="none" stroke-linejoin="round" />
<path d="M147.045 512.092 L155.32 429.487 Z" stroke-width="3" stroke="#414288" fill="none" stroke-linejoin="round" />
<path d="M147.805 495.407 L231.899 273.322 Z" stroke-width="3" stroke="#414288" fill="none" stroke-linejoin="round" />
<path d="M148.566 478.721 L231.899 273.322 Z" stroke-width="3" stroke="#414288" fill="none" stroke-linejoin="round" />
<path d="M149.326 462.035 L149.326 462.035 Z" stroke-width="3" stroke="#414288" fill="none" stroke-linejoin="round" />
<path d="M231.899 273.322 L148.566 478.721 Z" stroke-width="3" stroke="#414288" fill="none" stroke-linejoin="round" />
<path d="M231.899 273.322 L147.805 495.407 Z" stroke-width="3" stroke="#414288" fill="none" stroke-linejoin="round" />
<path d="M155.32 429.487 L147.045 512.092 Z" stroke-width="3" stroke="#414288" fill="none" stroke-linejoin="round" />
<path d="M160.554 413.625 L146.285 528.778 Z" stroke-width="3" stroke="#414288" fill="none" stroke-linejoin="round" />
<path d="M165.788 397.763 L177.891 357.743 Z" stroke-width="3" stroke="#414288" fill="none" stroke-linejoin="round" />
<path d="M171.021 381.901 L177.891 357.743 Z" stroke-width="3" stroke="#414288" fill="none" stroke-linejoin="round" />
<path d="M176.255 366.04 L149.294 561.736 Z" stroke-width="3" stroke="#414288" fill="none" stroke-linejoin="round" />
<path d="M306.68 206.602 L153.064 578.008 Z" stroke-width="3" stroke="#414288" fill="none" stroke-linejoin="round" />
<path d="M306.68 206.602 L156.834 594.28 Z" stroke-width="3" stroke="#414288" fill="none" stroke-linejoin="round" />
<path d="M190.808 336.316 L160.604 610.553 Z" stroke-width="3" stroke="#414288" fill="none" stroke-linejoin="round" />
<path d="M200.127 322.454 L164.373 626.825 Z" stroke-width="3" stroke="#414288" fill="none" stroke-linejoin="round" />
<path d="M209.447 308.593 L148.663 453.605 Z" stroke-width="3" stroke="#414288" fill="none" stroke-linejoin="round" />
<path d="M218.766 294.731 L148.663 453.605 Z" stroke-width="3" stroke="#414288" fill="none" stroke-linejoin="round" />
<path d="M228.085 280.869 L176.163 657.749 Z" stroke-width="3" stroke="#414288" fill="none" stroke-linejoin="round" />
<path d="M396.689 162.533 L184.183 672.4 Z" stroke-width="3" stroke="#414288" fill="none" stroke-linejoin="round" />
<path d="M396.689 162.533 L192.203 687.052 Z" stroke-width="3" stroke="#414288" fill="none" stroke-linejoin="round" />
<path d="M250.118 256.174 L200.224 701.704 Z" stroke-width="3" stroke="#414288" fill="none" stroke-linejoin="round" />
<path d="M262.831 245.341 L208.244 716.355 Z" stroke-width="3" stroke="#414288" fill="none" stroke-linejoin="round" />
<path d="M275.545 234.508 L146.381 553.798 Z" stroke-width="3" stroke="#414288" fill="none" stroke-linejoin="round" />
<path d="M288.258 223.674 L146.381 553.798 Z" stroke-width="3" stroke="#414288" fill="none" stroke-linejoin="round" />
<path d="M300.972 212.841 L227.939 742.952 Z" stroke-width="3" stroke="#414288" fill="none" stroke-linejoin="round" />
<path d="M495.251 144.381 L239.615 754.896 Z" stroke-width="3" stroke="#414288" fill="none" stroke-linejoin="round" />
<path d="M495.251 144.381 L251.291 766.841 Z" stroke-width="3" stroke="#414288" fill="none" stroke-linejoin="round" />
<path d="M328.85 195.006 L262.966 778.785 Z" stroke-width="3" stroke="#414288" fill="none" stroke-linejoin="round" />
<path d="M344.015 188.005 L274.642 790.73 Z" stroke-width="3" stroke="#414288" fill="none" stroke-linejoin="round" />
<path d="M359.18 181.003 L171.216 650.89 Z" stroke-width="3" stroke="#414288" fill="none" stroke-linejoin="round" />
<path d="M374.345 174.001 L171.216 650.89 Z" stroke-width="3" stroke="#414288" fill="none" stroke-linejoin="round" />
<path d="M389.509 167.0 L300.783 811.026 Z" stroke-width="3" stroke="#414288" fill="none" stroke-linejoin="round" />
<path d="M595.054 153.495 L315.248 819.377 Z" stroke-width="3" stroke="#414288" fill="none" stroke-linejoin="round" />
<path d="M595.054 153.495 L329.714 827.729 Z" stroke-width="3" stroke="#414288" fill="none" stroke-linejoin="round" />
<path d="M421.166 157.348 L344.179 836.081 Z" stroke-width="3" stroke="#414288" fill="none" stroke-linejoin="round" />
<path d="M437.657 154.697 L358.644 844.432 Z" stroke-width="3" stroke="#414288" fill="none" stroke-linejoin="round" />
<path d="M454.149 152.047 L221.326 737.682 Z" stroke-width="3" stroke="#414288" fill="none" stroke-linejoin="round" />
<path d="M470.64 149.396 L221.326 737.682 Z" stroke-width="3" stroke="#414288" fill="none" stroke-linejoin="round" />
<path d="M487.132 146.746 L389.292 856.923 Z" stroke-width="3" stroke="#414288" fill="none" stroke-linejoin="round" />
<path d="M688.698 189.197 L405.474 861.062 Z" stroke-width="3" stroke="#414288" fill="none" stroke-linejoin="round" />
<path d="M688.698 189.197 L421.656 865.201 Z" stroke-width="3" stroke="#414288" fill="none" stroke-linejoin="round" />
<path d="M520.218 145.992 L437.838 869.34 Z" stroke-width="3" stroke="#414288" fill="none" stroke-linejoin="round" />
<path d="M536.813 147.89 L454.02 873.479 Z" stroke-width="3" stroke="#414288" fill="none" stroke-linejoin="round" />
<path d="M553.408 149.787 L292.993 807.736 Z" stroke-width="3" stroke="#414288" fill="none" stroke-linejoin="round" />
<path d="M570.003 151.684 L292.993 807.736 Z" stroke-width="3" stroke="#414288" fill="none" stroke-linejoin="round" />
<path d="M586.598 153.581 L486.901 877.238 Z" stroke-width="3" stroke="#414288" fill="none" stroke-linejoin="round" />
<path d="M769.237 248.84 L503.6 876.858 Z" stroke-width="3" stroke="#414288" fill="none" stroke-linejoin="round" />
<path d="M769.237 248.84 L520.299 876.478 Z" stroke-width="3" stroke="#414288" fill="none" stroke-linejoin="round" />
<path d="M618.661 161.782 L536.998 876.098 Z" stroke-width="3" stroke="#414288" fill="none" stroke-linejoin="round" />
<path d="M634.129 168.086 L553.696 875.718 Z" stroke-width="3" stroke="#414288" fill="none" stroke-linejoin="round" />
<path d="M649.597 174.39 L380.903 855.857 Z" stroke-width="3" stroke="#414288" fill="none" stroke-linejoin="round" />
<path d="M665.064 180.695 L380.903 855.857 Z" stroke-width="3" stroke="#414288" fill="none" stroke-linejoin="round" />
<path d="M680.532 186.999 L586.372 870.466 Z" stroke-width="3" stroke="#414288" fill="none" stroke-linejoin="round" />
<path d="M830.697 328.0 L602.349 865.595 Z" stroke-width="3" stroke="#414288" fill="none" stroke-linejoin="round" />
<path d="M830.697 328.0 L618.326 860.723 Z" stroke-width="3" stroke="#414288" fill="none" stroke-linejoin="round" />
<path d="M709.193 203.546 L634.303 855.852 Z" stroke-width="3" stroke="#414288" fill="none" stroke-linejoin="round" />
<path d="M722.387 213.79 L650.28 850.98 Z" stroke-width="3" stroke="#414288" fill="none" stroke-linejoin="round" />
<path d="M735.58 224.033 L478.536 878.475 Z" stroke-width="3" stroke="#414288" fill="none" stroke-linejoin="round" />
<path d="M748.774 234.276 L478.536 878.475 Z" stroke-width="3" stroke="#414288" fill="none" stroke-linejoin="round" />
<path d="M761.967 244.52 L680.327 837.108 Z" stroke-width="3" stroke="#414288" fill="none" stroke-linejoin="round" />
<path d="M868.522 420.807 L694.397 828.106 Z" stroke-width="3" stroke="#414288" fill="none" stroke-linejoin="round" />
<path d="M868.522 420.807 L708.468 819.105 Z" stroke-width="3" stroke="#414288" fill="none" stroke-linejoin="round" />
<path d="M785.101 268.187 L722.538 810.104 Z" stroke-width="3" stroke="#414288" fill="none" stroke-linejoin="round" />
<path d="M795.041 281.61 L736.608 801.103 Z" stroke-width="3" stroke="#414288" fill="none" stroke-linejoin="round" />
<path d="M804.982 295.033 L578.651 873.914 Z" stroke-width="3" stroke="#414288" fill="none" stroke-linejoin="round" />
<path d="M814.922 308.456 L578.651 873.914 Z" stroke-width="3" stroke="#414288" fill="none" stroke-linejoin="round" />
<path d="M824.863 321.879 L761.798 779.638 Z" stroke-width="3" stroke="#414288" fill="none" stroke-linejoin="round" />
<path d="M879.905 520.377 L772.918 767.174 Z" stroke-width="3" stroke="#414288" fill="none" stroke-linejoin="round" />
<path d="M879.905 520.377 L784.038 754.71 Z" stroke-width="3" stroke="#414288" fill="none" stroke-linejoin="round" />
<path d="M840.754 350.91 L795.158 742.247 Z" stroke-width="3" stroke="#414288" fill="none" stroke-linejoin="round" />
<path d="M846.704 366.517 L806.278 729.783 Z" stroke-width="3" stroke="#414288" fill="none" stroke-linejoin="round" />
<path d="M852.654 382.124 L673.822 842.511 Z" stroke-width="3" stroke="#414288" fill="none" stroke-linejoin="round" />
<path d="M858.605 397.731 L673.822 842.511 Z" stroke-width="3" stroke="#414288" fill="none" stroke-linejoin="round" />
<path d="M864.555 413.339 L824.743 702.318 Z" stroke-width="3" stroke="#414288" fill="none" stroke-linejoin="round" />
<path d="M864.002 619.326 L832.088 687.317 Z" stroke-width="3" stroke="#414288" fill="none" stroke-linejoin="round" />
<path d="M864.002 619.326 L839.433 672.315 Z" stroke-width="3" stroke="#414288" fill="none" stroke-linejoin="round" />
<path d="M872.024 445.58 L846.778 657.314 Z" stroke-width="3" stroke="#414288" fill="none" stroke-linejoin="round" />
<path d="M873.543 462.214 L854.122 642.312 Z" stroke-width="3" stroke="#414288" fill="none" stroke-linejoin="round" />
<path d="M875.062 478.848 L756.992 786.596 Z" stroke-width="3" stroke="#414288" fill="none" stroke-linejoin="round" />
<path d="M876.581 495.482 L756.992 786.596 Z" stroke-width="3" stroke="#414288" fill="none" stroke-linejoin="round" />
<path d="M878.1 512.115 L864.493 610.884 Z" stroke-width="3" stroke="#414288" fill="none" stroke-linejoin="round" />
<path d="M821.992 710.315 L867.518 594.457 Z" stroke-width="3" stroke="#414288" fill="none" stroke-linejoin="round" />
<path d="M821.992 710.315 L870.543 578.03 Z" stroke-width="3" stroke="#414288" fill="none" stroke-linejoin="round" />
<path d="M876.593 545.176 L873.568 561.603 Z" stroke-width="3" stroke="#414288" fill="none" stroke-linejoin="round" />
<path d="M873.568 561.603 L876.593 545.176 Z" stroke-width="3" stroke="#414288" fill="none" stroke-linejoin="round" />
<path d="M870.543 578.03 L821.992 710.315 Z" stroke-width="3" stroke="#414288" fill="none" stroke-linejoin="round" />
<path d="M867.518 594.457 L821.992 710.315 Z" stroke-width="3" stroke="#414288" fill="none" stroke-linejoin="round" />
<path d="M864.493 610.884 L878.1 512.115 Z" stroke-width="3" stroke="#414288" fill="none" stroke-linejoin="round" />
<path d="M756.992 786.596 L876.581 495.482 Z" stroke-width="3" stroke="#414288" fill="none" stroke-linejoin="round" />
<path d="M756.992 786.596 L875.062 478.848 Z" stroke-width="3" stroke="#414288" fill="none" stroke-linejoin="round" />
<path d="M854.122 642.312 L873.543 462.214 Z" stroke-width="3" stroke="#414288" fill="none" stroke-linejoin="round" />
<path d="M846.778 657.314 L872.024 445.58 Z" stroke-width="3" stroke="#414288" fill="none" stroke-linejoin="round" />
<path d="M839.433 672.315 L864.002 619.326 Z" stroke-width="3" stroke="#414288" fill="none" stroke-linejoin="round" />
<path d="M832.088 687.317 L864.002 619.326 Z" stroke-width="3" stroke="#414288" fill="none" stroke-linejoin="round" />
<path d="M824.743 702.318 L864.555 413.339 Z" stroke-width="3" stroke="#414288" fill="none" stroke-linejoin="round" />
<path d="M673.822 842.511 L858.605 397.731 Z" stroke-width="3" stroke="#414288" fill="none" stroke-linejoin="round" />
<path d="M673.822 842.511 L852.654 382.124 Z" stroke-width="3" stroke="#414288" fill="none" stroke-linejoin="round" />
<path d="M806.278 729.783 L846.704 366.517 Z" stroke-width="3" stroke="#414288" fill="none" stroke-linejoin="round" />
<path d="M795.158 742.247 L840.754 350.91 Z" stroke-width="3" stroke="#414288" fill="none" stroke-linejoin="round" />
<path d="M784.038 754.71 L879.905 520.377 Z" stroke-width="3" stroke="#414288" fill="none" stroke-linejoin="round" />
<path d="M772.918 767.174 L879.905 520.377 Z" stroke-width="3" stroke="#414288" fill="none" stroke-linejoin="round" />
<path d="M761.798 779.638 L824.863 321.879 Z" stroke-width="3" stroke="#414288" fill="none" stroke-linejoin="round" />
<path d="M578.651 873.914 L814.922 308.456 Z" stroke-width="3" stroke="#414288" fill="none" stroke-linejoin="round" />
<path d="M578.651 873.914 L804.982 295.033 Z" stroke-width="3" stroke="#414288" fill="none" stroke-linejoin="round" />
<path d="M736.608 801.103 L795.041 281.61 Z" stroke-width="3" stroke="#414288" fill="none" stroke-linejoin="round" />
<path d="M722.538 810.104 L785.101 268.187 Z" stroke-width="3" stroke="#414288" fill="none" stroke-linejoin="round" />
<path d="M708.468 819.105 L868.522 420.807 Z" stroke-width="3" stroke="#414288" fill="none" stroke-linejoin="round" />
<path d="M694.397 828.106 L868.522 420.807 Z" stroke-width="3" stroke="#414288" fill="none" stroke-linejoin="round" />
<path d="M680.327 837.108 L761.967 244.52 Z" stroke-width="3" stroke="#414288" fill="none" stroke-linejoin="round" />
<path d="M478.536 878.475 L748.774 234.276 Z" stroke-width="3" stroke="#414288" fill="none" stroke-linejoin="round" />
<path d="M478.536 878.475 L735.58 224.033 Z" stroke-width="3" stroke="#414288" fill="none" stroke-linejoin="round" />
<path d="M650.28 850.98 L722.387 213.79 Z" stroke-width="3" stroke="#414288" fill="none" stroke-linejoin="round" />
<path d="M634.303 855.852 L709.193 203.546 Z" stroke-width="3" stroke="#414288" fill="none" stroke-linejoin="round" />
<path d="M618.326 860.723 L830.697 328.0 Z" stroke-width="3" stroke="#414288" fill="none" stroke-linejoin="round" />
<path d="M602.349 865.595 L830.697 328.0 Z" stroke-width="3" stroke="#414288" fill="none" stroke-linejoin="round" />
<path d="M586.372 870.466 L680.532 186.999 Z" stroke-width="3" stroke="#414288" fill="none" stroke-linejoin="round" />
<path d="M380.903 855.857 L665.064 180.695 Z" stroke-width="3" stroke="#414288" fill="none" stroke-linejoin="round" />
<path d="M380.903 855.857 L649.597 174.39 Z" stroke-width="3" stroke="#414288" fill="none" stroke-linejoin="round" />
<path d="M553.696 875.718 L634.129 168.086 Z" stroke-width="3" stroke="#414288" fill="none" stroke-linejoin="round" />
<path d="M536.998 876.098 L618.661 161.782 Z" stroke-width="3" stroke="#414288" fill="none" stroke-linejoin="round" />
<path d="M520.299 876.478 L769.237 248.84 Z" stroke-width="3" stroke="#414288" fill="none" stroke-linejoin="round" />
<path d="M503.6 876.858 L769.237 248.84 Z" stroke-width="3" stroke="#414288" fill="none" stroke-linejoin="round" />
<path d="M486.901 877.238 L586.598 153.581 Z" stroke-width="3" stroke="#414288" fill="none" stroke-linejoin="round" />
<path d="M292.993 807.736 L570.003 151.684 Z" stroke-width="3" stroke="#414288" fill="none" stroke-linejoin="round" />
</svg>