<svg width="1024" height="1024">
<rect width="100%" height="100%" fill="#98dfaf" />
<path d="M642.528 854.04 L351.434 184.265 Z" stroke-width="5" stroke="#5fb49c" fill="none" stroke-linejoin="round" />
<path d="M626.444 858.547 L336.113 190.919 Z" stroke-width="5" stroke="#5fb49c" fill="none" stroke-linejoin="round" />
<path d="M610.36 863.053 L320.793 197.574 Z" stroke-width="5" stroke="#5fb49c" fill="none" stroke-linejoin="round" />
<path d="M594.277 867.56 L320.793 197.574 Z" stroke-width="5" stroke="#5fb49c" fill="none" stroke-linejoin="round" />
<path d="M578.193 872.066 L307.836 208.115 Z" stroke-width="5" stroke="#5fb49c" fill="none" stroke-linejoin="round" />
<path d="M562.109 876.572 L294.88 218.656 Z" stroke-width="5" stroke="#5fb49c" fill="none" stroke-linejoin="round" />
<path d="M562.109 876.572 L281.923 229.197 Z" stroke-width="5" stroke="#5fb49c" fill="none" stroke-linejoin="round" />
<path d="M545.406 876.572 L268.966 239.738 Z" stroke-width="5" stroke="#5fb49c" fill="none" stroke-linejoin="round" />
<path d="M528.703 876.572 L256.009 250.279 Z" stroke-width="5" stroke="#5fb49c" fill="none" stroke-linejoin="round" />
<path d="M512.0 876.572 L243.052 260.82 Z" stroke-width="5" stroke="#5fb49c" fill="none" stroke-linejoin="round" />
<path d="M495.297 876.572 L243.052 260.82 Z" stroke-width="5" stroke="#5fb49c" fill="none" stroke-linejoin="round" />
<path d="M478.594 876.572 L233.42 274.466 Z" stroke-width="5" stroke="#5fb49c" fill="none" stroke-linejoin="round" />
<path d="M461.891 876.572 L223.788 288.112 Z" stroke-width="5" stroke="#5fb49c" fill="none" stroke-linejoin="round" />
<path d="M461.891 876.572 L214.155 301.758 Z" stroke-width="5" stroke="#5fb49c" fill="none" stroke-linejoin="round" />
<path d="M445.807 872.066 L204.523 315.404 Z" stroke-width="5" stroke="#5fb49c" fill="none" stroke-linejoin="round" />
<path d="M429.723 867.56 L194.891 329.05 Z" stroke-width="5" stroke="#5fb49c" fill="none" stroke-linejoin="round" />
<path d="M413.64 863.053 L185.258 342.696 Z" stroke-width="5" stroke="#5fb49c" fill="none" stroke-linejoin="round" />
<path d="M397.556 858.547 L185.258 342.696 Z" stroke-width="5" stroke="#5fb49c" fill="none" stroke-linejoin="round" />
<path d="M381.472 854.04 L179.665 358.435 Z" stroke-width="5" stroke="#5fb49c" fill="none" stroke-linejoin="round" />
<path d="M365.388 849.534 L174.071 374.173 Z" stroke-width="5" stroke="#5fb49c" fill="none" stroke-linejoin="round" />
<path d="M365.388 849.534 L168.478 389.912 Z" stroke-width="5" stroke="#5fb49c" fill="none" stroke-linejoin="round" />
<path d="M351.117 840.855 L162.884 405.651 Z" stroke-width="5" stroke="#5fb49c" fill="none" stroke-linejoin="round" />
<path d="M336.845 832.176 L157.291 421.39 Z" stroke-width="5" stroke="#5fb49c" fill="none" stroke-linejoin="round" />
<path d="M322.574 823.498 L151.697 437.128 Z" stroke-width="5" stroke="#5fb49c" fill="none" stroke-linejoin="round" />
<path d="M308.303 814.819 L151.697 437.128 Z" stroke-width="5" stroke="#5fb49c" fill="none" stroke-linejoin="round" />
<path d="M294.031 806.14 L150.557 453.792 Z" stroke-width="5" stroke="#5fb49c" fill="none" stroke-linejoin="round" />
<path d="M279.76 797.462 L149.417 470.457 Z" stroke-width="5" stroke="#5fb49c" fill="none" stroke-linejoin="round" />
<path d="M279.76 797.462 L148.277 487.121 Z" stroke-width="5" stroke="#5fb49c" fill="none" stroke-linejoin="round" />
<path d="M268.359 785.255 L147.138 503.785 Z" stroke-width="5" stroke="#5fb49c" fill="none" stroke-linejoin="round" />
<path d="M256.958 773.047 L145.998 520.449 Z" stroke-width="5" stroke="#5fb49c" fill="none" stroke-linejoin="round" />
<path d="M245.557 760.84 L144.858 537.113 Z" stroke-width="5" stroke="#5fb49c" fill="none" stroke-linejoin="round" />
<path d="M234.157 748.633 L144.858 537.113 Z" stroke-width="5" stroke="#5fb49c" fill="none" stroke-linejoin="round" />
<path d="M222.756 736.426 L148.256 553.467 Z" stroke-width="5" stroke="#5fb49c" fill="none" stroke-linejoin="round" />
<path d="M211.355 724.218 L151.655 569.821 Z" stroke-width="5" stroke="#5fb49c" fill="none" stroke-linejoin="round" />
<path d="M211.355 724.218 L155.053 586.174 Z" stroke-width="5" stroke="#5fb49c" fill="none" stroke-linejoin="round" />
<path d="M203.671 709.388 L158.451 602.528 Z" stroke-width="5" stroke="#5fb49c" fill="none" stroke-linejoin="round" />
<path d="M195.986 694.557 L161.85 618.882 Z" stroke-width="5" stroke="#5fb49c" fill="none" stroke-linejoin="round" />
<path d="M188.302 679.727 L165.248 635.236 Z" stroke-width="5" stroke="#5fb49c" fill="none" stroke-linejoin="round" />
<path d="M180.617 664.897 L165.248 635.236 Z" stroke-width="5" stroke="#5fb49c" fill="none" stroke-linejoin="round" />
<path d="M172.932 650.066 L172.932 650.066 Z" stroke-width="5" stroke="#5fb49c" fill="none" stroke-linejoin="round" />
<path d="M165.248 635.236 L180.617 664.897 Z" stroke-width="5" stroke="#5fb49c" fill="none" stroke-linejoin="round" />
<path d="M165.248 635.236 L188.302 679.727 Z" stroke-width="5" stroke="#5fb49c" fill="none" stroke-linejoin="round" />
<path d="M161.85 618.882 L195.986 694.557 Z" stroke-width="5" stroke="#5fb49c" fill="none" stroke-linejoin="round" />
<path d="M158.451 602.528 L203.671 709.388 Z" stroke-width="5" stroke="#5fb49c" fill="none" stroke-linejoin="round" />
<path d="M155.053 586.174 L211.355 724.218 Z" stroke-width="5" stroke="#5fb49c" fill="none" stroke-linejoin="round" />
<path d="M151.655 569.821 L211.355 724.218 Z" stroke-width="5" stroke="#5fb49c" fill="none" stroke-linejoin="round" />
<path d="M148.256 553.467 L222.756 736.426 Z" stroke-width="5" stroke="#5fb49c" fill="none" stroke-linejoin="round" />
<path d="M144.858 537.113 L234.157 748.633 Z" stroke-width="5" stroke="#5fb49c" fill="none" stroke-linejoin="round" />
<path d="M144.858 537.113 L245.557 760.84 Z" stroke-width="5" stroke="#5fb49c" fill="none" stroke-linejoin="round" />
<path d="M145.998 520.449 L256.958 773.047 Z" stroke-width="5" stroke="#5fb49c" fill="none" stroke-linejoin="round" />
<path d="M147.138 503.785 L268.359 785.255 Z" stroke-width="5" stroke="#5fb49c" fill="none" stroke-linejoin="round" />
<path d="M148.277 487.121 L279.76 797.462 Z" stroke-width="5" stroke="#5fb49c" fill="none" stroke-linejoin="round" />
<path d="M149.417 470.457 L279.76 797.462 Z" stroke-width="5" stroke="#5fb49c" fill="none" stroke-linejoin="round" />
<path d="M150.557 453.792 L294.031 806.14 Z" stroke-width="5" stroke="#5fb49c" fill="none" stroke-linejoin="round" />
<path d="M151.697 437.128 L308.303 814.819 Z" stroke-width="5" stroke="#5fb49c" fill="none" stroke-linejoin="round" />
<path d="M151.697 437.128 L322.574 823.498 Z" stroke-width="5" stroke="#5fb49c" fill="none" stroke-linejoin="round" />
<path d="M157.291 421.39 L336.845 832.176 Z" stroke-width="5" stroke="#5fb49c" fill="none" stroke-linejoin="round" />
<path d="M162.884 405.651 L351.117 840.855 Z" stroke-width="5" stroke="#5fb49c" fill="none" stroke-linejoin="round" />
<path d="M168.478 389.912 L365.388 849.534 Z" stroke-width="5" stroke="#5fb49c" fill="none" stroke-linejoin="round" />
<path d="M174.071 374.173 L365.388 849.534 Z" stroke-width="5" stroke="#5fb49c" fill="none" stroke-linejoin="round" />
<path d="M179.665 358.435 L381.472 854.04 Z" stroke-width="5" stroke="#5fb49c" fill="none" stroke-linejoin="round" />
<path d="M185.258 342.696 L397.556 858.547 Z" stroke-width="5" stroke="#5fb49c" fill="none" stroke-linejoin="round" />
<path d="M185.258 342.696 L413.64 863.053 Z" stroke-width="5" stroke="#5fb49c" fill="none" stroke-linejoin="round" />
<path d="M194.891 329.05 L429.723 867.56 Z" stroke-width="5" stroke="#5fb49c" fill="none" stroke-linejoin="round" />
<path d="M204.523 315.404 L445.807 872.066 Z" stroke-width="5" stroke="#5fb49c" fill="none" stroke-linejoin="round" />
<path d="M214.155 301.758 L461.891 876.572 Z" stroke-width="5" stroke="#5fb49c" fill="none" stroke-linejoin="round" />
<path d="M223.788 288.112 L461.891 876.572 Z" stroke-width="5" stroke="#5fb49c" fill="none" stroke-linejoin="round" />
<path d="M233.42 274.466 L478.594 876.572 Z" stroke-width="5" stroke="#5fb49c" fill="none" stroke-linejoin="round" />
<path d="M243.052 260.82 L495.297 876.572 Z" stroke-width="5" stroke="#5fb49c" fill="none" stroke-linejoin="round" />
<path d="M243.052 260.82 L512.0 876.572 Z" stroke-width="5" stroke="#5fb49c" fill="none" stroke-linejoin="round" />
<path d="M256.009 250.279 L528.703 876.572 Z" stroke-width="5" stroke="#5fb49c" fill="none" stroke-linejoin="round" />
<path d="M268.966 239.738 L545.406 876.572 Z" stroke-width="5" stroke="#5fb49c" fill="none" stroke-linejoin="round" />
<path d="M281.923 229.197 L562.109 876.572 Z" stroke-width="5" stroke="#5fb49c" fill="none" stroke-linejoin="round" />
<path d="M294.88 218.656 L562.109 876.572 Z" stroke-width="5" stroke="#5fb49c" fill="none" stroke-linejoin="round" />
<path d="M307.836 208.115 L578.193 872.066 Z" stroke-width="5" stroke="#5fb49c" fill="none" stroke-linejoin="round" />
<path d="M320.793 197.574 L594.277 867.56 Z" stroke-width="5" stroke="#5fb49c" fill="none" stroke-linejoin="round" />
<path d="M320.793 197.574 L610.36 863.053 Z" stroke-width="5" stroke="#5fb49c" fill="none" stroke-linejoin="round" />
<path d="M336.113 190.919 L626.444 858.547 Z" stroke-width="5" stroke="#5fb49c" fill="none" stroke-linejoin="round" />
<path d="M351.434 184.265 L642.528 854.04 Z" stroke-width="5" stroke="#5fb49c" fill="none" stroke-linejoin="round" />
<path d="M366.754 177.61 L658.612 849.534 Z" stroke-width="5" stroke="#5fb49c" fill="none" stroke-linejoin="round" />
<path d="M382.074 170.956 L658.612 849.534 Z" stroke-width="5" stroke="#5fb49c" fill="none" stroke-linejoin="round" />
<path d="M397.395 164.301 L672.883 840.855 Z" stroke-width="5" stroke="#5fb49c" fill="none" stroke-linejoin="round" />
<path d="M412.715 157.646 L687.155 832.176 Z" stroke-width="5" stroke="#5fb49c" fill="none" stroke-linejoin="round" />
<path d="M412.715 157.646 L701.426 823.498 Z" stroke-width="5" stroke="#5fb49c" fill="none" stroke-linejoin="round" />
<path d="M429.262 155.372 L715.697 814.819 Z" stroke-width="5" stroke="#5fb49c" fill="none" stroke-linejoin="round" />
<path d="M445.81 153.098 L729.969 806.14 Z" stroke-width="5" stroke="#5fb49c" fill="none" stroke-linejoin="round" />
<path d="M462.357 150.823 L744.24 797.462 Z" stroke-width="5" stroke="#5fb49c" fill="none" stroke-linejoin="round" />
<path d="M478.905 148.549 L744.24 797.462 Z" stroke-width="5" stroke="#5fb49c" fill="none" stroke-linejoin="round" />
<path d="M495.452 146.274 L755.641 785.255 Z" stroke-width="5" stroke="#5fb49c" fill="none" stroke-linejoin="round" />
<path d="M512.0 144.0 L767.042 773.047 Z" stroke-width="5" stroke="#5fb49c" fill="none" stroke-linejoin="round" />
<path d="M512.0 144.0 L778.443 760.84 Z" stroke-width="5" stroke="#5fb49c" fill="none" stroke-linejoin="round" />
<path d="M528.548 146.274 L789.843 748.633 Z" stroke-width="5" stroke="#5fb49c" fill="none" stroke-linejoin="round" />
<path d="M545.095 148.549 L801.244 736.426 Z" stroke-width="5" stroke="#5fb49c" fill="none" stroke-linejoin="round" />
<path d="M561.643 150.823 L812.645 724.218 Z" stroke-width="5" stroke="#5fb49c" fill="none" stroke-linejoin="round" />
<path d="M578.19 153.098 L812.645 724.218 Z" stroke-width="5" stroke="#5fb49c" fill="none" stroke-linejoin="round" />
<path d="M594.738 155.372 L820.329 709.388 Z" stroke-width="5" stroke="#5fb49c" fill="none" stroke-linejoin="round" />
<path d="M611.285 157.646 L828.014 694.557 Z" stroke-width="5" stroke="#5fb49c" fill="none" stroke-linejoin="round" />
<path d="M611.285 157.646 L835.698 679.727 Z" stroke-width="5" stroke="#5fb49c" fill="none" stroke-linejoin="round" />
<path d="M626.605 164.301 L843.383 664.897 Z" stroke-width="5" stroke="#5fb49c" fill="none" stroke-linejoin="round" />
<path d="M641.926 170.956 L851.068 650.066 Z" stroke-width="5" stroke="#5fb49c" fill="none" stroke-linejoin="round" />
<path d="M657.246 177.61 L858.752 635.236 Z" stroke-width="5" stroke="#5fb49c" fill="none" stroke-linejoin="round" />
<path d="M672.566 184.265 L858.752 635.236 Z" stroke-width="5" stroke="#5fb49c" fill="none" stroke-linejoin="round" />
<path d="M687.887 190.919 L862.15 618.882 Z" stroke-width="5" stroke="#5fb49c" fill="none" stroke-linejoin="round" />
<path d="M703.207 197.574 L865.549 602.528 Z" stroke-width="5" stroke="#5fb49c" fill="none" stroke-linejoin="round" />
<path d="M703.207 197.574 L868.947 586.174 Z" stroke-width="5" stroke="#5fb49c" fill="none" stroke-linejoin="round" />
<path d="M716.164 208.115 L872.345 569.821 Z" stroke-width="5" stroke="#5fb49c" fill="none" stroke-linejoin="round" />
<path d="M729.12 218.656 L875.744 553.467 Z" stroke-width="5" stroke="#5fb49c" fill="none" stroke-linejoin="round" />
<path d="M742.077 229.197 L879.142 537.113 Z" stroke-width="5" stroke="#5fb49c" fill="none" stroke-linejoin="round" />
<path d="M755.034 239.738 L879.142 537.113 Z" stroke-width="5" stroke="#5fb49c" fill="none" stroke-linejoin="round" />
<path d="M767.991 250.279 L878.002 520.449 Z" stroke-width="5" stroke="#5fb49c" fill="none" stroke-linejoin="round" />
<path d="M780.948 260.82 L876.862 503.785 Z" stroke-width="5" stroke="#5fb49c" fill="none" stroke-linejoin="round" />
<path d="M780.948 260.82 L875.723 487.121 Z" stroke-width="5" stroke="#5fb49c" fill="none" stroke-linejoin="round" />
<path d="M790.58 274.466 L874.583 470.457 Z" stroke-width="5" stroke="#5fb49c" fill="none" stroke-linejoin="round" />
<path d="M800.212 288.112 L873.443 453.792 Z" stroke-width="5" stroke="#5fb49c" fill="none" stroke-linejoin="round" />
<path d="M809.845 301.758 L872.303 437.128 Z" stroke-width="5" stroke="#5fb49c" fill="none" stroke-linejoin="round" />
<path d="M819.477 315.404 L872.303 437.128 Z" stroke-width="5" stroke="#5fb49c" fill="none" stroke-linejoin="round" />
<path d="M829.109 329.05 L866.709 421.39 Z" stroke-width="5" stroke="#5fb49c" fill="none" stroke-linejoin="round" />
<path d="M838.742 342.696 L861.116 405.651 Z" stroke-width="5" stroke="#5fb49c" fill="none" stroke-linejoin="round" />
<path d="M838.742 342.696 L855.522 389.912 Z" stroke-width="5" stroke="#5fb49c" fill="none" stroke-linejoin="round" />
<path d="M844.335 358.435 L849.929 374.173 Z" stroke-width="5" stroke="#5fb49c" fill="none" stroke-linejoin="round" />
<path d="M849.929 374.173 L844.335 358.435 Z" stroke-width="5" stroke="#5fb49c" fill="none" stroke-linejoin="round" />
<path d="M855.522 389.912 L838.742 342.696 Z" stroke-width="5" stroke="#5fb49c" fill="none" stroke-linejoin="round" />
<path d="M861.116 405.651 L838.742 342.696 Z" stroke-width="5" stroke="#5fb49c" fill="none" stroke-linejoin="round" />
<path d="M866.709 421.39 L829.109 329.05 Z" stroke-width="5" stroke="#5fb49c" fill="none" stroke-linejoin="round" />
<path d="M872.303 437.128 L819.477 315.404 Z" stroke-width="5" stroke="#5fb49c" fill="none" stroke-linejoin="round" />
<path d="M872.303 437.128 L809.845 301.758 Z" stroke-width="5" stroke="#5fb49c" fill="none" stroke-linejoin="round" />
<path d="M873.443 453.792 L800.212 288.112 Z" stroke-width="5" stroke="#5fb49c" fill="none" stroke-linejoin="round" />
<path d="M874.583 470.457 L790.58 274.466 Z" stroke-width="5" stroke="#5fb49c" fill="none" stroke-linejoin="round" />
<path d="M875.723 487.121 L780.948 260.82 Z" stroke-width="5" stroke="#5fb49c" fill="none" stroke-linejoin="round" />
<path d="M876.862 503.785 L780.948 260.82 Z" stroke-width="5" stroke="#5fb49c" fill="none" stroke-linejoin="round" />
<path d="M878.002 520.449 L767.991 250.279 Z" stroke-width="5" stroke="#5fb49c" fill="none" stroke-linejoin="round" />
<path d="M879.142 537.113 L755.034 239.738 Z" stroke-width="5" stroke="#5fb49c" fill="none" stroke-linejoin="round" />
<path d="M879.142 537.113 L742.077 229.197 Z" stroke-width="5" stroke="#5fb49c" fill="none" stroke-linejoin="round" />
<path d="M875.744 553.467 L729.12 218.656 Z" stroke-width="5" stroke="#5fb49c" fill="none" stroke-linejoin="round" />
<path d="M872.345 569.821 L716.164 208.115 Z" stroke-width="5" stroke="#5fb49c" fill="none" stroke-linejoin="round" />
<path d="M868.947 586.174 L703.207 197.574 Z" stroke-width="5" stroke="#5fb49c" fill="none" stroke-linejoin="round" />
<path d="M865.549 602.528 L703.207 197.574 Z" stroke-width="5" stroke="#5fb49c" fill="none" stroke-linejoin="round" />
<path d="M862.15 618.882 L687.887 190.919 Z" stroke-width="5" stroke="#5fb49c" fill="none" stroke-linejoin="round" />
<path d="M858.752 635.236 L672.566 184.265 Z" stroke-width="5" stroke="#5fb49c" fill="none" stroke-linejoin="round" />
<path d="M858.752 635.236 L657.246 177.61 Z" stroke-width="5" stroke="#5fb49c" fill="none" stroke-linejoin="round" />
<path d="M851.068 650.066 L641.926 170.956 Z" stroke-width="5" stroke="#5fb49c" fill="none" stroke-linejoin="round" />
<path d="M843.383 664.897 L626.605 164.301 Z" stroke-width="5" stroke="#5fb49c" fill="none" stroke-linejoin="round" />
<path d="M835.698 679.727 L611.285 157.646 Z" stroke-width="5" stroke="#5fb49c" fill="none" stroke-linejoin="round" />
<path d="M828.014 694.557 L611.285 157.646 Z" stroke-width="5" stroke="#5fb49c" fill="none" stroke-linejoin="round" />
<path d="M820.329 709.388 L594.738 155.372 Z" stroke-width="5" stroke="#5fb49c" fill="none" stroke-linejoin="round" />
<path d="M812.645 724.218 L578.19 153.098 Z" stroke-width="5" stroke="#5fb49c" fill="none" stroke-linejoin="round" />
<path d="M812.645 724.218 L561.643 150.823 Z" stroke-width="5" stroke="#5fb49c" fill="none" stroke-linejoin="round" />
<path d="M801.244 736.426 L545.095 148.549 Z" stroke-width="5" stroke="#5fb49c" fill="none" stroke-linejoin="round" />
<path d="M789.843 748.633 L528.548 146.274 Z" stroke-width="5" stroke="#5fb49c" fill="none" stroke-linejoin="round" />
<path d="M778.443 760.84 L512.0 144.0 Z" stroke-width="5" stroke="#5fb49c" fill="none" stroke-linejoin="round" />
<path d="M767.042 773.047 L512.0 144.0 Z" stroke-width="5" stroke="#5fb49c" fill="none" stroke-linejoin="round" />
<path d="M755.641 785.255 L495.452 146.274 Z" stroke-width="5" stroke="#5fb49c" fill="none" stroke-linejoin="round" />
<path d="M744.24 797.462 L478.905 148.549 Z" stroke-width="5" stroke="#5fb49c" fill="none" stroke-linejoin="round" />
<path d="M744.24 797.462 L462.357 150.823 Z" stroke-width="5" stroke="#5fb49c" fill="none" stroke-linejoin="round" />
<path d="M729.969 806.14 L445.81 153.098 Z" stroke-width="5" stroke="#5fb49c" fill="none" stroke-linejoin="round" />
<path d="M715.697 814.819 L429.262 155.372 Z" stroke-width="5" stroke="#5fb49c" fill="none" stroke-linejoin="round" />
<path d="M701.426 823.498 L412.715 157.646 Z" stroke-width="5" stroke="#5fb49c" fill="none" stroke-linejoin="round" />
<path d="M687.155 832.176 L412.715 157.646 Z" stroke-width="5" stroke="#5fb49c" fill="none" stroke-linejoin="round" />
<path d="M672.883 840.855 L397.395 164.301 Z" stroke-width="5" stroke="#5fb49c" fill="none" stroke-linejoin="round" />
<path d="M658.612 849.534 L382.074 170.956 Z" stroke-width="5" stroke="#5fb49c" fill="none" stroke-linejoin="round" />
<path d="M169.96 642.528 L839.735 351.434 Z" stroke-width="3" stroke="#414288" fill="none" stroke-linejoin="round" />
<path d="M165.453 626.444 L833.081 336.113 Z" stroke-width="3" stroke="#414288" fill="none" stroke-linejoin="round" />
<path d="M160.947 610.36 L703.207 826.426 Z" stroke-width="3" stroke="#414288" fill="none" stroke-linejoin="round" />
<path d="M156.44 594.277 L703.207 826.426 Z" stroke-width="3" stroke="#414288" fill="none" stroke-linejoin="round" />
<path d="M151.934 578.193 L815.885 307.836 Z" stroke-width="3" stroke="#414288" fill="none" stroke-linejoin="round" />
<path d="M461.891 147.428 L805.344 294.88 Z" stroke-width="3" stroke="#414288" fill="none" stroke-linejoin="round" />
<path d="M461.891 147.428 L794.803 281.923 Z" stroke-width="3" stroke="#414288" fill="none" stroke-linejoin="round" />
<path d="M147.428 545.406 L784.262 268.966 Z" stroke-width="3" stroke="#414288" fill="none" stroke-linejoin="round" />
<path d="M147.428 528.703 L773.721 256.009 Z" stroke-width="3" stroke="#414288" fill="none" stroke-linejoin="round" />
<path d="M147.428 512.0 L780.948 763.18 Z" stroke-width="3" stroke="#414288" fill="none" stroke-linejoin="round" />
<path d="M147.428 495.297 L780.948 763.18 Z" stroke-width="3" stroke="#414288" fill="none" stroke-linejoin="round" />
<path d="M147.428 478.594 L749.534 233.42 Z" stroke-width="3" stroke="#414288" fill="none" stroke-linejoin="round" />
<path d="M562.109 147.428 L735.888 223.788 Z" stroke-width="3" stroke="#414288" fill="none" stroke-linejoin="round" />
<path d="M562.109 147.428 L722.242 214.155 Z" stroke-width="3" stroke="#414288" fill="none" stroke-linejoin="round" />
<path d="M151.934 445.807 L708.596 204.523 Z" stroke-width="3" stroke="#414288" fill="none" stroke-linejoin="round" />
<path d="M156.44 429.723 L694.95 194.891 Z" stroke-width="3" stroke="#414288" fill="none" stroke-linejoin="round" />
<path d="M160.947 413.64 L838.742 681.304 Z" stroke-width="3" stroke="#414288" fill="none" stroke-linejoin="round" />
<path d="M165.453 397.556 L838.742 681.304 Z" stroke-width="3" stroke="#414288" fill="none" stroke-linejoin="round" />
<path d="M169.96 381.472 L665.565 179.665 Z" stroke-width="3" stroke="#414288" fill="none" stroke-linejoin="round" />
<path d="M658.612 174.466 L649.827 174.071 Z" stroke-width="3" stroke="#414288" fill="none" stroke-linejoin="round" />
<path d="M658.612 174.466 L634.088 168.478 Z" stroke-width="3" stroke="#414288" fill="none" stroke-linejoin="round" />
<path d="M183.145 351.117 L618.349 162.884 Z" stroke-width="3" stroke="#414288" fill="none" stroke-linejoin="round" />
<path d="M191.824 336.845 L602.61 157.291 Z" stroke-width="3" stroke="#414288" fill="none" stroke-linejoin="round" />
<path d="M200.502 322.574 L872.303 586.872 Z" stroke-width="3" stroke="#414288" fill="none" stroke-linejoin="round" />
<path d="M209.181 308.303 L872.303 586.872 Z" stroke-width="3" stroke="#414288" fill="none" stroke-linejoin="round" />
<path d="M217.86 294.031 L570.208 150.557 Z" stroke-width="3" stroke="#414288" fill="none" stroke-linejoin="round" />
<path d="M744.24 226.538 L553.543 149.417 Z" stroke-width="3" stroke="#414288" fill="none" stroke-linejoin="round" />
<path d="M744.24 226.538 L536.879 148.277 Z" stroke-width="3" stroke="#414288" fill="none" stroke-linejoin="round" />
<path d="M238.745 268.359 L520.215 147.138 Z" stroke-width="3" stroke="#414288" fill="none" stroke-linejoin="round" />
<path d="M250.953 256.958 L503.551 145.998 Z" stroke-width="3" stroke="#414288" fill="none" stroke-linejoin="round" />
<path d="M263.16 245.557 L879.142 486.887 Z" stroke-width="3" stroke="#414288" fill="none" stroke-linejoin="round" />
<path d="M275.367 234.157 L879.142 486.887 Z" stroke-width="3" stroke="#414288" fill="none" stroke-linejoin="round" />
<path d="M287.574 222.756 L470.533 148.256 Z" stroke-width="3" stroke="#414288" fill="none" stroke-linejoin="round" />
<path d="M812.645 299.782 L454.179 151.655 Z" stroke-width="3" stroke="#414288" fill="none" stroke-linejoin="round" />
<path d="M812.645 299.782 L437.826 155.053 Z" stroke-width="3" stroke="#414288" fill="none" stroke-linejoin="round" />
<path d="M314.612 203.671 L421.472 158.451 Z" stroke-width="3" stroke="#414288" fill="none" stroke-linejoin="round" />
<path d="M329.443 195.986 L405.118 161.85 Z" stroke-width="3" stroke="#414288" fill="none" stroke-linejoin="round" />
<path d="M344.273 188.302 L858.752 388.764 Z" stroke-width="3" stroke="#414288" fill="none" stroke-linejoin="round" />
<path d="M359.103 180.617 L858.752 388.764 Z" stroke-width="3" stroke="#414288" fill="none" stroke-linejoin="round" />
<path d="M373.934 172.932 L373.934 172.932 Z" stroke-width="3" stroke="#414288" fill="none" stroke-linejoin="round" />
<path d="M858.752 388.764 L359.103 180.617 Z" stroke-width="3" stroke="#414288" fill="none" stroke-linejoin="round" />
<path d="M858.752 388.764 L344.273 188.302 Z" stroke-width="3" stroke="#414288" fill="none" stroke-linejoin="round" />
<path d="M405.118 161.85 L329.443 195.986 Z" stroke-width="3" stroke="#414288" fill="none" stroke-linejoin="round" />
<path d="M421.472 158.451 L314.612 203.671 Z" stroke-width="3" stroke="#414288" fill="none" stroke-linejoin="round" />
<path d="M437.826 155.053 L812.645 299.782 Z" stroke-width="3" stroke="#414288" fill="none" stroke-linejoin="round" />
<path d="M454.179 151.655 L812.645 299.782 Z" stroke-width="3" stroke="#414288" fill="none" stroke-linejoin="round" />
<path d="M470.533 148.256 L287.574 222.756 Z" stroke-width="3" stroke="#414288" fill="none" stroke-linejoin="round" />
<path d="M879.142 486.887 L275.367 234.157 Z" stroke-width="3" stroke="#414288" fill="none" stroke-linejoin="round" />
<path d="M879.142 486.887 L263.16 245.557 Z" stroke-width="3" stroke="#414288" fill="none" stroke-linejoin="round" />
<path d="M503.551 145.998 L250.953 256.958 Z" stroke-width="3" stroke="#414288" fill="none" stroke-linejoin="round" />
<path d="M520.215 147.138 L238.745 268.359 Z" stroke-width="3" stroke="#414288" fill="none" stroke-linejoin="round" />
<path d="M536.879 148.277 L744.24 226.538 Z" stroke-width="3" stroke="#414288" fill="none" stroke-linejoin="round" />
<path d="M553.543 149.417 L744.24 226.538 Z" stroke-width="3" stroke="#414288" fill="none" stroke-linejoin="round" />
<path d="M570.208 150.557 L217.86 294.031 Z" stroke-width="3" stroke="#414288" fill="none" stroke-linejoin="round" />
<path d="M872.303 586.872 L209.181 308.303 Z" stroke-width="3" stroke="#414288" fill="none" stroke-linejoin="round" />
<path d="M872.303 586.872 L200.502 322.574 Z" stroke-width="3" stroke="#414288" fill="none" stroke-linejoin="round" />
<path d="M602.61 157.291 L191.824 336.845 Z" stroke-width="3" stroke="#414288" fill="none" stroke-linejoin="round" />
<path d="M618.349 162.884 L183.145 351.117 Z" stroke-width="3" stroke="#414288" fill="none" stroke-linejoin="round" />
<path d="M634.088 168.478 L658.612 174.466 Z" stroke-width="3" stroke="#414288" fill="none" stroke-linejoin="round" />
<path d="M649.827 174.071 L658.612 174.466 Z" stroke-width="3" stroke="#414288" fill="none" stroke-linejoin="round" />
<path d="M665.565 179.665 L169.96 381.472 Z" stroke-width="3" stroke="#414288" fill="none" stroke-linejoin="round" />
<path d="M838.742 681.304 L165.453 397.556 Z" stroke-width="3" stroke="#414288" fill="none" stroke-linejoin="round" />
<path d="M838.742 681.304 L160.947 413.64 Z" stroke-width="3" stroke="#414288" fill="none" stroke-linejoin="round" />
<path d="M694.95 194.891 L156.44 429.723 Z" stroke-width="3" stroke="#414288" fill="none" stroke-linejoin="round" />
<path d="M708.596 204.523 L151.934 445.807 Z" stroke-width="3" stroke="#414288" fill="none" stroke-linejoin="round" />
<path d="M722.242 214.155 L562.109 147.428 Z" stroke-width="3" stroke="#414288" fill="none" stroke-linejoin="round" />
<path d="M735.888 223.788 L562.109 147.428 Z" stroke-width="3" stroke="#414288" fill="none" stroke-linejoin="round" />
<path d="M749.534 233.42 L147.428 478.594 Z" stroke-width="3" stroke="#414288" fill="none" stroke-linejoin="round" />
<path d="M780.948 763.18 L147.428 495.297 Z" stroke-width="3" stroke="#414288" fill="none" stroke-linejoin="round" />
<path d="M780.948 763.18 L147.428 512.0 Z" stroke-width="3" stroke="#414288" fill="none" stroke-linejoin="round" />
<path d="M773.721 256.009 L147.428 528.703 Z" stroke-width="3" stroke="#414288" fill="none" stroke-linejoin="round" />
<path d="M784.262 268.966 L147.428 545.406 Z" stroke-width="3" stroke="#414288" fill="none" stroke-linejoin="round" />
<path d="M794.803 281.923 L461.891 147.428 Z" stroke-width="3" stroke="#414288" fill="none" stroke-linejoin="round" />
<path d="M805.344 294.88 L461.891 147.428 Z" stroke-width="3" stroke="#414288" fill="none" stroke-linejoin="round" />
<path d="M815.885 307.836 L151.934 578.193 Z" stroke-width="3" stroke="#414288" fill="none" stroke-linejoin="round" />
<path d="M703.207 826.426 L156.44 594.277 Z" stroke-width="3" stroke="#414288" fill="none" stroke-linejoin="round" />
<path d="M703.207 826.426 L160.947 610.36 Z" stroke-width="3" stroke="#414288" fill="none" stroke-linejoin="round" />
<path d="M833.081 336.113 L165.453 626.444 Z" stroke-width="3" stroke="#414288" fill="none" stroke-linejoin="round" />
<path d="M839.735 351.434 L169.96 642.528 Z" stroke-width="3" stroke="#414288" fill="none" stroke-linejoin="round" />
<path d="M846.39 366.754 L365.388 174.466 Z" stroke-width="3" stroke="#414288" fill="none" stroke-linejoin="round" />
<path d="M853.044 382.074 L365.388 174.466 Z" stroke-width="3" stroke="#414288" fill="none" stroke-linejoin="round" />
<path d="M859.699 397.395 L183.145 672.883 Z" stroke-width="3" stroke="#414288" fill="none" stroke-linejoin="round" />
<path d="M611.285 866.354 L191.824 687.155 Z" stroke-width="3" stroke="#414288" fill="none" stroke-linejoin="round" />
<path d="M611.285 866.354 L200.502 701.426 Z" stroke-width="3" stroke="#414288" fill="none" stroke-linejoin="round" />
<path d="M868.628 429.262 L209.181 715.697 Z" stroke-width="3" stroke="#414288" fill="none" stroke-linejoin="round" />
<path d="M870.902 445.81 L217.86 729.969 Z" stroke-width="3" stroke="#414288" fill="none" stroke-linejoin="round" />
<path d="M873.177 462.357 L279.76 226.538 Z" stroke-width="3" stroke="#414288" fill="none" stroke-linejoin="round" />
<path d="M875.451 478.905 L279.76 226.538 Z" stroke-width="3" stroke="#414288" fill="none" stroke-linejoin="round" />
<path d="M877.726 495.452 L238.745 755.641 Z" stroke-width="3" stroke="#414288" fill="none" stroke-linejoin="round" />
<path d="M512.0 880.0 L250.953 767.042 Z" stroke-width="3" stroke="#414288" fill="none" stroke-linejoin="round" />
<path d="M512.0 880.0 L263.16 778.443 Z" stroke-width="3" stroke="#414288" fill="none" stroke-linejoin="round" />
<path d="M877.726 528.548 L275.367 789.843 Z" stroke-width="3" stroke="#414288" fill="none" stroke-linejoin="round" />
<path d="M875.451 545.095 L287.574 801.244 Z" stroke-width="3" stroke="#414288" fill="none" stroke-linejoin="round" />
<path d="M873.177 561.643 L211.355 299.782 Z" stroke-width="3" stroke="#414288" fill="none" stroke-linejoin="round" />
<path d="M870.902 578.19 L211.355 299.782 Z" stroke-width="3" stroke="#414288" fill="none" stroke-linejoin="round" />
<path d="M868.628 594.738 L314.612 820.329 Z" stroke-width="3" stroke="#414288" fill="none" stroke-linejoin="round" />
<path d="M412.715 866.354 L329.443 828.014 Z" stroke-width="3" stroke="#414288" fill="none" stroke-linejoin="round" />
<path d="M412.715 866.354 L344.273 835.698 Z" stroke-width="3" stroke="#414288" fill="none" stroke-linejoin="round" />
<path d="M859.699 626.605 L359.103 843.383 Z" stroke-width="3" stroke="#414288" fill="none" stroke-linejoin="round" />
<path d="M853.044 641.926 L373.934 851.068 Z" stroke-width="3" stroke="#414288" fill="none" stroke-linejoin="round" />
<path d="M846.39 657.246 L165.248 388.764 Z" stroke-width="3" stroke="#414288" fill="none" stroke-linejoin="round" />
<path d="M839.735 672.566 L165.248 388.764 Z" stroke-width="3" stroke="#414288" fill="none" stroke-linejoin="round" />
<path d="M833.081 687.887 L405.118 862.15 Z" stroke-width="3" stroke="#414288" fill="none" stroke-linejoin="round" />
<path d="M320.793 826.426 L421.472 865.549 Z" stroke-width="3" stroke="#414288" fill="none" stroke-linejoin="round" />
<path d="M320.793 826.426 L437.826 868.947 Z" stroke-width="3" stroke="#414288" fill="none" stroke-linejoin="round" />
<path d="M815.885 716.164 L454.179 872.345 Z" stroke-width="3" stroke="#414288" fill="none" stroke-linejoin="round" />
<path d="M805.344 729.12 L470.533 875.744 Z" stroke-width="3" stroke="#414288" fill="none" stroke-linejoin="round" />
<path d="M794.803 742.077 L144.858 486.887 Z" stroke-width="3" stroke="#414288" fill="none" stroke-linejoin="round" />
<path d="M784.262 755.034 L144.858 486.887 Z" stroke-width="3" stroke="#414288" fill="none" stroke-linejoin="round" />
<path d="M773.721 767.991 L503.551 878.002 Z" stroke-width="3" stroke="#414288" fill="none" stroke-linejoin="round" />
<path d="M243.052 763.18 L520.215 876.862 Z" stroke-width="3" stroke="#414288" fill="none" stroke-linejoin="round" />
<path d="M243.052 763.18 L536.879 875.723 Z" stroke-width="3" stroke="#414288" fill="none" stroke-linejoin="round" />
<path d="M749.534 790.58 L553.543 874.583 Z" stroke-width="3" stroke="#414288" fill="none" stroke-linejoin="round" />
<path d="M735.888 800.212 L570.208 873.443 Z" stroke-width="3" stroke="#414288" fill="none" stroke-linejoin="round" />
<path d="M722.242 809.845 L151.697 586.872 Z" stroke-width="3" stroke="#414288" fill="none" stroke-linejoin="round" />
<path d="M708.596 819.477 L151.697 586.872 Z" stroke-width="3" stroke="#414288" fill="none" stroke-linejoin="round" />
<path d="M694.95 829.109 L602.61 866.709 Z" stroke-width="3" stroke="#414288" fill="none" stroke-linejoin="round" />
<path d="M185.258 681.304 L618.349 861.116 Z" stroke-width="3" stroke="#414288" fill="none" stroke-linejoin="round" />
<path d="M185.258 681.304 L634.088 855.522 Z" stroke-width="3" stroke="#414288" fill="none" stroke-linejoin="round" />
<path d="M665.565 844.335 L649.827 849.929 Z" stroke-width="3" stroke="#414288" fill="none" stroke-linejoin="round" />
<path d="M649.827 849.929 L665.565 844.335 Z" stroke-width="3" stroke="#414288" fill="none" stroke-linejoin="round" />
<path d="M634.088 855.522 L185.258 681.304 Z" stroke-width="3" stroke="#414288" fill="none" stroke-linejoin="round" />
<path d="M618.349 861.116 L185.258 681.304 Z" stroke-width="3" stroke="#414288" fill="none" stroke-linejoin="round" />
<path d="M602.61 866.709 L694.95 829.109 Z" stroke-width="3" stroke="#414288" fill="none" stroke-linejoin="round" />
<path d="M151.697 586.872 L708.596 819.477 Z" stroke-width="3" stroke="#414288" fill="none" stroke-linejoin="round" />
<path d="M151.697 586.872 L722.242 809.845 Z" stroke-width="3" stroke="#414288" fill="none" stroke-linejoin="round" />
<path d="M570.208 873.443 L735.888 800.212 Z" stroke-width="3" stroke="#414288" fill="none" stroke-linejoin="round" />
<path d="M553.543 874.583 L749.534 790.58 Z" stroke-width="3" stroke="#414288" fill="none" stroke-linejoin="round" />
<path d="M536.879 875.723 L243.052 763.18 Z" stroke-width="3" stroke="#414288" fill="none" stroke-linejoin="round" />
<path d="M520.215 876.862 L243.052 763.18 Z" stroke-width="3" stroke="#414288" fill="none" stroke-linejoin="round" />
<path d="M503.551 878.002 L773.721 767.991 Z" stroke-width="3" stroke="#414288" fill="none" stroke-linejoin="round" />
<path d="M144.858 486.887 L784.262 755.034 Z" stroke-width="3" stroke="#414288" fill="none" stroke-linejoin="round" />
<path d="M144.858 486.887 L794.803 742.077 Z" stroke-width="3" stroke="#414288" fill="none" stroke-linejoin="round" />
<path d="M470.533 875.744 L805.344 729.12 Z" stroke-width="3" stroke="#414288" fill="none" stroke-linejoin="round" />
<path d="M454.179 872.345 L815.885 716.164 Z" stroke-width="3" stroke="#414288" fill="none" stroke-linejoin="round" />
<path d="M437.826 868.947 L320.793 826.426 Z" stroke-width="3" stroke="#414288" fill="none" stroke-linejoin="round" />
<path d="M421.472 865.549 L320.793 826.426 Z" stroke-width="3" stroke="#414288" fill="none" stroke-linejoin="round" />
<path d="M405.118 862.15 L833.081 687.887 Z" stroke-width="3" stroke="#414288" fill="none" stroke-linejoin="round" />
<path d="M165.248 388.764 L839.735 672.566 Z" stroke-width="3" stroke="#414288" fill="none" stroke-linejoin="round" />
<path d="M165.248 388.764 L846.39 657.246 Z" stroke-width="3" stroke="#414288" fill="none" stroke-linejoin="round" />
<path d="M373.934 851.068 L853.044 641.926 Z" stroke-width="3" stroke="#414288" fill="none" stroke-linejoin="round" />
<path d="M359.103 843.383 L859.699 626.605 Z" stroke-width="3" stroke="#414288" fill="none" stroke-linejoin="round" />
<path d="M344.273 835.698 L412.715 866.354 Z" stroke-width="3" stroke="#414288" fill="none" stroke-linejoin="round" />
<path d="M329.443 828.014 L412.715 866.354 Z" stroke-width="3" stroke="#414288" fill="none" stroke-linejoin="round" />
<path d="M314.612 820.329 L868.628 594.738 Z" stroke-width="3" stroke="#414288" fill="none" stroke-linejoin="round" />
<path d="M211.355 299.782 L870.902 578.19 Z" stroke-width="3" stroke="#414288" fill="none" stroke-linejoin="round" />
<path d="M211.355 299.782 L873.177 561.643 Z" stroke-width="3" stroke="#414288" fill="none" stroke-linejoin="round" />
<path d="M287.574 801.244 L875.451 545.095 Z" stroke-width="3" stroke="#414288" fill="none" stroke-linejoin="round" />
<path d="M275.367 789.843 L877.726 528.548 Z" stroke-width="3" stroke="#414288" fill="none" stroke-linejoin="round" />
<path d="M263.16 778.443 L512.0 880.0 Z" stroke-width="3" stroke="#414288" fill="none" stroke-linejoin="round" />
<path d="M250.953 767.042 L512.0 880.0 Z" stroke-width="3" stroke="#414288" fill="none" stroke-linejoin="round" />
<path d="M238.745 755.641 L877.726 495.452 Z" stroke-width="3" stroke="#414288" fill="none" stroke-linejoin="round" />
<path d="M279.76 226.538 L875.451 478.905 Z" stroke-width="3" stroke="#414288" fill="none" stroke-linejoin="round" />
<path d="M279.76 226.538 L873.177 462.357 Z" stroke-width="3" stroke="#414288" fill="none" stroke-linejoin="round" />
<path d="M217.86 729.969 L870.902 445.81 Z" stroke-width="3" stroke="#414288" fill="none" stroke-linejoin="round" />
<path d="M209.181 715.697 L868.628 429.262 Z" stroke-width="3" stroke="#414288" fill="none" stroke-linejoin="round" />
<path d="M200.502 701.426 L611.285 866.354 Z" stroke-width="3" stroke="#414288" fill="none" stroke-linejoin="round" />
<path d="M191.824 687.155 L611.285 866.354 Z" stroke-width="3" stroke="#414288" fill="none" stroke-linejoin="round" />
<path d="M183.145 672.883 L859.699 397.395 Z" stroke-width="3" stroke="#414288" fill="none" stroke-linejoin="round" />
<path d="M365.388 174.466 L853.044 382.074 Z" stroke-width="3" stroke="#414288" fill="none" stroke-linejoin="round" />
</svg>