<svg width="1024" height="1024">
<rect width="100%" height="100%" fill="#98dfaf" />
<path d="M660.818 845.82 L344.931 184.11 Z" stroke-width="5" stroke="#5fb49c" fill="none" stroke-linejoin="round" />
<path d="M642.568 851.75 L329.407 195.389 Z" stroke-width="5" stroke="#5fb49c" fill="none" stroke-linejoin="round" />
<path d="M624.318 857.68 L313.883 206.668 Z" stroke-width="5" stroke="#5fb49c" fill="none" stroke-linejoin="round" />
<path d="M606.068 863.61 L298.358 217.947 Z" stroke-width="5" stroke="#5fb49c" fill="none" stroke-linejoin="round" />
<path d="M587.818 869.539 L282.834 229.226 Z" stroke-width="5" stroke="#5fb49c" fill="none" stroke-linejoin="round" />
<path d="M569.568 875.469 L267.309 240.506 Z" stroke-width="5" stroke="#5fb49c" fill="none" stroke-linejoin="round" />
<path d="M569.568 875.469 L251.785 251.785 Z" stroke-width="5" stroke="#5fb49c" fill="none" stroke-linejoin="round" />
<path d="M550.379 875.469 L251.785 251.785 Z" stroke-width="5" stroke="#5fb49c" fill="none" stroke-linejoin="round" />
<path d="M531.189 875.469 L240.506 267.309 Z" stroke-width="5" stroke="#5fb49c" fill="none" stroke-linejoin="round" />
<path d="M512.0 875.469 L229.226 282.834 Z" stroke-width="5" stroke="#5fb49c" fill="none" stroke-linejoin="round" />
<path d="M492.811 875.469 L217.947 298.358 Z" stroke-width="5" stroke="#5fb49c" fill="none" stroke-linejoin="round" />
<path d="M473.621 875.469 L206.668 313.883 Z" stroke-width="5" stroke="#5fb49c" fill="none" stroke-linejoin="round" />
<path d="M454.432 875.469 L195.389 329.407 Z" stroke-width="5" stroke="#5fb49c" fill="none" stroke-linejoin="round" />
<path d="M454.432 875.469 L184.11 344.931 Z" stroke-width="5" stroke="#5fb49c" fill="none" stroke-linejoin="round" />
<path d="M436.182 869.539 L184.11 344.931 Z" stroke-width="5" stroke="#5fb49c" fill="none" stroke-linejoin="round" />
<path d="M417.932 863.61 L178.18 363.182 Z" stroke-width="5" stroke="#5fb49c" fill="none" stroke-linejoin="round" />
<path d="M399.682 857.68 L172.25 381.432 Z" stroke-width="5" stroke="#5fb49c" fill="none" stroke-linejoin="round" />
<path d="M381.432 851.75 L166.32 399.682 Z" stroke-width="5" stroke="#5fb49c" fill="none" stroke-linejoin="round" />
<path d="M363.182 845.82 L160.39 417.932 Z" stroke-width="5" stroke="#5fb49c" fill="none" stroke-linejoin="round" />
<path d="M344.931 839.89 L154.461 436.182 Z" stroke-width="5" stroke="#5fb49c" fill="none" stroke-linejoin="round" />
<path d="M344.931 839.89 L148.531 454.432 Z" stroke-width="5" stroke="#5fb49c" fill="none" stroke-linejoin="round" />
<path d="M329.407 828.611 L148.531 454.432 Z" stroke-width="5" stroke="#5fb49c" fill="none" stroke-linejoin="round" />
<path d="M313.883 817.332 L148.531 473.621 Z" stroke-width="5" stroke="#5fb49c" fill="none" stroke-linejoin="round" />
<path d="M298.358 806.053 L148.531 492.811 Z" stroke-width="5" stroke="#5fb49c" fill="none" stroke-linejoin="round" />
<path d="M282.834 794.774 L148.531 512.0 Z" stroke-width="5" stroke="#5fb49c" fill="none" stroke-linejoin="round" />
<path d="M267.309 783.494 L148.531 531.189 Z" stroke-width="5" stroke="#5fb49c" fill="none" stroke-linejoin="round" />
<path d="M251.785 772.215 L148.531 550.379 Z" stroke-width="5" stroke="#5fb49c" fill="none" stroke-linejoin="round" />
<path d="M251.785 772.215 L148.531 569.568 Z" stroke-width="5" stroke="#5fb49c" fill="none" stroke-linejoin="round" />
<path d="M240.506 756.691 L148.531 569.568 Z" stroke-width="5" stroke="#5fb49c" fill="none" stroke-linejoin="round" />
<path d="M229.226 741.166 L154.461 587.818 Z" stroke-width="5" stroke="#5fb49c" fill="none" stroke-linejoin="round" />
<path d="M217.947 725.642 L160.39 606.068 Z" stroke-width="5" stroke="#5fb49c" fill="none" stroke-linejoin="round" />
<path d="M206.668 710.117 L166.32 624.318 Z" stroke-width="5" stroke="#5fb49c" fill="none" stroke-linejoin="round" />
<path d="M195.389 694.593 L172.25 642.568 Z" stroke-width="5" stroke="#5fb49c" fill="none" stroke-linejoin="round" />
<path d="M184.11 679.069 L178.18 660.818 Z" stroke-width="5" stroke="#5fb49c" fill="none" stroke-linejoin="round" />
<path d="M184.11 679.069 L184.11 679.069 Z" stroke-width="5" stroke="#5fb49c" fill="none" stroke-linejoin="round" />
<path d="M178.18 660.818 L184.11 679.069 Z" stroke-width="5" stroke="#5fb49c" fill="none" stroke-linejoin="round" />
<path d="M172.25 642.568 L195.389 694.593 Z" stroke-width="5" stroke="#5fb49c" fill="none" stroke-linejoin="round" />
<path d="M166.32 624.318 L206.668 710.117 Z" stroke-width="5" stroke="#5fb49c" fill="none" stroke-linejoin="round" />
<path d="M160.39 606.068 L217.947 725.642 Z" stroke-width="5" stroke="#5fb49c" fill="none" stroke-linejoin="round" />
<path d="M154.461 587.818 L229.226 741.166 Z" stroke-width="5" stroke="#5fb49c" fill="none" stroke-linejoin="round" />
<path d="M148.531 569.568 L240.506 756.691 Z" stroke-width="5" stroke="#5fb49c" fill="none" stroke-linejoin="round" />
<path d="M148.531 569.568 L251.785 772.215 Z" stroke-width="5" stroke="#5fb49c" fill="none" stroke-linejoin="round" />
<path d="M148.531 550.379 L251.785 772.215 Z" stroke-width="5" stroke="#5fb49c" fill="none" stroke-linejoin="round" />
<path d="M148.531 531.189 L267.309 783.494 Z" stroke-width="5" stroke="#5fb49c" fill="none" stroke-linejoin="round" />
<path d="M148.531 512.0 L282.834 794.774 Z" stroke-width="5" stroke="#5fb49c" fill="none" stroke-linejoin="round" />
<path d="M148.531 492.811 L298.358 806.053 Z" stroke-width="5" stroke="#5fb49c" fill="none" stroke-linejoin="round" />
<path d="M148.531 473.621 L313.883 817.332 Z" stroke-width="5" stroke="#5fb49c" fill="none" stroke-linejoin="round" />
<path d="M148.531 454.432 L329.407 828.611 Z" stroke-width="5" stroke="#5fb49c" fill="none" stroke-linejoin="round" />
<path d="M148.531 454.432 L344.931 839.89 Z" stroke-width="5" stroke="#5fb49c" fill="none" stroke-linejoin="round" />
<path d="M154.461 436.182 L344.931 839.89 Z" stroke-width="5" stroke="#5fb49c" fill="none" stroke-linejoin="round" />
<path d="M160.39 417.932 L363.182 845.82 Z" stroke-width="5" stroke="#5fb49c" fill="none" stroke-linejoin="round" />
<path d="M166.32 399.682 L381.432 851.75 Z" stroke-width="5" stroke="#5fb49c" fill="none" stroke-linejoin="round" />
<path d="M172.25 381.432 L399.682 857.68 Z" stroke-width="5" stroke="#5fb49c" fill="none" stroke-linejoin="round" />
<path d="M178.18 363.182 L417.932 863.61 Z" stroke-width="5" stroke="#5fb49c" fill="none" stroke-linejoin="round" />
<path d="M184.11 344.931 L436.182 869.539 Z" stroke-width="5" stroke="#5fb49c" fill="none" stroke-linejoin="round" />
<path d="M184.11 344.931 L454.432 875.469 Z" stroke-width="5" stroke="#5fb49c" fill="none" stroke-linejoin="round" />
<path d="M195.389 329.407 L454.432 875.469 Z" stroke-width="5" stroke="#5fb49c" fill="none" stroke-linejoin="round" />
<path d="M206.668 313.883 L473.621 875.469 Z" stroke-width="5" stroke="#5fb49c" fill="none" stroke-linejoin="round" />
<path d="M217.947 298.358 L492.811 875.469 Z" stroke-width="5" stroke="#5fb49c" fill="none" stroke-linejoin="round" />
<path d="M229.226 282.834 L512.0 875.469 Z" stroke-width="5" stroke="#5fb49c" fill="none" stroke-linejoin="round" />
<path d="M240.506 267.309 L531.189 875.469 Z" stroke-width="5" stroke="#5fb49c" fill="none" stroke-linejoin="round" />
<path d="M251.785 251.785 L550.379 875.469 Z" stroke-width="5" stroke="#5fb49c" fill="none" stroke-linejoin="round" />
<path d="M251.785 251.785 L569.568 875.469 Z" stroke-width="5" stroke="#5fb49c" fill="none" stroke-linejoin="round" />
<path d="M267.309 240.506 L569.568 875.469 Z" stroke-width="5" stroke="#5fb49c" fill="none" stroke-linejoin="round" />
<path d="M282.834 229.226 L587.818 869.539 Z" stroke-width="5" stroke="#5fb49c" fill="none" stroke-linejoin="round" />
<path d="M298.358 217.947 L606.068 863.61 Z" stroke-width="5" stroke="#5fb49c" fill="none" stroke-linejoin="round" />
<path d="M313.883 206.668 L624.318 857.68 Z" stroke-width="5" stroke="#5fb49c" fill="none" stroke-linejoin="round" />
<path d="M329.407 195.389 L642.568 851.75 Z" stroke-width="5" stroke="#5fb49c" fill="none" stroke-linejoin="round" />
<path d="M344.931 184.11 L660.818 845.82 Z" stroke-width="5" stroke="#5fb49c" fill="none" stroke-linejoin="round" />
<path d="M344.931 184.11 L679.069 839.89 Z" stroke-width="5" stroke="#5fb49c" fill="none" stroke-linejoin="round" />
<path d="M363.182 178.18 L679.069 839.89 Z" stroke-width="5" stroke="#5fb49c" fill="none" stroke-linejoin="round" />
<path d="M381.432 172.25 L694.593 828.611 Z" stroke-width="5" stroke="#5fb49c" fill="none" stroke-linejoin="round" />
<path d="M399.682 166.32 L710.117 817.332 Z" stroke-width="5" stroke="#5fb49c" fill="none" stroke-linejoin="round" />
<path d="M417.932 160.39 L725.642 806.053 Z" stroke-width="5" stroke="#5fb49c" fill="none" stroke-linejoin="round" />
<path d="M436.182 154.461 L741.166 794.774 Z" stroke-width="5" stroke="#5fb49c" fill="none" stroke-linejoin="round" />
<path d="M454.432 148.531 L756.691 783.494 Z" stroke-width="5" stroke="#5fb49c" fill="none" stroke-linejoin="round" />
<path d="M454.432 148.531 L772.215 772.215 Z" stroke-width="5" stroke="#5fb49c" fill="none" stroke-linejoin="round" />
<path d="M473.621 148.531 L772.215 772.215 Z" stroke-width="5" stroke="#5fb49c" fill="none" stroke-linejoin="round" />
<path d="M492.811 148.531 L783.494 756.691 Z" stroke-width="5" stroke="#5fb49c" fill="none" stroke-linejoin="round" />
<path d="M512.0 148.531 L794.774 741.166 Z" stroke-width="5" stroke="#5fb49c" fill="none" stroke-linejoin="round" />
<path d="M531.189 148.531 L806.053 725.642 Z" stroke-width="5" stroke="#5fb49c" fill="none" stroke-linejoin="round" />
<path d="M550.379 148.531 L817.332 710.117 Z" stroke-width="5" stroke="#5fb49c" fill="none" stroke-linejoin="round" />
<path d="M569.568 148.531 L828.611 694.593 Z" stroke-width="5" stroke="#5fb49c" fill="none" stroke-linejoin="round" />
<path d="M569.568 148.531 L839.89 679.069 Z" stroke-width="5" stroke="#5fb49c" fill="none" stroke-linejoin="round" />
<path d="M587.818 154.461 L839.89 679.069 Z" stroke-width="5" stroke="#5fb49c" fill="none" stroke-linejoin="round" />
<path d="M606.068 160.39 L845.82 660.818 Z" stroke-width="5" stroke="#5fb49c" fill="none" stroke-linejoin="round" />
<path d="M624.318 166.32 L851.75 642.568 Z" stroke-width="5" stroke="#5fb49c" fill="none" stroke-linejoin="round" />
<path d="M642.568 172.25 L857.68 624.318 Z" stroke-width="5" stroke="#5fb49c" fill="none" stroke-linejoin="round" />
<path d="M660.818 178.18 L863.61 606.068 Z" stroke-width="5" stroke="#5fb49c" fill="none" stroke-linejoin="round" />
<path d="M679.069 184.11 L869.539 587.818 Z" stroke-width="5" stroke="#5fb49c" fill="none" stroke-linejoin="round" />
<path d="M679.069 184.11 L875.469 569.568 Z" stroke-width="5" stroke="#5fb49c" fill="none" stroke-linejoin="round" />
<path d="M694.593 195.389 L875.469 569.568 Z" stroke-width="5" stroke="#5fb49c" fill="none" stroke-linejoin="round" />
<path d="M710.117 206.668 L875.469 550.379 Z" stroke-width="5" stroke="#5fb49c" fill="none" stroke-linejoin="round" />
<path d="M725.642 217.947 L875.469 531.189 Z" stroke-width="5" stroke="#5fb49c" fill="none" stroke-linejoin="round" />
<path d="M741.166 229.226 L875.469 512.0 Z" stroke-width="5" stroke="#5fb49c" fill="none" stroke-linejoin="round" />
<path d="M756.691 240.506 L875.469 492.811 Z" stroke-width="5" stroke="#5fb49c" fill="none" stroke-linejoin="round" />
<path d="M772.215 251.785 L875.469 473.621 Z" stroke-width="5" stroke="#5fb49c" fill="none" stroke-linejoin="round" />
<path d="M772.215 251.785 L875.469 454.432 Z" stroke-width="5" stroke="#5fb49c" fill="none" stroke-linejoin="round" />
<path d="M783.494 267.309 L875.469 454.432 Z" stroke-width="5" stroke="#5fb49c" fill="none" stroke-linejoin="round" />
<path d="M794.774 282.834 L869.539 436.182 Z" stroke-width="5" stroke="#5fb49c" fill="none" stroke-linejoin="round" />
<path d="M806.053 298.358 L863.61 417.932 Z" stroke-width="5" stroke="#5fb49c" fill="none" stroke-linejoin="round" />
<path d="M817.332 313.883 L857.68 399.682 Z" stroke-width="5" stroke="#5fb49c" fill="none" stroke-linejoin="round" />
<path d="M828.611 329.407 L851.75 381.432 Z" stroke-width="5" stroke="#5fb49c" fill="none" stroke-linejoin="round" />
<path d="M839.89 344.931 L845.82 363.182 Z" stroke-width="5" stroke="#5fb49c" fill="none" stroke-linejoin="round" />
<path d="M839.89 344.931 L839.89 344.931 Z" stroke-width="5" stroke="#5fb49c" fill="none" stroke-linejoin="round" />
<path d="M845.82 363.182 L839.89 344.931 Z" stroke-width="5" stroke="#5fb49c" fill="none" stroke-linejoin="round" />
<path d="M851.75 381.432 L828.611 329.407 Z" stroke-width="5" stroke="#5fb49c" fill="none" stroke-linejoin="round" />
<path d="M857.68 399.682 L817.332 313.883 Z" stroke-width="5" stroke="#5fb49c" fill="none" stroke-linejoin="round" />
<path d="M863.61 417.932 L806.053 298.358 Z" stroke-width="5" stroke="#5fb49c" fill="none" stroke-linejoin="round" />
<path d="M869.539 436.182 L794.774 282.834 Z" stroke-width="5" stroke="#5fb49c" fill="none" stroke-linejoin="round" />
<path d="M875.469 454.432 L783.494 267.309 Z" stroke-width="5" stroke="#5fb49c" fill="none" stroke-linejoin="round" />
<path d="M875.469 454.432 L772.215 251.785 Z" stroke-width="5" stroke="#5fb49c" fill="none" stroke-linejoin="round" />
<path d="M875.469 473.621 L772.215 251.785 Z" stroke-width="5" stroke="#5fb49c" fill="none" stroke-linejoin="round" />
<path d="M875.469 492.811 L756.691 240.506 Z" stroke-width="5" stroke="#5fb49c" fill="none" stroke-linejoin="round" />
<path d="M875.469 512.0 L741.166 229.226 Z" stroke-width="5" stroke="#5fb49c" fill="none" stroke-linejoin="round" />
<path d="M875.469 531.189 L725.642 217.947 Z" stroke-width="5" stroke="#5fb49c" fill="none" stroke-linejoin="round" />
<path d="M875.469 550.379 L710.117 206.668 Z" stroke-width="5" stroke="#5fb49c" fill="none" stroke-linejoin="round" />
<path d="M875.469 569.568 L694.593 195.389 Z" stroke-width="5" stroke="#5fb49c" fill="none" stroke-linejoin="round" />
<path d="M875.469 569.568 L679.069 184.11 Z" stroke-width="5" stroke="#5fb49c" fill="none" stroke-linejoin="round" />
<path d="M869.539 587.818 L679.069 184.11 Z" stroke-width="5" stroke="#5fb49c" fill="none" stroke-linejoin="round" />
<path d="M863.61 606.068 L660.818 178.18 Z" stroke-width="5" stroke="#5fb49c" fill="none" stroke-linejoin="round" />
<path d="M857.68 624.318 L642.568 172.25 Z" stroke-width="5" stroke="#5fb49c" fill="none" stroke-linejoin="round" />
<path d="M851.75 642.568 L624.318 166.32 Z" stroke-width="5" stroke="#5fb49c" fill="none" stroke-linejoin="round" />
<path d="M845.82 660.818 L606.068 160.39 Z" stroke-width="5" stroke="#5fb49c" fill="none" stroke-linejoin="round" />
<path d="M839.89 679.069 L587.818 154.461 Z" stroke-width="5" stroke="#5fb49c" fill="none" stroke-linejoin="round" />
<path d="M839.89 679.069 L569.568 148.531 Z" stroke-width="5" stroke="#5fb49c" fill="none" stroke-linejoin="round" />
<path d="M828.611 694.593 L569.568 148.531 Z" stroke-width="5" stroke="#5fb49c" fill="none" stroke-linejoin="round" />
<path d="M817.332 710.117 L550.379 148.531 Z" stroke-width="5" stroke="#5fb49c" fill="none" stroke-linejoin="round" />
<path d="M806.053 725.642 L531.189 148.531 Z" stroke-width="5" stroke="#5fb49c" fill="none" stroke-linejoin="round" />
<path d="M794.774 741.166 L512.0 148.531 Z" stroke-width="5" stroke="#5fb49c" fill="none" stroke-linejoin="round" />
<path d="M783.494 756.691 L492.811 148.531 Z" stroke-width="5" stroke="#5fb49c" fill="none" stroke-linejoin="round" />
<path d="M772.215 772.215 L473.621 148.531 Z" stroke-width="5" stroke="#5fb49c" fill="none" stroke-linejoin="round" />
<path d="M772.215 772.215 L454.432 148.531 Z" stroke-width="5" stroke="#5fb49c" fill="none" stroke-linejoin="round" />
<path d="M756.691 783.494 L454.432 148.531 Z" stroke-width="5" stroke="#5fb49c" fill="none" stroke-linejoin="round" />
<path d="M741.166 794.774 L436.182 154.461 Z" stroke-width="5" stroke="#5fb49c" fill="none" stroke-linejoin="round" />
<path d="M725.642 806.053 L417.932 160.39 Z" stroke-width="5" stroke="#5fb49c" fill="none" stroke-linejoin="round" />
<path d="M710.117 817.332 L399.682 166.32 Z" stroke-width="5" stroke="#5fb49c" fill="none" stroke-linejoin="round" />
<path d="M694.593 828.611 L381.432 172.25 Z" stroke-width="5" stroke="#5fb49c" fill="none" stroke-linejoin="round" />
<path d="M679.069 839.89 L363.182 178.18 Z" stroke-width="5" stroke="#5fb49c" fill="none" stroke-linejoin="round" />
<path d="M297.312 807.791 L879.496 531.26 Z" stroke-width="3" stroke="#414288" fill="none" stroke-linejoin="round" />
<path d="M283.052 794.95 L694.897 195.564 Z" stroke-width="3" stroke="#414288" fill="none" stroke-linejoin="round" />
<path d="M268.792 782.11 L677.367 187.759 Z" stroke-width="3" stroke="#414288" fill="none" stroke-linejoin="round" />
<path d="M254.531 769.27 L659.836 179.954 Z" stroke-width="3" stroke="#414288" fill="none" stroke-linejoin="round" />
<path d="M240.271 756.43 L642.306 172.149 Z" stroke-width="3" stroke="#414288" fill="none" stroke-linejoin="round" />
<path d="M168.442 380.121 L624.776 164.344 Z" stroke-width="3" stroke="#414288" fill="none" stroke-linejoin="round" />
<path d="M168.442 380.121 L867.461 416.755 Z" stroke-width="3" stroke="#414288" fill="none" stroke-linejoin="round" />
<path d="M216.416 726.971 L867.461 416.755 Z" stroke-width="3" stroke="#414288" fill="none" stroke-linejoin="round" />
<path d="M206.821 710.353 L588.161 154.533 Z" stroke-width="3" stroke="#414288" fill="none" stroke-linejoin="round" />
<path d="M197.226 693.735 L569.077 152.528 Z" stroke-width="3" stroke="#414288" fill="none" stroke-linejoin="round" />
<path d="M187.632 677.116 L549.993 150.522 Z" stroke-width="3" stroke="#414288" fill="none" stroke-linejoin="round" />
<path d="M178.037 660.498 L530.909 148.516 Z" stroke-width="3" stroke="#414288" fill="none" stroke-linejoin="round" />
<path d="M226.01 280.41 L511.825 146.51 Z" stroke-width="3" stroke="#414288" fill="none" stroke-linejoin="round" />
<path d="M226.01 280.41 L820.631 311.573 Z" stroke-width="3" stroke="#414288" fill="none" stroke-linejoin="round" />
<path d="M164.453 625.109 L820.631 311.573 Z" stroke-width="3" stroke="#414288" fill="none" stroke-linejoin="round" />
<path d="M160.463 606.339 L473.97 148.494 Z" stroke-width="3" stroke="#414288" fill="none" stroke-linejoin="round" />
<path d="M156.473 587.57 L455.2 152.484 Z" stroke-width="3" stroke="#414288" fill="none" stroke-linejoin="round" />
<path d="M152.484 568.8 L436.43 156.473 Z" stroke-width="3" stroke="#414288" fill="none" stroke-linejoin="round" />
<path d="M148.494 550.03 L417.661 160.463 Z" stroke-width="3" stroke="#414288" fill="none" stroke-linejoin="round" />
<path d="M311.573 203.369 L398.891 164.453 Z" stroke-width="3" stroke="#414288" fill="none" stroke-linejoin="round" />
<path d="M311.573 203.369 L743.59 226.01 Z" stroke-width="3" stroke="#414288" fill="none" stroke-linejoin="round" />
<path d="M146.51 512.175 L743.59 226.01 Z" stroke-width="3" stroke="#414288" fill="none" stroke-linejoin="round" />
<path d="M148.516 493.091 L363.502 178.037 Z" stroke-width="3" stroke="#414288" fill="none" stroke-linejoin="round" />
<path d="M150.522 474.007 L346.884 187.632 Z" stroke-width="3" stroke="#414288" fill="none" stroke-linejoin="round" />
<path d="M152.528 454.923 L330.265 197.226 Z" stroke-width="3" stroke="#414288" fill="none" stroke-linejoin="round" />
<path d="M154.533 435.839 L313.647 206.821 Z" stroke-width="3" stroke="#414288" fill="none" stroke-linejoin="round" />
<path d="M416.755 156.539 L297.029 216.416 Z" stroke-width="3" stroke="#414288" fill="none" stroke-linejoin="round" />
<path d="M416.755 156.539 L643.879 168.442 Z" stroke-width="3" stroke="#414288" fill="none" stroke-linejoin="round" />
<path d="M164.344 399.224 L643.879 168.442 Z" stroke-width="3" stroke="#414288" fill="none" stroke-linejoin="round" />
<path d="M172.149 381.694 L267.57 240.271 Z" stroke-width="3" stroke="#414288" fill="none" stroke-linejoin="round" />
<path d="M179.954 364.164 L254.73 254.531 Z" stroke-width="3" stroke="#414288" fill="none" stroke-linejoin="round" />
<path d="M187.759 346.633 L241.89 268.792 Z" stroke-width="3" stroke="#414288" fill="none" stroke-linejoin="round" />
<path d="M195.564 329.103 L229.05 283.052 Z" stroke-width="3" stroke="#414288" fill="none" stroke-linejoin="round" />
<path d="M531.26 144.504 L216.209 297.312 Z" stroke-width="3" stroke="#414288" fill="none" stroke-linejoin="round" />
<path d="M531.26 144.504 L531.26 144.504 Z" stroke-width="3" stroke="#414288" fill="none" stroke-linejoin="round" />
<path d="M216.209 297.312 L531.26 144.504 Z" stroke-width="3" stroke="#414288" fill="none" stroke-linejoin="round" />
<path d="M229.05 283.052 L195.564 329.103 Z" stroke-width="3" stroke="#414288" fill="none" stroke-linejoin="round" />
<path d="M241.89 268.792 L187.759 346.633 Z" stroke-width="3" stroke="#414288" fill="none" stroke-linejoin="round" />
<path d="M254.73 254.531 L179.954 364.164 Z" stroke-width="3" stroke="#414288" fill="none" stroke-linejoin="round" />
<path d="M267.57 240.271 L172.149 381.694 Z" stroke-width="3" stroke="#414288" fill="none" stroke-linejoin="round" />
<path d="M643.879 168.442 L164.344 399.224 Z" stroke-width="3" stroke="#414288" fill="none" stroke-linejoin="round" />
<path d="M643.879 168.442 L416.755 156.539 Z" stroke-width="3" stroke="#414288" fill="none" stroke-linejoin="round" />
<path d="M297.029 216.416 L416.755 156.539 Z" stroke-width="3" stroke="#414288" fill="none" stroke-linejoin="round" />
<path d="M313.647 206.821 L154.533 435.839 Z" stroke-width="3" stroke="#414288" fill="none" stroke-linejoin="round" />
<path d="M330.265 197.226 L152.528 454.923 Z" stroke-width="3" stroke="#414288" fill="none" stroke-linejoin="round" />
<path d="M346.884 187.632 L150.522 474.007 Z" stroke-width="3" stroke="#414288" fill="none" stroke-linejoin="round" />
<path d="M363.502 178.037 L148.516 493.091 Z" stroke-width="3" stroke="#414288" fill="none" stroke-linejoin="round" />
<path d="M743.59 226.01 L146.51 512.175 Z" stroke-width="3" stroke="#414288" fill="none" stroke-linejoin="round" />
<path d="M743.59 226.01 L311.573 203.369 Z" stroke-width="3" stroke="#414288" fill="none" stroke-linejoin="round" />
<path d="M398.891 164.453 L311.573 203.369 Z" stroke-width="3" stroke="#414288" fill="none" stroke-linejoin="round" />
<path d="M417.661 160.463 L148.494 550.03 Z" stroke-width="3" stroke="#414288" fill="none" stroke-linejoin="round" />
<path d="M436.43 156.473 L152.484 568.8 Z" stroke-width="3" stroke="#414288" fill="none" stroke-linejoin="round" />
<path d="M455.2 152.484 L156.473 587.57 Z" stroke-width="3" stroke="#414288" fill="none" stroke-linejoin="round" />
<path d="M473.97 148.494 L160.463 606.339 Z" stroke-width="3" stroke="#414288" fill="none" stroke-linejoin="round" />
<path d="M820.631 311.573 L164.453 625.109 Z" stroke-width="3" stroke="#414288" fill="none" stroke-linejoin="round" />
<path d="M820.631 311.573 L226.01 280.41 Z" stroke-width="3" stroke="#414288" fill="none" stroke-linejoin="round" />
<path d="M511.825 146.51 L226.01 280.41 Z" stroke-width="3" stroke="#414288" fill="none" stroke-linejoin="round" />
<path d="M530.909 148.516 L178.037 660.498 Z" stroke-width="3" stroke="#414288" fill="none" stroke-linejoin="round" />
<path d="M549.993 150.522 L187.632 677.116 Z" stroke-width="3" stroke="#414288" fill="none" stroke-linejoin="round" />
<path d="M569.077 152.528 L197.226 693.735 Z" stroke-width="3" stroke="#414288" fill="none" stroke-linejoin="round" />
<path d="M588.161 154.533 L206.821 710.353 Z" stroke-width="3" stroke="#414288" fill="none" stroke-linejoin="round" />
<path d="M867.461 416.755 L216.416 726.971 Z" stroke-width="3" stroke="#414288" fill="none" stroke-linejoin="round" />
<path d="M867.461 416.755 L168.442 380.121 Z" stroke-width="3" stroke="#414288" fill="none" stroke-linejoin="round" />
<path d="M624.776 164.344 L168.442 380.121 Z" stroke-width="3" stroke="#414288" fill="none" stroke-linejoin="round" />
<path d="M642.306 172.149 L240.271 756.43 Z" stroke-width="3" stroke="#414288" fill="none" stroke-linejoin="round" />
<path d="M659.836 179.954 L254.531 769.27 Z" stroke-width="3" stroke="#414288" fill="none" stroke-linejoin="round" />
<path d="M677.367 187.759 L268.792 782.11 Z" stroke-width="3" stroke="#414288" fill="none" stroke-linejoin="round" />
<path d="M694.897 195.564 L283.052 794.95 Z" stroke-width="3" stroke="#414288" fill="none" stroke-linejoin="round" />
<path d="M879.496 531.26 L297.312 807.791 Z" stroke-width="3" stroke="#414288" fill="none" stroke-linejoin="round" />
<path d="M879.496 531.26 L144.504 492.74 Z" stroke-width="3" stroke="#414288" fill="none" stroke-linejoin="round" />
<path d="M726.688 216.209 L144.504 492.74 Z" stroke-width="3" stroke="#414288" fill="none" stroke-linejoin="round" />
<path d="M740.948 229.05 L329.103 828.436 Z" stroke-width="3" stroke="#414288" fill="none" stroke-linejoin="round" />
<path d="M755.208 241.89 L346.633 836.241 Z" stroke-width="3" stroke="#414288" fill="none" stroke-linejoin="round" />
<path d="M769.469 254.73 L364.164 844.046 Z" stroke-width="3" stroke="#414288" fill="none" stroke-linejoin="round" />
<path d="M783.729 267.57 L381.694 851.851 Z" stroke-width="3" stroke="#414288" fill="none" stroke-linejoin="round" />
<path d="M855.558 643.879 L399.224 859.656 Z" stroke-width="3" stroke="#414288" fill="none" stroke-linejoin="round" />
<path d="M855.558 643.879 L156.539 607.245 Z" stroke-width="3" stroke="#414288" fill="none" stroke-linejoin="round" />
<path d="M807.584 297.029 L156.539 607.245 Z" stroke-width="3" stroke="#414288" fill="none" stroke-linejoin="round" />
<path d="M817.179 313.647 L435.839 869.467 Z" stroke-width="3" stroke="#414288" fill="none" stroke-linejoin="round" />
<path d="M826.774 330.265 L454.923 871.472 Z" stroke-width="3" stroke="#414288" fill="none" stroke-linejoin="round" />
<path d="M836.368 346.884 L474.007 873.478 Z" stroke-width="3" stroke="#414288" fill="none" stroke-linejoin="round" />
<path d="M845.963 363.502 L493.091 875.484 Z" stroke-width="3" stroke="#414288" fill="none" stroke-linejoin="round" />
<path d="M797.99 743.59 L512.175 877.49 Z" stroke-width="3" stroke="#414288" fill="none" stroke-linejoin="round" />
<path d="M797.99 743.59 L203.369 712.427 Z" stroke-width="3" stroke="#414288" fill="none" stroke-linejoin="round" />
<path d="M859.547 398.891 L203.369 712.427 Z" stroke-width="3" stroke="#414288" fill="none" stroke-linejoin="round" />
<path d="M863.537 417.661 L550.03 875.506 Z" stroke-width="3" stroke="#414288" fill="none" stroke-linejoin="round" />
<path d="M867.527 436.43 L568.8 871.516 Z" stroke-width="3" stroke="#414288" fill="none" stroke-linejoin="round" />
<path d="M871.516 455.2 L587.57 867.527 Z" stroke-width="3" stroke="#414288" fill="none" stroke-linejoin="round" />
<path d="M875.506 473.97 L606.339 863.537 Z" stroke-width="3" stroke="#414288" fill="none" stroke-linejoin="round" />
<path d="M712.427 820.631 L625.109 859.547 Z" stroke-width="3" stroke="#414288" fill="none" stroke-linejoin="round" />
<path d="M712.427 820.631 L280.41 797.99 Z" stroke-width="3" stroke="#414288" fill="none" stroke-linejoin="round" />
<path d="M877.49 511.825 L280.41 797.99 Z" stroke-width="3" stroke="#414288" fill="none" stroke-linejoin="round" />
<path d="M875.484 530.909 L660.498 845.963 Z" stroke-width="3" stroke="#414288" fill="none" stroke-linejoin="round" />
<path d="M873.478 549.993 L677.116 836.368 Z" stroke-width="3" stroke="#414288" fill="none" stroke-linejoin="round" />
<path d="M871.472 569.077 L693.735 826.774 Z" stroke-width="3" stroke="#414288" fill="none" stroke-linejoin="round" />
<path d="M869.467 588.161 L710.353 817.179 Z" stroke-width="3" stroke="#414288" fill="none" stroke-linejoin="round" />
<path d="M607.245 867.461 L726.971 807.584 Z" stroke-width="3" stroke="#414288" fill="none" stroke-linejoin="round" />
<path d="M607.245 867.461 L380.121 855.558 Z" stroke-width="3" stroke="#414288" fill="none" stroke-linejoin="round" />
<path d="M859.656 624.776 L380.121 855.558 Z" stroke-width="3" stroke="#414288" fill="none" stroke-linejoin="round" />
<path d="M851.851 642.306 L756.43 783.729 Z" stroke-width="3" stroke="#414288" fill="none" stroke-linejoin="round" />
<path d="M844.046 659.836 L769.27 769.469 Z" stroke-width="3" stroke="#414288" fill="none" stroke-linejoin="round" />
<path d="M836.241 677.367 L782.11 755.208 Z" stroke-width="3" stroke="#414288" fill="none" stroke-linejoin="round" />
<path d="M828.436 694.897 L794.95 740.948 Z" stroke-width="3" stroke="#414288" fill="none" stroke-linejoin="round" />
<path d="M492.74 879.496 L807.791 726.688 Z" stroke-width="3" stroke="#414288" fill="none" stroke-linejoin="round" />
<path d="M492.74 879.496 L492.74 879.496 Z" stroke-width="3" stroke="#414288" fill="none" stroke-linejoin="round" />
<path d="M807.791 726.688 L492.74 879.496 Z" stroke-width="3" stroke="#414288" fill="none" stroke-linejoin="round" />
<path d="M794.95 740.948 L828.436 694.897 Z" stroke-width="3" stroke="#414288" fill="none" stroke-linejoin="round" />
<path d="M782.11 755.208 L836.241 677.367 Z" stroke-width="3" stroke="#414288" fill="none" stroke-linejoin="round" />
<path d="M769.27 769.469 L844.046 659.836 Z" stroke-width="3" stroke="#414288" fill="none" stroke-linejoin="round" />
<path d="M756.43 783.729 L851.851 642.306 Z" stroke-width="3" stroke="#414288" fill="none" stroke-linejoin="round" />
<path d="M380.121 855.558 L859.656 624.776 Z" stroke-width="3" stroke="#414288" fill="none" stroke-linejoin="round" />
<path d="M380.121 855.558 L607.245 867.461 Z" stroke-width="3" stroke="#414288" fill="none" stroke-linejoin="round" />
<path d="M726.971 807.584 L607.245 867.461 Z" stroke-width="3" stroke="#414288" fill="none" stroke-linejoin="round" />
<path d="M710.353 817.179 L869.467 588.161 Z" stroke-width="3" stroke="#414288" fill="none" stroke-linejoin="round" />
<path d="M693.735 826.774 L871.472 569.077 Z" stroke-width="3" stroke="#414288" fill="none" stroke-linejoin="round" />
<path d="M677.116 836.368 L873.478 549.993 Z" stroke-width="3" stroke="#414288" fill="none" stroke-linejoin="round" />
<path d="M660.498 845.963 L875.484 530.909 Z" stroke-width="3" stroke="#414288" fill="none" stroke-linejoin="round" />
<path d="M280.41 797.99 L877.49 511.825 Z" stroke-width="3" stroke="#414288" fill="none" stroke-linejoin="round" />
<path d="M280.41 797.99 L712.427 820.631 Z" stroke-width="3" stroke="#414288" fill="none" stroke-linejoin="round" />
<path d="M625.109 859.547 L712.427 820.631 Z" stroke-width="3" stroke="#414288" fill="none" stroke-linejoin="round" />
<path d="M606.339 863.537 L875.506 473.97 Z" stroke-width="3" stroke="#414288" fill="none" stroke-linejoin="round" />
<path d="M587.57 867.527 L871.516 455.2 Z" stroke-width="3" stroke="#414288" fill="none" stroke-linejoin="round" />
<path d="M568.8 871.516 L867.527 436.43 Z" stroke-width="3" stroke="#414288" fill="none" stroke-linejoin="round" />
<path d="M550.03 875.506 L863.537 417.661 Z" stroke-width="3" stroke="#414288" fill="none" stroke-linejoin="round" />
<path d="M203.369 712.427 L859.547 398.891 Z" stroke-width="3" stroke="#414288" fill="none" stroke-linejoin="round" />
<path d="M203.369 712.427 L797.99 743.59 Z" stroke-width="3" stroke="#414288" fill="none" stroke-linejoin="round" />
<path d="M512.175 877.49 L797.99 743.59 Z" stroke-width="3" stroke="#414288" fill="none" stroke-linejoin="round" />
<path d="M493.091 875.484 L845.963 363.502 Z" stroke-width="3" stroke="#414288" fill="none" stroke-linejoin="round" />
<path d="M474.007 873.478 L836.368 346.884 Z" stroke-width="3" stroke="#414288" fill="none" stroke-linejoin="round" />
<path d="M454.923 871.472 L826.774 330.265 Z" stroke-width="3" stroke="#414288" fill="none" stroke-linejoin="round" />
<path d="M435.839 869.467 L817.179 313.647 Z" stroke-width="3" stroke="#414288" fill="none" stroke-linejoin="round" />
<path d="M156.539 607.245 L807.584 297.029 Z" stroke-width="3" stroke="#414288" fill="none" stroke-linejoin="round" />
<path d="M156.539 607.245 L855.558 643.879 Z" stroke-width="3" stroke="#414288" fill="none" stroke-linejoin="round" />
<path d="M399.224 859.656 L855.558 643.879 Z" stroke-width="3" stroke="#414288" fill="none" stroke-linejoin="round" />
<path d="M381.694 851.851 L783.729 267.57 Z" stroke-width="3" stroke="#414288" fill="none" stroke-linejoin="round" />
<path d="M364.164 844.046 L769.469 254.73 Z" stroke-width="3" stroke="#414288" fill="none" stroke-linejoin="round" />
<path d="M346.633 836.241 L755.208 241.89 Z" stroke-width="3" stroke="#414288" fill="none" stroke-linejoin="round" />
<path d="M329.103 828.436 L740.948 229.05 Z" stroke-width="3" stroke="#414288" fill="none" stroke-linejoin="round" />
<path d="M144.504 492.74 L726.688 216.209 Z" stroke-width="3" stroke="#414288" fill="none" stroke-linejoin="round" />
</svg>