<svg width="1024" height="1024">
<rect width="100%" height="100%" fill="#98dfaf" />
<path d="M642.528 854.04 L351.434 184.265 Z" stroke-width="5" stroke="#5fb49c" fill="none" stroke-linejoin="round" />
<path d="M626.444 858.547 L336.113 190.919 Z" stroke-width="5" stroke="#5fb49c" fill="none" stroke-linejoin="round" />
<path d="M610.36 863.053 L320.793 197.574 Z" stroke-width="5" stroke="#5fb49c" fill="none" stroke-linejoin="round" />
<path d="M594.277 867.56 L320.793 197.574 Z" stroke-width="5" stroke="#5fb49c" fill="none" stroke-linejoin="round" />
<path d="M578.193 872.066 L307.836 208.115 Z" stroke-width="5" stroke="#5fb49c" fill="none" stroke-linejoin="round" />
<path d="M562.109 876.572 L294.88 218.656 Z" stroke-width="5" stroke="#5fb49c" fill="none" stroke-linejoin="round" />
<path d="M562.109 876.572 L281.923 229.197 Z" stroke-width="5" stroke="#5fb49c" fill="none" stroke-linejoin="round" />
<path d="M545.406 876.572 L268.966 239.738 Z" stroke-width="5" stroke="#5fb49c" fill="none" stroke-linejoin="round" />
<path d="M528.703 876.572 L256.009 250.279 Z" stroke-width="5" stroke="#5fb49c" fill="none" stroke-linejoin="round" />
<path d="M512.0 876.572 L243.052 260.82 Z" stroke-width="5" stroke="#5fb49c" fill="none" stroke-linejoin="round" />
<path d="M495.297 876.572 L243.052 260.82 Z" stroke-width="5" stroke="#5fb49c" fill="none" stroke-linejoin="round" />
<path d="M478.594 876.572 L233.42 274.466 Z" stroke-width="5" stroke="#5fb49c" fill="none" stroke-linejoin="round" />
<path d="M461.891 876.572 L223.788 288.112 Z" stroke-width="5" stroke="#5fb49c" fill="none" stroke-linejoin="round" />
<path d="M461.891 876.572 L214.155 301.758 Z" stroke-width="5" stroke="#5fb49c" fill="none" stroke-linejoin="round" />
<path d="M445.807 872.066 L204.523 315.404 Z" stroke-width="5" stroke="#5fb49c" fill="none" stroke-linejoin="round" />
<path d="M429.723 867.56 L194.891 329.05 Z" stroke-width="5" stroke="#5fb49c" fill="none" stroke-linejoin="round" />
<path d="M413.64 863.053 L185.258 342.696 Z" stroke-width="5" stroke="#5fb49c" fill="none" stroke-linejoin="round" />
<path d="M397.556 858.547 L185.258 342.696 Z" stroke-width="5" stroke="#5fb49c" fill="none" stroke-linejoin="round" />
<path d="M381.472 854.04 L179.665 358.435 Z" stroke-width="5" stroke="#5fb49c" fill="none" stroke-linejoin="round" />
<path d="M365.388 849.534 L174.071 374.173 Z" stroke-width="5" stroke="#5fb49c" fill="none" stroke-linejoin="round" />
<path d="M365.388 849.534 L168.478 389.912 Z" stroke-width="5" stroke="#5fb49c" fill="none" stroke-linejoin="round" />
<path d="M351.117 840.855 L162.884 405.651 Z" stroke-width="5" stroke="#5fb49c" fill="none" stroke-linejoin="round" />
<path d="M336.845 832.176 L157.291 421.39 Z" stroke-width="5" stroke="#5fb49c" fill="none" stroke-linejoin="round" />
<path d="M322.574 823.498 L151.697 437.128 Z" stroke-width="5" stroke="#5fb49c" fill="none" stroke-linejoin="round" />
<path d="M308.303 814.819 L151.697 437.128 Z" stroke-width="5" stroke="#5fb49c" fill="none" stroke-linejoin="round" />
<path d="M294.031 806.14 L150.557 453.792 Z" stroke-width="5" stroke="#5fb49c" fill="none" stroke-linejoin="round" />
<path d="M279.76 797.462 L149.417 470.457 Z" stroke-width="5" stroke="#5fb49c" fill="none" stroke-linejoin="round" />
<path d="M279.76 797.462 L148.277 487.121 Z" stroke-width="5" stroke="#5fb49c" fill="none" stroke-linejoin="round" />
<path d="M268.359 785.255 L147.138 503.785 Z" stroke-width="5" stroke="#5fb49c" fill="none" stroke-linejoin="round" />
<path d="M256.958 773.047 L145.998 520.449 Z" stroke-width="5" stroke="#5fb49c" fill="none" stroke-linejoin="round" />
<path d="M245.557 760.84 L144.858 537.113 Z" stroke-width="5" stroke="#5fb49c" fill="none" stroke-linejoin="round" />
<path d="M234.157 748.633 L144.858 537.113 Z" stroke-width="5" stroke="#5fb49c" fill="none" stroke-linejoin="round" />
<path d="M222.756 736.426 L148.256 553.467 Z" stroke-width="5" stroke="#5fb49c" fill="none" stroke-linejoin="round" />
<path d="M211.355 724.218 L151.655 569.821 Z" stroke-width="5" stroke="#5fb49c" fill="none" stroke-linejoin="round" />
<path d="M211.355 724.218 L155.053 586.174 Z" stroke-width="5" stroke="#5fb49c" fill="none" stroke-linejoin="round" />
<path d="M203.671 709.388 L158.451 602.528 Z" stroke-width="5" stroke="#5fb49c" fill="none" stroke-linejoin="round" />
<path d="M195.986 694.557 L161.85 618.882 Z" stroke-width="5" stroke="#5fb49c" fill="none" stroke-linejoin="round" />
<path d="M188.302 679.727 L165.248 635.236 Z" stroke-width="5" stroke="#5fb49c" fill="none" stroke-linejoin="round" />
<path d="M180.617 664.897 L165.248 635.236 Z" stroke-width="5" stroke="#5fb49c" fill="none" stroke-linejoin="round" />
<path d="M172.932 650.066 L172.932 650.066 Z" stroke-width="5" stroke="#5fb49c" fill="none" stroke-linejoin="round" />
<path d="M165.248 635.236 L180.617 664.897 Z" stroke-width="5" stroke="#5fb49c" fill="none" stroke-linejoin="round" />
<path d="M165.248 635.236 L188.302 679.727 Z" stroke-width="5" stroke="#5fb49c" fill="none" stroke-linejoin="round" />
<path d="M161.85 618.882 L195.986 694.557 Z" stroke-width="5" stroke="#5fb49c" fill="none" stroke-linejoin="round" />
<path d="M158.451 602.528 L203.671 709.388 Z" stroke-width="5" stroke="#5fb49c" fill="none" stroke-linejoin="round" />
<path d="M155.053 586.174 L211.355 724.218 Z" stroke-width="5" stroke="#5fb49c" fill="none" stroke-linejoin="round" />
<path d="M151.655 569.821 L211.355 724.218 Z" stroke-width="5" stroke="#5fb49c" fill="none" stroke-linejoin="round" />
<path d="M148.256 553.467 L222.756 736.426 Z" stroke-width="5" stroke="#5fb49c" fill="none" stroke-linejoin="round" />
<path d="M144.858 537.113 L234.157 748.633 Z" stroke-width="5" stroke="#5fb49c" fill="none" stroke-linejoin="round" />
<path d="M144.858 537.113 L245.557 760.84 Z" stroke-width="5" stroke="#5fb49c" fill="none" stroke-linejoin="round" />
<path d="M145.998 520.449 L256.958 773.047 Z" stroke-width="5" stroke="#5fb49c" fill="none" stroke-linejoin="round" />
<path d="M147.138 503.785 L268.359 785.255 Z" stroke-width="5" stroke="#5fb49c" fill="none" stroke-linejoin="round" />
<path d="M148.277 487.121 L279.76 797.462 Z" stroke-width="5" stroke="#5fb49c" fill="none" stroke-linejoin="round" />
<path d="M149.417 470.457 L279.76 797.462 Z" stroke-width="5" stroke="#5fb49c" fill="none" stroke-linejoin="round" />
<path d="M150.557 453.792 L294.031 806.14 Z" stroke-width="5" stroke="#5fb49c" fill="none" stroke-linejoin="round" />
<path d="M151.697 437.128 L308.303 814.819 Z" stroke-width="5" stroke="#5fb49c" fill="none" stroke-linejoin="round" />
<path d="M151.697 437.128 L322.574 823.498 Z" stroke-width="5" stroke="#5fb49c" fill="none" stroke-linejoin="round" />
<path d="M157.291 421.39 L336.845 832.176 Z" stroke-width="5" stroke="#5fb49c" fill="none" stroke-linejoin="round" />
<path d="M162.884 405.651 L351.117 840.855 Z" stroke-width="5" stroke="#5fb49c" fill="none" stroke-linejoin="round" />
<path d="M168.478 389.912 L365.388 849.534 Z" stroke-width="5" stroke="#5fb49c" fill="none" stroke-linejoin="round" />
<path d="M174.071 374.173 L365.388 849.534 Z" stroke-width="5" stroke="#5fb49c" fill="none" stroke-linejoin="round" />
<path d="M179.665 358.435 L381.472 854.04 Z" stroke-width="5" stroke="#5fb49c" fill="none" stroke-linejoin="round" />
<path d="M185.258 342.696 L397.556 858.547 Z" stroke-width="5" stroke="#5fb49c" fill="none" stroke-linejoin="round" />
<path d="M185.258 342.696 L413.64 863.053 Z" stroke-width="5" stroke="#5fb49c" fill="none" stroke-linejoin="round" />
<path d="M194.891 329.05 L429.723 867.56 Z" stroke-width="5" stroke="#5fb49c" fill="none" stroke-linejoin="round" />
<path d="M204.523 315.404 L445.807 872.066 Z" stroke-width="5" stroke="#5fb49c" fill="none" stroke-linejoin="round" />
<path d="M214.155 301.758 L461.891 876.572 Z" stroke-width="5" stroke="#5fb49c" fill="none" stroke-linejoin="round" />
<path d="M223.788 288.112 L461.891 876.572 Z" stroke-width="5" stroke="#5fb49c" fill="none" stroke-linejoin="round" />
<path d="M233.42 274.466 L478.594 876.572 Z" stroke-width="5" stroke="#5fb49c" fill="none" stroke-linejoin="round" />
<path d="M243.052 260.82 L495.297 876.572 Z" stroke-width="5" stroke="#5fb49c" fill="none" stroke-linejoin="round" />
<path d="M243.052 260.82 L512.0 876.572 Z" stroke-width="5" stroke="#5fb49c" fill="none" stroke-linejoin="round" />
<path d="M256.009 250.279 L528.703 876.572 Z" stroke-width="5" stroke="#5fb49c" fill="none" stroke-linejoin="round" />
<path d="M268.966 239.738 L545.406 876.572 Z" stroke-width="5" stroke="#5fb49c" fill="none" stroke-linejoin="round" />
<path d="M281.923 229.197 L562.109 876.572 Z" stroke-width="5" stroke="#5fb49c" fill="none" stroke-linejoin="round" />
<path d="M294.88 218.656 L562.109 876.572 Z" stroke-width="5" stroke="#5fb49c" fill="none" stroke-linejoin="round" />
<path d="M307.836 208.115 L578.193 872.066 Z" stroke-width="5" stroke="#5fb49c" fill="none" stroke-linejoin="round" />
<path d="M320.793 197.574 L594.277 867.56 Z" stroke-width="5" stroke="#5fb49c" fill="none" stroke-linejoin="round" />
<path d="M320.793 197.574 L610.36 863.053 Z" stroke-width="5" stroke="#5fb49c" fill="none" stroke-linejoin="round" />
<path d="M336.113 190.919 L626.444 858.547 Z" stroke-width="5" stroke="#5fb49c" fill="none" stroke-linejoin="round" />
<path d="M351.434 184.265 L642.528 854.04 Z" stroke-width="5" stroke="#5fb49c" fill="none" stroke-linejoin="round" />
<path d="M366.754 177.61 L658.612 849.534 Z" stroke-width="5" stroke="#5fb49c" fill="none" stroke-linejoin="round" />
<path d="M382.074 170.956 L658.612 849.534 Z" stroke-width="5" stroke="#5fb49c" fill="none" stroke-linejoin="round" />
<path d="M397.395 164.301 L672.883 840.855 Z" stroke-width="5" stroke="#5fb49c" fill="none" stroke-linejoin="round" />
<path d="M412.715 157.646 L687.155 832.176 Z" stroke-width="5" stroke="#5fb49c" fill="none" stroke-linejoin="round" />
<path d="M412.715 157.646 L701.426 823.498 Z" stroke-width="5" stroke="#5fb49c" fill="none" stroke-linejoin="round" />
<path d="M429.262 155.372 L715.697 814.819 Z" stroke-width="5" stroke="#5fb49c" fill="none" stroke-linejoin="round" />
<path d="M445.81 153.098 L729.969 806.14 Z" stroke-width="5" stroke="#5fb49c" fill="none" stroke-linejoin="round" />
<path d="M462.357 150.823 L744.24 797.462 Z" stroke-width="5" stroke="#5fb49c" fill="none" stroke-linejoin="round" />
<path d="M478.905 148.549 L744.24 797.462 Z" stroke-width="5" stroke="#5fb49c" fill="none" stroke-linejoin="round" />
<path d="M495.452 146.274 L755.641 785.255 Z" stroke-width="5" stroke="#5fb49c" fill="none" stroke-linejoin="round" />
<path d="M512.0 144.0 L767.042 773.047 Z" stroke-width="5" stroke="#5fb49c" fill="none" stroke-linejoin="round" />
<path d="M512.0 144.0 L778.443 760.84 Z" stroke-width="5" stroke="#5fb49c" fill="none" stroke-linejoin="round" />
<path d="M528.548 146.274 L789.843 748.633 Z" stroke-width="5" stroke="#5fb49c" fill="none" stroke-linejoin="round" />
<path d="M545.095 148.549 L801.244 736.426 Z" stroke-width="5" stroke="#5fb49c" fill="none" stroke-linejoin="round" />
<path d="M561.643 150.823 L812.645 724.218 Z" stroke-width="5" stroke="#5fb49c" fill="none" stroke-linejoin="round" />
<path d="M578.19 153.098 L812.645 724.218 Z" stroke-width="5" stroke="#5fb49c" fill="none" stroke-linejoin="round" />
<path d="M594.738 155.372 L820.329 709.388 Z" stroke-width="5" stroke="#5fb49c" fill="none" stroke-linejoin="round" />
<path d="M611.285 157.646 L828.014 694.557 Z" stroke-width="5" stroke="#5fb49c" fill="none" stroke-linejoin="round" />
<path d="M611.285 157.646 L835.698 679.727 Z" stroke-width="5" stroke="#5fb49c" fill="none" stroke-linejoin="round" />
<path d="M626.605 164.301 L843.383 664.897 Z" stroke-width="5" stroke="#5fb49c" fill="none" stroke-linejoin="round" />
<path d="M641.926 170.956 L851.068 650.066 Z" stroke-width="5" stroke="#5fb49c" fill="none" stroke-linejoin="round" />
<path d="M657.246 177.61 L858.752 635.236 Z" stroke-width="5" stroke="#5fb49c" fill="none" stroke-linejoin="round" />
<path d="M672.566 184.265 L858.752 635.236 Z" stroke-width="5" stroke="#5fb49c" fill="none" stroke-linejoin="round" />
<path d="M687.887 190.919 L862.15 618.882 Z" stroke-width="5" stroke="#5fb49c" fill="none" stroke-linejoin="round" />
<path d="M703.207 197.574 L865.549 602.528 Z" stroke-width="5" stroke="#5fb49c" fill="none" stroke-linejoin="round" />
<path d="M703.207 197.574 L868.947 586.174 Z" stroke-width="5" stroke="#5fb49c" fill="none" stroke-linejoin="round" />
<path d="M716.164 208.115 L872.345 569.821 Z" stroke-width="5" stroke="#5fb49c" fill="none" stroke-linejoin="round" />
<path d="M729.12 218.656 L875.744 553.467 Z" stroke-width="5" stroke="#5fb49c" fill="none" stroke-linejoin="round" />
<path d="M742.077 229.197 L879.142 537.113 Z" stroke-width="5" stroke="#5fb49c" fill="none" stroke-linejoin="round" />
<path d="M755.034 239.738 L879.142 537.113 Z" stroke-width="5" stroke="#5fb49c" fill="none" stroke-linejoin="round" />
<path d="M767.991 250.279 L878.002 520.449 Z" stroke-width="5" stroke="#5fb49c" fill="none" stroke-linejoin="round" />
<path d="M780.948 260.82 L876.862 503.785 Z" stroke-width="5" stroke="#5fb49c" fill="none" stroke-linejoin="round" />
<path d="M780.948 260.82 L875.723 487.121 Z" stroke-width="5" stroke="#5fb49c" fill="none" stroke-linejoin="round" />
<path d="M790.58 274.466 L874.583 470.457 Z" stroke-width="5" stroke="#5fb49c" fill="none" stroke-linejoin="round" />
<path d="M800.212 288.112 L873.443 453.792 Z" stroke-width="5" stroke="#5fb49c" fill="none" stroke-linejoin="round" />
<path d="M809.845 301.758 L872.303 437.128 Z" stroke-width="5" stroke="#5fb49c" fill="none" stroke-linejoin="round" />
<path d="M819.477 315.404 L872.303 437.128 Z" stroke-width="5" stroke="#5fb49c" fill="none" stroke-linejoin="round" />
<path d="M829.109 329.05 L866.709 421.39 Z" stroke-width="5" stroke="#5fb49c" fill="none" stroke-linejoin="round" />
<path d="M838.742 342.696 L861.116 405.651 Z" stroke-width="5" stroke="#5fb49c" fill="none" stroke-linejoin="round" />
<path d="M838.742 342.696 L855.522 389.912 Z" stroke-width="5" stroke="#5fb49c" fill="none" stroke-linejoin="round" />
<path d="M844.335 358.435 L849.929 374.173 Z" stroke-width="5" stroke="#5fb49c" fill="none" stroke-linejoin="round" />
<path d="M849.929 374.173 L844.335 358.435 Z" stroke-width="5" stroke="#5fb49c" fill="none" stroke-linejoin="round" />
<path d="M855.522 389.912 L838.742 342.696 Z" stroke-width="5" stroke="#5fb49c" fill="none" stroke-linejoin="round" />
<path d="M861.116 405.651 L838.742 342.696 Z" stroke-width="5" stroke="#5fb49c" fill="none" stroke-linejoin="round" />
<path d="M866.709 421.39 L829.109 329.05 Z" stroke-width="5" stroke="#5fb49c" fill="none" stroke-linejoin="round" />
<path d="M872.303 437.128 L819.477 315.404 Z" stroke-width="5" stroke="#5fb49c" fill="none" stroke-linejoin="round" />
<path d="M872.303 437.128 L809.845 301.758 Z" stroke-width="5" stroke="#5fb49c" fill="none" stroke-linejoin="round" />
<path d="M873.443 453.792 L800.212 288.112 Z" stroke-width="5" stroke="#5fb49c" fill="none" stroke-linejoin="round" />
<path d="M874.583 470.457 L790.58 274.466 Z" stroke-width="5" stroke="#5fb49c" fill="none" stroke-linejoin="round" />
<path d="M875.723 487.121 L780.948 260.82 Z" stroke-width="5" stroke="#5fb49c" fill="none" stroke-linejoin="round" />
<path d="M876.862 503.785 L780.948 260.82 Z" stroke-width="5" stroke="#5fb49c" fill="none" stroke-linejoin="round" />
<path d="M878.002 520.449 L767.991 250.279 Z" stroke-width="5" stroke="#5fb49c" fill="none" stroke-linejoin="round" />
<path d="M879.142 537.113 L755.034 239.738 Z" stroke-width="5" stroke="#5fb49c" fill="none" stroke-linejoin="round" />
<path d="M879.142 537.113 L742.077 229.197 Z" stroke-width="5" stroke="#5fb49c" fill="none" stroke-linejoin="round" />
<path d="M875.744 553.467 L729.12 218.656 Z" stroke-width="5" stroke="#5fb49c" fill="none" stroke-linejoin="round" />
<path d="M872.345 569.821 L716.164 208.115 Z" stroke-width="5" stroke="#5fb49c" fill="none" stroke-linejoin="round" />
<path d="M868.947 586.174 L703.207 197.574 Z" stroke-width="5" stroke="#5fb49c" fill="none" stroke-linejoin="round" />
<path d="M865.549 602.528 L703.207 197.574 Z" stroke-width="5" stroke="#5fb49c" fill="none" stroke-linejoin="round" />
<path d="M862.15 618.882 L687.887 190.919 Z" stroke-width="5" stroke="#5fb49c" fill="none" stroke-linejoin="round" />
<path d="M858.752 635.236 L672.566 184.265 Z" stroke-width="5" stroke="#5fb49c" fill="none" stroke-linejoin="round" />
<path d="M858.752 635.236 L657.246 177.61 Z" stroke-width="5" stroke="#5fb49c" fill="none" stroke-linejoin="round" />
<path d="M851.068 650.066 L641.926 170.956 Z" stroke-width="5" stroke="#5fb49c" fill="none" stroke-linejoin="round" />
<path d="M843.383 664.897 L626.605 164.301 Z" stroke-width="5" stroke="#5fb49c" fill="none" stroke-linejoin="round" />
<path d="M835.698 679.727 L611.285 157.646 Z" stroke-width="5" stroke="#5fb49c" fill="none" stroke-linejoin="round" />
<path d="M828.014 694.557 L611.285 157.646 Z" stroke-width="5" stroke="#5fb49c" fill="none" stroke-linejoin="round" />
<path d="M820.329 709.388 L594.738 155.372 Z" stroke-width="5" stroke="#5fb49c" fill="none" stroke-linejoin="round" />
<path d="M812.645 724.218 L578.19 153.098 Z" stroke-width="5" stroke="#5fb49c" fill="none" stroke-linejoin="round" />
<path d="M812.645 724.218 L561.643 150.823 Z" stroke-width="5" stroke="#5fb49c" fill="none" stroke-linejoin="round" />
<path d="M801.244 736.426 L545.095 148.549 Z" stroke-width="5" stroke="#5fb49c" fill="none" stroke-linejoin="round" />
<path d="M789.843 748.633 L528.548 146.274 Z" stroke-width="5" stroke="#5fb49c" fill="none" stroke-linejoin="round" />
<path d="M778.443 760.84 L512.0 144.0 Z" stroke-width="5" stroke="#5fb49c" fill="none" stroke-linejoin="round" />
<path d="M767.042 773.047 L512.0 144.0 Z" stroke-width="5" stroke="#5fb49c" fill="none" stroke-linejoin="round" />
<path d="M755.641 785.255 L495.452 146.274 Z" stroke-width="5" stroke="#5fb49c" fill="none" stroke-linejoin="round" />
<path d="M744.24 797.462 L478.905 148.549 Z" stroke-width="5" stroke="#5fb49c" fill="none" stroke-linejoin="round" />
<path d="M744.24 797.462 L462.357 150.823 Z" stroke-width="5" stroke="#5fb49c" fill="none" stroke-linejoin="round" />
<path d="M729.969 806.14 L445.81 153.098 Z" stroke-width="5" stroke="#5fb49c" fill="none" stroke-linejoin="round" />
<path d="M715.697 814.819 L429.262 155.372 Z" stroke-width="5" stroke="#5fb49c" fill="none" stroke-linejoin="round" />
<path d="M701.426 823.498 L412.715 157.646 Z" stroke-width="5" stroke="#5fb49c" fill="none" stroke-linejoin="round" />
<path d="M687.155 832.176 L412.715 157.646 Z" stroke-width="5" stroke="#5fb49c" fill="none" stroke-linejoin="round" />
<path d="M672.883 840.855 L397.395 164.301 Z" stroke-width="5" stroke="#5fb49c" fill="none" stroke-linejoin="round" />
<path d="M658.612 849.534 L382.074 170.956 Z" stroke-width="5" stroke="#5fb49c" fill="none" stroke-linejoin="round" />
<path d="M197.822 699.94 L806.874 296.962 Z" stroke-width="3" stroke="#414288" fill="none" stroke-linejoin="round" />
<path d="M190.591 684.883 L797.661 283.03 Z" stroke-width="3" stroke="#414288" fill="none" stroke-linejoin="round" />
<path d="M183.36 669.826 L799.216 742.068 Z" stroke-width="3" stroke="#414288" fill="none" stroke-linejoin="round" />
<path d="M176.129 654.769 L799.216 742.068 Z" stroke-width="3" stroke="#414288" fill="none" stroke-linejoin="round" />
<path d="M168.899 639.712 L775.816 258.169 Z" stroke-width="3" stroke="#414288" fill="none" stroke-linejoin="round" />
<path d="M340.222 186.552 L763.185 247.239 Z" stroke-width="3" stroke="#414288" fill="none" stroke-linejoin="round" />
<path d="M340.222 186.552 L750.554 236.31 Z" stroke-width="3" stroke="#414288" fill="none" stroke-linejoin="round" />
<path d="M158.767 608.206 L737.923 225.38 Z" stroke-width="3" stroke="#414288" fill="none" stroke-linejoin="round" />
<path d="M155.867 591.757 L725.292 214.451 Z" stroke-width="3" stroke="#414288" fill="none" stroke-linejoin="round" />
<path d="M152.966 575.307 L850.637 656.046 Z" stroke-width="3" stroke="#414288" fill="none" stroke-linejoin="round" />
<path d="M150.066 558.858 L850.637 656.046 Z" stroke-width="3" stroke="#414288" fill="none" stroke-linejoin="round" />
<path d="M147.165 542.409 L697.55 196.405 Z" stroke-width="3" stroke="#414288" fill="none" stroke-linejoin="round" />
<path d="M434.396 152.276 L682.439 189.289 Z" stroke-width="3" stroke="#414288" fill="none" stroke-linejoin="round" />
<path d="M434.396 152.276 L667.328 182.172 Z" stroke-width="3" stroke="#414288" fill="none" stroke-linejoin="round" />
<path d="M145.91 509.337 L652.216 175.056 Z" stroke-width="3" stroke="#414288" fill="none" stroke-linejoin="round" />
<path d="M147.555 492.715 L637.105 167.939 Z" stroke-width="3" stroke="#414288" fill="none" stroke-linejoin="round" />
<path d="M149.2 476.094 L876.942 559.341 Z" stroke-width="3" stroke="#414288" fill="none" stroke-linejoin="round" />
<path d="M150.845 459.472 L876.942 559.341 Z" stroke-width="3" stroke="#414288" fill="none" stroke-linejoin="round" />
<path d="M152.49 442.85 L605.523 158.047 Z" stroke-width="3" stroke="#414288" fill="none" stroke-linejoin="round" />
<path d="M534.326 144.678 L589.052 155.272 Z" stroke-width="3" stroke="#414288" fill="none" stroke-linejoin="round" />
<path d="M534.326 144.678 L572.581 152.496 Z" stroke-width="3" stroke="#414288" fill="none" stroke-linejoin="round" />
<path d="M160.204 410.666 L556.11 149.721 Z" stroke-width="3" stroke="#414288" fill="none" stroke-linejoin="round" />
<path d="M166.273 395.105 L539.639 146.945 Z" stroke-width="3" stroke="#414288" fill="none" stroke-linejoin="round" />
<path d="M172.341 379.543 L876.182 459.126 Z" stroke-width="3" stroke="#414288" fill="none" stroke-linejoin="round" />
<path d="M178.41 363.981 L876.182 459.126 Z" stroke-width="3" stroke="#414288" fill="none" stroke-linejoin="round" />
<path d="M184.478 348.419 L506.559 145.941 Z" stroke-width="3" stroke="#414288" fill="none" stroke-linejoin="round" />
<path d="M632.601 164.323 L489.951 147.712 Z" stroke-width="3" stroke="#414288" fill="none" stroke-linejoin="round" />
<path d="M632.601 164.323 L473.342 149.483 Z" stroke-width="3" stroke="#414288" fill="none" stroke-linejoin="round" />
<path d="M200.589 319.51 L456.733 151.254 Z" stroke-width="3" stroke="#414288" fill="none" stroke-linejoin="round" />
<path d="M210.631 306.163 L440.124 153.025 Z" stroke-width="3" stroke="#414288" fill="none" stroke-linejoin="round" />
<path d="M220.673 292.816 L848.412 362.831 Z" stroke-width="3" stroke="#414288" fill="none" stroke-linejoin="round" />
<path d="M230.715 279.469 L848.412 362.831 Z" stroke-width="3" stroke="#414288" fill="none" stroke-linejoin="round" />
<path d="M240.757 266.121 L408.0 160.983 Z" stroke-width="3" stroke="#414288" fill="none" stroke-linejoin="round" />
<path d="M721.931 209.753 L392.484 167.17 Z" stroke-width="3" stroke="#414288" fill="none" stroke-linejoin="round" />
<path d="M721.931 209.753 L376.969 173.356 Z" stroke-width="3" stroke="#414288" fill="none" stroke-linejoin="round" />
<path d="M264.07 242.631 L361.454 179.543 Z" stroke-width="3" stroke="#414288" fill="none" stroke-linejoin="round" />
<path d="M277.341 232.488 L345.939 185.729 Z" stroke-width="3" stroke="#414288" fill="none" stroke-linejoin="round" />
<path d="M290.611 222.345 L795.691 277.6 Z" stroke-width="3" stroke="#414288" fill="none" stroke-linejoin="round" />
<path d="M303.882 212.202 L795.691 277.6 Z" stroke-width="3" stroke="#414288" fill="none" stroke-linejoin="round" />
<path d="M317.153 202.059 L317.153 202.059 Z" stroke-width="3" stroke="#414288" fill="none" stroke-linejoin="round" />
<path d="M795.691 277.6 L303.882 212.202 Z" stroke-width="3" stroke="#414288" fill="none" stroke-linejoin="round" />
<path d="M795.691 277.6 L290.611 222.345 Z" stroke-width="3" stroke="#414288" fill="none" stroke-linejoin="round" />
<path d="M345.939 185.729 L277.341 232.488 Z" stroke-width="3" stroke="#414288" fill="none" stroke-linejoin="round" />
<path d="M361.454 179.543 L264.07 242.631 Z" stroke-width="3" stroke="#414288" fill="none" stroke-linejoin="round" />
<path d="M376.969 173.356 L721.931 209.753 Z" stroke-width="3" stroke="#414288" fill="none" stroke-linejoin="round" />
<path d="M392.484 167.17 L721.931 209.753 Z" stroke-width="3" stroke="#414288" fill="none" stroke-linejoin="round" />
<path d="M408.0 160.983 L240.757 266.121 Z" stroke-width="3" stroke="#414288" fill="none" stroke-linejoin="round" />
<path d="M848.412 362.831 L230.715 279.469 Z" stroke-width="3" stroke="#414288" fill="none" stroke-linejoin="round" />
<path d="M848.412 362.831 L220.673 292.816 Z" stroke-width="3" stroke="#414288" fill="none" stroke-linejoin="round" />
<path d="M440.124 153.025 L210.631 306.163 Z" stroke-width="3" stroke="#414288" fill="none" stroke-linejoin="round" />
<path d="M456.733 151.254 L200.589 319.51 Z" stroke-width="3" stroke="#414288" fill="none" stroke-linejoin="round" />
<path d="M473.342 149.483 L632.601 164.323 Z" stroke-width="3" stroke="#414288" fill="none" stroke-linejoin="round" />
<path d="M489.951 147.712 L632.601 164.323 Z" stroke-width="3" stroke="#414288" fill="none" stroke-linejoin="round" />
<path d="M506.559 145.941 L184.478 348.419 Z" stroke-width="3" stroke="#414288" fill="none" stroke-linejoin="round" />
<path d="M876.182 459.126 L178.41 363.981 Z" stroke-width="3" stroke="#414288" fill="none" stroke-linejoin="round" />
<path d="M876.182 459.126 L172.341 379.543 Z" stroke-width="3" stroke="#414288" fill="none" stroke-linejoin="round" />
<path d="M539.639 146.945 L166.273 395.105 Z" stroke-width="3" stroke="#414288" fill="none" stroke-linejoin="round" />
<path d="M556.11 149.721 L160.204 410.666 Z" stroke-width="3" stroke="#414288" fill="none" stroke-linejoin="round" />
<path d="M572.581 152.496 L534.326 144.678 Z" stroke-width="3" stroke="#414288" fill="none" stroke-linejoin="round" />
<path d="M589.052 155.272 L534.326 144.678 Z" stroke-width="3" stroke="#414288" fill="none" stroke-linejoin="round" />
<path d="M605.523 158.047 L152.49 442.85 Z" stroke-width="3" stroke="#414288" fill="none" stroke-linejoin="round" />
<path d="M876.942 559.341 L150.845 459.472 Z" stroke-width="3" stroke="#414288" fill="none" stroke-linejoin="round" />
<path d="M876.942 559.341 L149.2 476.094 Z" stroke-width="3" stroke="#414288" fill="none" stroke-linejoin="round" />
<path d="M637.105 167.939 L147.555 492.715 Z" stroke-width="3" stroke="#414288" fill="none" stroke-linejoin="round" />
<path d="M652.216 175.056 L145.91 509.337 Z" stroke-width="3" stroke="#414288" fill="none" stroke-linejoin="round" />
<path d="M667.328 182.172 L434.396 152.276 Z" stroke-width="3" stroke="#414288" fill="none" stroke-linejoin="round" />
<path d="M682.439 189.289 L434.396 152.276 Z" stroke-width="3" stroke="#414288" fill="none" stroke-linejoin="round" />
<path d="M697.55 196.405 L147.165 542.409 Z" stroke-width="3" stroke="#414288" fill="none" stroke-linejoin="round" />
<path d="M850.637 656.046 L150.066 558.858 Z" stroke-width="3" stroke="#414288" fill="none" stroke-linejoin="round" />
<path d="M850.637 656.046 L152.966 575.307 Z" stroke-width="3" stroke="#414288" fill="none" stroke-linejoin="round" />
<path d="M725.292 214.451 L155.867 591.757 Z" stroke-width="3" stroke="#414288" fill="none" stroke-linejoin="round" />
<path d="M737.923 225.38 L158.767 608.206 Z" stroke-width="3" stroke="#414288" fill="none" stroke-linejoin="round" />
<path d="M750.554 236.31 L340.222 186.552 Z" stroke-width="3" stroke="#414288" fill="none" stroke-linejoin="round" />
<path d="M763.185 247.239 L340.222 186.552 Z" stroke-width="3" stroke="#414288" fill="none" stroke-linejoin="round" />
<path d="M775.816 258.169 L168.899 639.712 Z" stroke-width="3" stroke="#414288" fill="none" stroke-linejoin="round" />
<path d="M799.216 742.068 L176.129 654.769 Z" stroke-width="3" stroke="#414288" fill="none" stroke-linejoin="round" />
<path d="M799.216 742.068 L183.36 669.826 Z" stroke-width="3" stroke="#414288" fill="none" stroke-linejoin="round" />
<path d="M797.661 283.03 L190.591 684.883 Z" stroke-width="3" stroke="#414288" fill="none" stroke-linejoin="round" />
<path d="M806.874 296.962 L197.822 699.94 Z" stroke-width="3" stroke="#414288" fill="none" stroke-linejoin="round" />
<path d="M816.088 310.894 L258.787 244.966 Z" stroke-width="3" stroke="#414288" fill="none" stroke-linejoin="round" />
<path d="M825.302 324.826 L258.787 244.966 Z" stroke-width="3" stroke="#414288" fill="none" stroke-linejoin="round" />
<path d="M834.516 338.758 L216.078 727.544 Z" stroke-width="3" stroke="#414288" fill="none" stroke-linejoin="round" />
<path d="M726.494 811.026 L227.103 740.092 Z" stroke-width="3" stroke="#414288" fill="none" stroke-linejoin="round" />
<path d="M726.494 811.026 L238.128 752.639 Z" stroke-width="3" stroke="#414288" fill="none" stroke-linejoin="round" />
<path d="M848.843 368.591 L249.153 765.187 Z" stroke-width="3" stroke="#414288" fill="none" stroke-linejoin="round" />
<path d="M853.956 384.493 L260.178 777.734 Z" stroke-width="3" stroke="#414288" fill="none" stroke-linejoin="round" />
<path d="M859.069 400.394 L196.132 323.185 Z" stroke-width="3" stroke="#414288" fill="none" stroke-linejoin="round" />
<path d="M864.183 416.295 L196.132 323.185 Z" stroke-width="3" stroke="#414288" fill="none" stroke-linejoin="round" />
<path d="M869.296 432.196 L285.205 799.39 Z" stroke-width="3" stroke="#414288" fill="none" stroke-linejoin="round" />
<path d="M637.863 857.807 L299.206 808.498 Z" stroke-width="3" stroke="#414288" fill="none" stroke-linejoin="round" />
<path d="M637.863 857.807 L313.208 817.605 Z" stroke-width="3" stroke="#414288" fill="none" stroke-linejoin="round" />
<path d="M875.043 464.789 L327.209 826.713 Z" stroke-width="3" stroke="#414288" fill="none" stroke-linejoin="round" />
<path d="M875.676 481.48 L341.211 835.821 Z" stroke-width="3" stroke="#414288" fill="none" stroke-linejoin="round" />
<path d="M876.31 498.171 L156.903 415.407 Z" stroke-width="3" stroke="#414288" fill="none" stroke-linejoin="round" />
<path d="M876.944 514.862 L156.903 415.407 Z" stroke-width="3" stroke="#414288" fill="none" stroke-linejoin="round" />
<path d="M877.577 531.553 L371.152 849.921 Z" stroke-width="3" stroke="#414288" fill="none" stroke-linejoin="round" />
<path d="M539.898 878.941 L387.091 854.914 Z" stroke-width="3" stroke="#414288" fill="none" stroke-linejoin="round" />
<path d="M539.898 878.941 L403.031 859.906 Z" stroke-width="3" stroke="#414288" fill="none" stroke-linejoin="round" />
<path d="M874.318 564.487 L418.97 864.899 Z" stroke-width="3" stroke="#414288" fill="none" stroke-linejoin="round" />
<path d="M870.425 580.73 L434.91 869.891 Z" stroke-width="3" stroke="#414288" fill="none" stroke-linejoin="round" />
<path d="M866.532 596.973 L144.011 514.793 Z" stroke-width="3" stroke="#414288" fill="none" stroke-linejoin="round" />
<path d="M862.638 613.216 L144.011 514.793 Z" stroke-width="3" stroke="#414288" fill="none" stroke-linejoin="round" />
<path d="M858.745 629.459 L467.545 875.391 Z" stroke-width="3" stroke="#414288" fill="none" stroke-linejoin="round" />
<path d="M439.864 872.861 L484.24 875.898 Z" stroke-width="3" stroke="#414288" fill="none" stroke-linejoin="round" />
<path d="M439.864 872.861 L500.936 876.404 Z" stroke-width="3" stroke="#414288" fill="none" stroke-linejoin="round" />
<path d="M846.721 660.293 L517.631 876.911 Z" stroke-width="3" stroke="#414288" fill="none" stroke-linejoin="round" />
<path d="M838.59 674.883 L534.326 877.418 Z" stroke-width="3" stroke="#414288" fill="none" stroke-linejoin="round" />
<path d="M830.459 689.474 L158.41 613.971 Z" stroke-width="3" stroke="#414288" fill="none" stroke-linejoin="round" />
<path d="M822.328 704.064 L158.41 613.971 Z" stroke-width="3" stroke="#414288" fill="none" stroke-linejoin="round" />
<path d="M814.197 718.654 L567.235 873.909 Z" stroke-width="3" stroke="#414288" fill="none" stroke-linejoin="round" />
<path d="M345.18 840.017 L583.448 869.893 Z" stroke-width="3" stroke="#414288" fill="none" stroke-linejoin="round" />
<path d="M345.18 840.017 L599.661 865.877 Z" stroke-width="3" stroke="#414288" fill="none" stroke-linejoin="round" />
<path d="M794.3 745.1 L615.874 861.86 Z" stroke-width="3" stroke="#414288" fill="none" stroke-linejoin="round" />
<path d="M782.534 756.956 L632.087 857.844 Z" stroke-width="3" stroke="#414288" fill="none" stroke-linejoin="round" />
<path d="M770.768 768.812 L199.034 705.587 Z" stroke-width="3" stroke="#414288" fill="none" stroke-linejoin="round" />
<path d="M759.002 780.667 L199.034 705.587 Z" stroke-width="3" stroke="#414288" fill="none" stroke-linejoin="round" />
<path d="M747.236 792.523 L662.829 845.586 Z" stroke-width="3" stroke="#414288" fill="none" stroke-linejoin="round" />
<path d="M262.869 782.846 L677.357 837.345 Z" stroke-width="3" stroke="#414288" fill="none" stroke-linejoin="round" />
<path d="M262.869 782.846 L691.885 829.103 Z" stroke-width="3" stroke="#414288" fill="none" stroke-linejoin="round" />
<path d="M720.942 812.62 L706.413 820.862 Z" stroke-width="3" stroke="#414288" fill="none" stroke-linejoin="round" />
<path d="M706.413 820.862 L720.942 812.62 Z" stroke-width="3" stroke="#414288" fill="none" stroke-linejoin="round" />
<path d="M691.885 829.103 L262.869 782.846 Z" stroke-width="3" stroke="#414288" fill="none" stroke-linejoin="round" />
<path d="M677.357 837.345 L262.869 782.846 Z" stroke-width="3" stroke="#414288" fill="none" stroke-linejoin="round" />
<path d="M662.829 845.586 L747.236 792.523 Z" stroke-width="3" stroke="#414288" fill="none" stroke-linejoin="round" />
<path d="M199.034 705.587 L759.002 780.667 Z" stroke-width="3" stroke="#414288" fill="none" stroke-linejoin="round" />
<path d="M199.034 705.587 L770.768 768.812 Z" stroke-width="3" stroke="#414288" fill="none" stroke-linejoin="round" />
<path d="M632.087 857.844 L782.534 756.956 Z" stroke-width="3" stroke="#414288" fill="none" stroke-linejoin="round" />
<path d="M615.874 861.86 L794.3 745.1 Z" stroke-width="3" stroke="#414288" fill="none" stroke-linejoin="round" />
<path d="M599.661 865.877 L345.18 840.017 Z" stroke-width="3" stroke="#414288" fill="none" stroke-linejoin="round" />
<path d="M583.448 869.893 L345.18 840.017 Z" stroke-width="3" stroke="#414288" fill="none" stroke-linejoin="round" />
<path d="M567.235 873.909 L814.197 718.654 Z" stroke-width="3" stroke="#414288" fill="none" stroke-linejoin="round" />
<path d="M158.41 613.971 L822.328 704.064 Z" stroke-width="3" stroke="#414288" fill="none" stroke-linejoin="round" />
<path d="M158.41 613.971 L830.459 689.474 Z" stroke-width="3" stroke="#414288" fill="none" stroke-linejoin="round" />
<path d="M534.326 877.418 L838.59 674.883 Z" stroke-width="3" stroke="#414288" fill="none" stroke-linejoin="round" />
<path d="M517.631 876.911 L846.721 660.293 Z" stroke-width="3" stroke="#414288" fill="none" stroke-linejoin="round" />
<path d="M500.936 876.404 L439.864 872.861 Z" stroke-width="3" stroke="#414288" fill="none" stroke-linejoin="round" />
<path d="M484.24 875.898 L439.864 872.861 Z" stroke-width="3" stroke="#414288" fill="none" stroke-linejoin="round" />
<path d="M467.545 875.391 L858.745 629.459 Z" stroke-width="3" stroke="#414288" fill="none" stroke-linejoin="round" />
<path d="M144.011 514.793 L862.638 613.216 Z" stroke-width="3" stroke="#414288" fill="none" stroke-linejoin="round" />
<path d="M144.011 514.793 L866.532 596.973 Z" stroke-width="3" stroke="#414288" fill="none" stroke-linejoin="round" />
<path d="M434.91 869.891 L870.425 580.73 Z" stroke-width="3" stroke="#414288" fill="none" stroke-linejoin="round" />
<path d="M418.97 864.899 L874.318 564.487 Z" stroke-width="3" stroke="#414288" fill="none" stroke-linejoin="round" />
<path d="M403.031 859.906 L539.898 878.941 Z" stroke-width="3" stroke="#414288" fill="none" stroke-linejoin="round" />
<path d="M387.091 854.914 L539.898 878.941 Z" stroke-width="3" stroke="#414288" fill="none" stroke-linejoin="round" />
<path d="M371.152 849.921 L877.577 531.553 Z" stroke-width="3" stroke="#414288" fill="none" stroke-linejoin="round" />
<path d="M156.903 415.407 L876.944 514.862 Z" stroke-width="3" stroke="#414288" fill="none" stroke-linejoin="round" />
<path d="M156.903 415.407 L876.31 498.171 Z" stroke-width="3" stroke="#414288" fill="none" stroke-linejoin="round" />
<path d="M341.211 835.821 L875.676 481.48 Z" stroke-width="3" stroke="#414288" fill="none" stroke-linejoin="round" />
<path d="M327.209 826.713 L875.043 464.789 Z" stroke-width="3" stroke="#414288" fill="none" stroke-linejoin="round" />
<path d="M313.208 817.605 L637.863 857.807 Z" stroke-width="3" stroke="#414288" fill="none" stroke-linejoin="round" />
<path d="M299.206 808.498 L637.863 857.807 Z" stroke-width="3" stroke="#414288" fill="none" stroke-linejoin="round" />
<path d="M285.205 799.39 L869.296 432.196 Z" stroke-width="3" stroke="#414288" fill="none" stroke-linejoin="round" />
<path d="M196.132 323.185 L864.183 416.295 Z" stroke-width="3" stroke="#414288" fill="none" stroke-linejoin="round" />
<path d="M196.132 323.185 L859.069 400.394 Z" stroke-width="3" stroke="#414288" fill="none" stroke-linejoin="round" />
<path d="M260.178 777.734 L853.956 384.493 Z" stroke-width="3" stroke="#414288" fill="none" stroke-linejoin="round" />
<path d="M249.153 765.187 L848.843 368.591 Z" stroke-width="3" stroke="#414288" fill="none" stroke-linejoin="round" />
<path d="M238.128 752.639 L726.494 811.026 Z" stroke-width="3" stroke="#414288" fill="none" stroke-linejoin="round" />
<path d="M227.103 740.092 L726.494 811.026 Z" stroke-width="3" stroke="#414288" fill="none" stroke-linejoin="round" />
<path d="M216.078 727.544 L834.516 338.758 Z" stroke-width="3" stroke="#414288" fill="none" stroke-linejoin="round" />
<path d="M258.787 244.966 L825.302 324.826 Z" stroke-width="3" stroke="#414288" fill="none" stroke-linejoin="round" />
</svg>