<svg width="1024" height="1024">
<rect width="100%" height="100%" fill="#98dfaf" />
<path d="M642.528 854.04 L351.434 184.265 Z" stroke-width="5" stroke="#5fb49c" fill="none" stroke-linejoin="round" />
<path d="M626.444 858.547 L336.113 190.919 Z" stroke-width="5" stroke="#5fb49c" fill="none" stroke-linejoin="round" />
<path d="M610.36 863.053 L320.793 197.574 Z" stroke-width="5" stroke="#5fb49c" fill="none" stroke-linejoin="round" />
<path d="M594.277 867.56 L320.793 197.574 Z" stroke-width="5" stroke="#5fb49c" fill="none" stroke-linejoin="round" />
<path d="M578.193 872.066 L307.836 208.115 Z" stroke-width="5" stroke="#5fb49c" fill="none" stroke-linejoin="round" />
<path d="M562.109 876.572 L294.88 218.656 Z" stroke-width="5" stroke="#5fb49c" fill="none" stroke-linejoin="round" />
<path d="M562.109 876.572 L281.923 229.197 Z" stroke-width="5" stroke="#5fb49c" fill="none" stroke-linejoin="round" />
<path d="M545.406 876.572 L268.966 239.738 Z" stroke-width="5" stroke="#5fb49c" fill="none" stroke-linejoin="round" />
<path d="M528.703 876.572 L256.009 250.279 Z" stroke-width="5" stroke="#5fb49c" fill="none" stroke-linejoin="round" />
<path d="M512.0 876.572 L243.052 260.82 Z" stroke-width="5" stroke="#5fb49c" fill="none" stroke-linejoin="round" />
<path d="M495.297 876.572 L243.052 260.82 Z" stroke-width="5" stroke="#5fb49c" fill="none" stroke-linejoin="round" />
<path d="M478.594 876.572 L233.42 274.466 Z" stroke-width="5" stroke="#5fb49c" fill="none" stroke-linejoin="round" />
<path d="M461.891 876.572 L223.788 288.112 Z" stroke-width="5" stroke="#5fb49c" fill="none" stroke-linejoin="round" />
<path d="M461.891 876.572 L214.155 301.758 Z" stroke-width="5" stroke="#5fb49c" fill="none" stroke-linejoin="round" />
<path d="M445.807 872.066 L204.523 315.404 Z" stroke-width="5" stroke="#5fb49c" fill="none" stroke-linejoin="round" />
<path d="M429.723 867.56 L194.891 329.05 Z" stroke-width="5" stroke="#5fb49c" fill="none" stroke-linejoin="round" />
<path d="M413.64 863.053 L185.258 342.696 Z" stroke-width="5" stroke="#5fb49c" fill="none" stroke-linejoin="round" />
<path d="M397.556 858.547 L185.258 342.696 Z" stroke-width="5" stroke="#5fb49c" fill="none" stroke-linejoin="round" />
<path d="M381.472 854.04 L179.665 358.435 Z" stroke-width="5" stroke="#5fb49c" fill="none" stroke-linejoin="round" />
<path d="M365.388 849.534 L174.071 374.173 Z" stroke-width="5" stroke="#5fb49c" fill="none" stroke-linejoin="round" />
<path d="M365.388 849.534 L168.478 389.912 Z" stroke-width="5" stroke="#5fb49c" fill="none" stroke-linejoin="round" />
<path d="M351.117 840.855 L162.884 405.651 Z" stroke-width="5" stroke="#5fb49c" fill="none" stroke-linejoin="round" />
<path d="M336.845 832.176 L157.291 421.39 Z" stroke-width="5" stroke="#5fb49c" fill="none" stroke-linejoin="round" />
<path d="M322.574 823.498 L151.697 437.128 Z" stroke-width="5" stroke="#5fb49c" fill="none" stroke-linejoin="round" />
<path d="M308.303 814.819 L151.697 437.128 Z" stroke-width="5" stroke="#5fb49c" fill="none" stroke-linejoin="round" />
<path d="M294.031 806.14 L150.557 453.792 Z" stroke-width="5" stroke="#5fb49c" fill="none" stroke-linejoin="round" />
<path d="M279.76 797.462 L149.417 470.457 Z" stroke-width="5" stroke="#5fb49c" fill="none" stroke-linejoin="round" />
<path d="M279.76 797.462 L148.277 487.121 Z" stroke-width="5" stroke="#5fb49c" fill="none" stroke-linejoin="round" />
<path d="M268.359 785.255 L147.138 503.785 Z" stroke-width="5" stroke="#5fb49c" fill="none" stroke-linejoin="round" />
<path d="M256.958 773.047 L145.998 520.449 Z" stroke-width="5" stroke="#5fb49c" fill="none" stroke-linejoin="round" />
<path d="M245.557 760.84 L144.858 537.113 Z" stroke-width="5" stroke="#5fb49c" fill="none" stroke-linejoin="round" />
<path d="M234.157 748.633 L144.858 537.113 Z" stroke-width="5" stroke="#5fb49c" fill="none" stroke-linejoin="round" />
<path d="M222.756 736.426 L148.256 553.467 Z" stroke-width="5" stroke="#5fb49c" fill="none" stroke-linejoin="round" />
<path d="M211.355 724.218 L151.655 569.821 Z" stroke-width="5" stroke="#5fb49c" fill="none" stroke-linejoin="round" />
<path d="M211.355 724.218 L155.053 586.174 Z" stroke-width="5" stroke="#5fb49c" fill="none" stroke-linejoin="round" />
<path d="M203.671 709.388 L158.451 602.528 Z" stroke-width="5" stroke="#5fb49c" fill="none" stroke-linejoin="round" />
<path d="M195.986 694.557 L161.85 618.882 Z" stroke-width="5" stroke="#5fb49c" fill="none" stroke-linejoin="round" />
<path d="M188.302 679.727 L165.248 635.236 Z" stroke-width="5" stroke="#5fb49c" fill="none" stroke-linejoin="round" />
<path d="M180.617 664.897 L165.248 635.236 Z" stroke-width="5" stroke="#5fb49c" fill="none" stroke-linejoin="round" />
<path d="M172.932 650.066 L172.932 650.066 Z" stroke-width="5" stroke="#5fb49c" fill="none" stroke-linejoin="round" />
<path d="M165.248 635.236 L180.617 664.897 Z" stroke-width="5" stroke="#5fb49c" fill="none" stroke-linejoin="round" />
<path d="M165.248 635.236 L188.302 679.727 Z" stroke-width="5" stroke="#5fb49c" fill="none" stroke-linejoin="round" />
<path d="M161.85 618.882 L195.986 694.557 Z" stroke-width="5" stroke="#5fb49c" fill="none" stroke-linejoin="round" />
<path d="M158.451 602.528 L203.671 709.388 Z" stroke-width="5" stroke="#5fb49c" fill="none" stroke-linejoin="round" />
<path d="M155.053 586.174 L211.355 724.218 Z" stroke-width="5" stroke="#5fb49c" fill="none" stroke-linejoin="round" />
<path d="M151.655 569.821 L211.355 724.218 Z" stroke-width="5" stroke="#5fb49c" fill="none" stroke-linejoin="round" />
<path d="M148.256 553.467 L222.756 736.426 Z" stroke-width="5" stroke="#5fb49c" fill="none" stroke-linejoin="round" />
<path d="M144.858 537.113 L234.157 748.633 Z" stroke-width="5" stroke="#5fb49c" fill="none" stroke-linejoin="round" />
<path d="M144.858 537.113 L245.557 760.84 Z" stroke-width="5" stroke="#5fb49c" fill="none" stroke-linejoin="round" />
<path d="M145.998 520.449 L256.958 773.047 Z" stroke-width="5" stroke="#5fb49c" fill="none" stroke-linejoin="round" />
<path d="M147.138 503.785 L268.359 785.255 Z" stroke-width="5" stroke="#5fb49c" fill="none" stroke-linejoin="round" />
<path d="M148.277 487.121 L279.76 797.462 Z" stroke-width="5" stroke="#5fb49c" fill="none" stroke-linejoin="round" />
<path d="M149.417 470.457 L279.76 797.462 Z" stroke-width="5" stroke="#5fb49c" fill="none" stroke-linejoin="round" />
<path d="M150.557 453.792 L294.031 806.14 Z" stroke-width="5" stroke="#5fb49c" fill="none" stroke-linejoin="round" />
<path d="M151.697 437.128 L308.303 814.819 Z" stroke-width="5" stroke="#5fb49c" fill="none" stroke-linejoin="round" />
<path d="M151.697 437.128 L322.574 823.498 Z" stroke-width="5" stroke="#5fb49c" fill="none" stroke-linejoin="round" />
<path d="M157.291 421.39 L336.845 832.176 Z" stroke-width="5" stroke="#5fb49c" fill="none" stroke-linejoin="round" />
<path d="M162.884 405.651 L351.117 840.855 Z" stroke-width="5" stroke="#5fb49c" fill="none" stroke-linejoin="round" />
<path d="M168.478 389.912 L365.388 849.534 Z" stroke-width="5" stroke="#5fb49c" fill="none" stroke-linejoin="round" />
<path d="M174.071 374.173 L365.388 849.534 Z" stroke-width="5" stroke="#5fb49c" fill="none" stroke-linejoin="round" />
<path d="M179.665 358.435 L381.472 854.04 Z" stroke-width="5" stroke="#5fb49c" fill="none" stroke-linejoin="round" />
<path d="M185.258 342.696 L397.556 858.547 Z" stroke-width="5" stroke="#5fb49c" fill="none" stroke-linejoin="round" />
<path d="M185.258 342.696 L413.64 863.053 Z" stroke-width="5" stroke="#5fb49c" fill="none" stroke-linejoin="round" />
<path d="M194.891 329.05 L429.723 867.56 Z" stroke-width="5" stroke="#5fb49c" fill="none" stroke-linejoin="round" />
<path d="M204.523 315.404 L445.807 872.066 Z" stroke-width="5" stroke="#5fb49c" fill="none" stroke-linejoin="round" />
<path d="M214.155 301.758 L461.891 876.572 Z" stroke-width="5" stroke="#5fb49c" fill="none" stroke-linejoin="round" />
<path d="M223.788 288.112 L461.891 876.572 Z" stroke-width="5" stroke="#5fb49c" fill="none" stroke-linejoin="round" />
<path d="M233.42 274.466 L478.594 876.572 Z" stroke-width="5" stroke="#5fb49c" fill="none" stroke-linejoin="round" />
<path d="M243.052 260.82 L495.297 876.572 Z" stroke-width="5" stroke="#5fb49c" fill="none" stroke-linejoin="round" />
<path d="M243.052 260.82 L512.0 876.572 Z" stroke-width="5" stroke="#5fb49c" fill="none" stroke-linejoin="round" />
<path d="M256.009 250.279 L528.703 876.572 Z" stroke-width="5" stroke="#5fb49c" fill="none" stroke-linejoin="round" />
<path d="M268.966 239.738 L545.406 876.572 Z" stroke-width="5" stroke="#5fb49c" fill="none" stroke-linejoin="round" />
<path d="M281.923 229.197 L562.109 876.572 Z" stroke-width="5" stroke="#5fb49c" fill="none" stroke-linejoin="round" />
<path d="M294.88 218.656 L562.109 876.572 Z" stroke-width="5" stroke="#5fb49c" fill="none" stroke-linejoin="round" />
<path d="M307.836 208.115 L578.193 872.066 Z" stroke-width="5" stroke="#5fb49c" fill="none" stroke-linejoin="round" />
<path d="M320.793 197.574 L594.277 867.56 Z" stroke-width="5" stroke="#5fb49c" fill="none" stroke-linejoin="round" />
<path d="M320.793 197.574 L610.36 863.053 Z" stroke-width="5" stroke="#5fb49c" fill="none" stroke-linejoin="round" />
<path d="M336.113 190.919 L626.444 858.547 Z" stroke-width="5" stroke="#5fb49c" fill="none" stroke-linejoin="round" />
<path d="M351.434 184.265 L642.528 854.04 Z" stroke-width="5" stroke="#5fb49c" fill="none" stroke-linejoin="round" />
<path d="M366.754 177.61 L658.612 849.534 Z" stroke-width="5" stroke="#5fb49c" fill="none" stroke-linejoin="round" />
<path d="M382.074 170.956 L658.612 849.534 Z" stroke-width="5" stroke="#5fb49c" fill="none" stroke-linejoin="round" />
<path d="M397.395 164.301 L672.883 840.855 Z" stroke-width="5" stroke="#5fb49c" fill="none" stroke-linejoin="round" />
<path d="M412.715 157.646 L687.155 832.176 Z" stroke-width="5" stroke="#5fb49c" fill="none" stroke-linejoin="round" />
<path d="M412.715 157.646 L701.426 823.498 Z" stroke-width="5" stroke="#5fb49c" fill="none" stroke-linejoin="round" />
<path d="M429.262 155.372 L715.697 814.819 Z" stroke-width="5" stroke="#5fb49c" fill="none" stroke-linejoin="round" />
<path d="M445.81 153.098 L729.969 806.14 Z" stroke-width="5" stroke="#5fb49c" fill="none" stroke-linejoin="round" />
<path d="M462.357 150.823 L744.24 797.462 Z" stroke-width="5" stroke="#5fb49c" fill="none" stroke-linejoin="round" />
<path d="M478.905 148.549 L744.24 797.462 Z" stroke-width="5" stroke="#5fb49c" fill="none" stroke-linejoin="round" />
<path d="M495.452 146.274 L755.641 785.255 Z" stroke-width="5" stroke="#5fb49c" fill="none" stroke-linejoin="round" />
<path d="M512.0 144.0 L767.042 773.047 Z" stroke-width="5" stroke="#5fb49c" fill="none" stroke-linejoin="round" />
<path d="M512.0 144.0 L778.443 760.84 Z" stroke-width="5" stroke="#5fb49c" fill="none" stroke-linejoin="round" />
<path d="M528.548 146.274 L789.843 748.633 Z" stroke-width="5" stroke="#5fb49c" fill="none" stroke-linejoin="round" />
<path d="M545.095 148.549 L801.244 736.426 Z" stroke-width="5" stroke="#5fb49c" fill="none" stroke-linejoin="round" />
<path d="M561.643 150.823 L812.645 724.218 Z" stroke-width="5" stroke="#5fb49c" fill="none" stroke-linejoin="round" />
<path d="M578.19 153.098 L812.645 724.218 Z" stroke-width="5" stroke="#5fb49c" fill="none" stroke-linejoin="round" />
<path d="M594.738 155.372 L820.329 709.388 Z" stroke-width="5" stroke="#5fb49c" fill="none" stroke-linejoin="round" />
<path d="M611.285 157.646 L828.014 694.557 Z" stroke-width="5" stroke="#5fb49c" fill="none" stroke-linejoin="round" />
<path d="M611.285 157.646 L835.698 679.727 Z" stroke-width="5" stroke="#5fb49c" fill="none" stroke-linejoin="round" />
<path d="M626.605 164.301 L843.383 664.897 Z" stroke-width="5" stroke="#5fb49c" fill="none" stroke-linejoin="round" />
<path d="M641.926 170.956 L851.068 650.066 Z" stroke-width="5" stroke="#5fb49c" fill="none" stroke-linejoin="round" />
<path d="M657.246 177.61 L858.752 635.236 Z" stroke-width="5" stroke="#5fb49c" fill="none" stroke-linejoin="round" />
<path d="M672.566 184.265 L858.752 635.236 Z" stroke-width="5" stroke="#5fb49c" fill="none" stroke-linejoin="round" />
<path d="M687.887 190.919 L862.15 618.882 Z" stroke-width="5" stroke="#5fb49c" fill="none" stroke-linejoin="round" />
<path d="M703.207 197.574 L865.549 602.528 Z" stroke-width="5" stroke="#5fb49c" fill="none" stroke-linejoin="round" />
<path d="M703.207 197.574 L868.947 586.174 Z" stroke-width="5" stroke="#5fb49c" fill="none" stroke-linejoin="round" />
<path d="M716.164 208.115 L872.345 569.821 Z" stroke-width="5" stroke="#5fb49c" fill="none" stroke-linejoin="round" />
<path d="M729.12 218.656 L875.744 553.467 Z" stroke-width="5" stroke="#5fb49c" fill="none" stroke-linejoin="round" />
<path d="M742.077 229.197 L879.142 537.113 Z" stroke-width="5" stroke="#5fb49c" fill="none" stroke-linejoin="round" />
<path d="M755.034 239.738 L879.142 537.113 Z" stroke-width="5" stroke="#5fb49c" fill="none" stroke-linejoin="round" />
<path d="M767.991 250.279 L878.002 520.449 Z" stroke-width="5" stroke="#5fb49c" fill="none" stroke-linejoin="round" />
<path d="M780.948 260.82 L876.862 503.785 Z" stroke-width="5" stroke="#5fb49c" fill="none" stroke-linejoin="round" />
<path d="M780.948 260.82 L875.723 487.121 Z" stroke-width="5" stroke="#5fb49c" fill="none" stroke-linejoin="round" />
<path d="M790.58 274.466 L874.583 470.457 Z" stroke-width="5" stroke="#5fb49c" fill="none" stroke-linejoin="round" />
<path d="M800.212 288.112 L873.443 453.792 Z" stroke-width="5" stroke="#5fb49c" fill="none" stroke-linejoin="round" />
<path d="M809.845 301.758 L872.303 437.128 Z" stroke-width="5" stroke="#5fb49c" fill="none" stroke-linejoin="round" />
<path d="M819.477 315.404 L872.303 437.128 Z" stroke-width="5" stroke="#5fb49c" fill="none" stroke-linejoin="round" />
<path d="M829.109 329.05 L866.709 421.39 Z" stroke-width="5" stroke="#5fb49c" fill="none" stroke-linejoin="round" />
<path d="M838.742 342.696 L861.116 405.651 Z" stroke-width="5" stroke="#5fb49c" fill="none" stroke-linejoin="round" />
<path d="M838.742 342.696 L855.522 389.912 Z" stroke-width="5" stroke="#5fb49c" fill="none" stroke-linejoin="round" />
<path d="M844.335 358.435 L849.929 374.173 Z" stroke-width="5" stroke="#5fb49c" fill="none" stroke-linejoin="round" />
<path d="M849.929 374.173 L844.335 358.435 Z" stroke-width="5" stroke="#5fb49c" fill="none" stroke-linejoin="round" />
<path d="M855.522 389.912 L838.742 342.696 Z" stroke-width="5" stroke="#5fb49c" fill="none" stroke-linejoin="round" />
<path d="M861.116 405.651 L838.742 342.696 Z" stroke-width="5" stroke="#5fb49c" fill="none" stroke-linejoin="round" />
<path d="M866.709 421.39 L829.109 329.05 Z" stroke-width="5" stroke="#5fb49c" fill="none" stroke-linejoin="round" />
<path d="M872.303 437.128 L819.477 315.404 Z" stroke-width="5" stroke="#5fb49c" fill="none" stroke-linejoin="round" />
<path d="M872.303 437.128 L809.845 301.758 Z" stroke-width="5" stroke="#5fb49c" fill="none" stroke-linejoin="round" />
<path d="M873.443 453.792 L800.212 288.112 Z" stroke-width="5" stroke="#5fb49c" fill="none" stroke-linejoin="round" />
<path d="M874.583 470.457 L790.58 274.466 Z" stroke-width="5" stroke="#5fb49c" fill="none" stroke-linejoin="round" />
<path d="M875.723 487.121 L780.948 260.82 Z" stroke-width="5" stroke="#5fb49c" fill="none" stroke-linejoin="round" />
<path d="M876.862 503.785 L780.948 260.82 Z" stroke-width="5" stroke="#5fb49c" fill="none" stroke-linejoin="round" />
<path d="M878.002 520.449 L767.991 250.279 Z" stroke-width="5" stroke="#5fb49c" fill="none" stroke-linejoin="round" />
<path d="M879.142 537.113 L755.034 239.738 Z" stroke-width="5" stroke="#5fb49c" fill="none" stroke-linejoin="round" />
<path d="M879.142 537.113 L742.077 229.197 Z" stroke-width="5" stroke="#5fb49c" fill="none" stroke-linejoin="round" />
<path d="M875.744 553.467 L729.12 218.656 Z" stroke-width="5" stroke="#5fb49c" fill="none" stroke-linejoin="round" />
<path d="M872.345 569.821 L716.164 208.115 Z" stroke-width="5" stroke="#5fb49c" fill="none" stroke-linejoin="round" />
<path d="M868.947 586.174 L703.207 197.574 Z" stroke-width="5" stroke="#5fb49c" fill="none" stroke-linejoin="round" />
<path d="M865.549 602.528 L703.207 197.574 Z" stroke-width="5" stroke="#5fb49c" fill="none" stroke-linejoin="round" />
<path d="M862.15 618.882 L687.887 190.919 Z" stroke-width="5" stroke="#5fb49c" fill="none" stroke-linejoin="round" />
<path d="M858.752 635.236 L672.566 184.265 Z" stroke-width="5" stroke="#5fb49c" fill="none" stroke-linejoin="round" />
<path d="M858.752 635.236 L657.246 177.61 Z" stroke-width="5" stroke="#5fb49c" fill="none" stroke-linejoin="round" />
<path d="M851.068 650.066 L641.926 170.956 Z" stroke-width="5" stroke="#5fb49c" fill="none" stroke-linejoin="round" />
<path d="M843.383 664.897 L626.605 164.301 Z" stroke-width="5" stroke="#5fb49c" fill="none" stroke-linejoin="round" />
<path d="M835.698 679.727 L611.285 157.646 Z" stroke-width="5" stroke="#5fb49c" fill="none" stroke-linejoin="round" />
<path d="M828.014 694.557 L611.285 157.646 Z" stroke-width="5" stroke="#5fb49c" fill="none" stroke-linejoin="round" />
<path d="M820.329 709.388 L594.738 155.372 Z" stroke-width="5" stroke="#5fb49c" fill="none" stroke-linejoin="round" />
<path d="M812.645 724.218 L578.19 153.098 Z" stroke-width="5" stroke="#5fb49c" fill="none" stroke-linejoin="round" />
<path d="M812.645 724.218 L561.643 150.823 Z" stroke-width="5" stroke="#5fb49c" fill="none" stroke-linejoin="round" />
<path d="M801.244 736.426 L545.095 148.549 Z" stroke-width="5" stroke="#5fb49c" fill="none" stroke-linejoin="round" />
<path d="M789.843 748.633 L528.548 146.274 Z" stroke-width="5" stroke="#5fb49c" fill="none" stroke-linejoin="round" />
<path d="M778.443 760.84 L512.0 144.0 Z" stroke-width="5" stroke="#5fb49c" fill="none" stroke-linejoin="round" />
<path d="M767.042 773.047 L512.0 144.0 Z" stroke-width="5" stroke="#5fb49c" fill="none" stroke-linejoin="round" />
<path d="M755.641 785.255 L495.452 146.274 Z" stroke-width="5" stroke="#5fb49c" fill="none" stroke-linejoin="round" />
<path d="M744.24 797.462 L478.905 148.549 Z" stroke-width="5" stroke="#5fb49c" fill="none" stroke-linejoin="round" />
<path d="M744.24 797.462 L462.357 150.823 Z" stroke-width="5" stroke="#5fb49c" fill="none" stroke-linejoin="round" />
<path d="M729.969 806.14 L445.81 153.098 Z" stroke-width="5" stroke="#5fb49c" fill="none" stroke-linejoin="round" />
<path d="M715.697 814.819 L429.262 155.372 Z" stroke-width="5" stroke="#5fb49c" fill="none" stroke-linejoin="round" />
<path d="M701.426 823.498 L412.715 157.646 Z" stroke-width="5" stroke="#5fb49c" fill="none" stroke-linejoin="round" />
<path d="M687.155 832.176 L412.715 157.646 Z" stroke-width="5" stroke="#5fb49c" fill="none" stroke-linejoin="round" />
<path d="M672.883 840.855 L397.395 164.301 Z" stroke-width="5" stroke="#5fb49c" fill="none" stroke-linejoin="round" />
<path d="M658.612 849.534 L382.074 170.956 Z" stroke-width="5" stroke="#5fb49c" fill="none" stroke-linejoin="round" />
<path d="M581.15 871.51 L410.784 161.362 Z" stroke-width="3" stroke="#414288" fill="none" stroke-linejoin="round" />
<path d="M564.528 873.155 L394.541 165.255 Z" stroke-width="3" stroke="#414288" fill="none" stroke-linejoin="round" />
<path d="M547.906 874.8 L439.864 151.139 Z" stroke-width="3" stroke="#414288" fill="none" stroke-linejoin="round" />
<path d="M531.285 876.445 L439.864 151.139 Z" stroke-width="3" stroke="#414288" fill="none" stroke-linejoin="round" />
<path d="M514.663 878.09 L363.707 177.279 Z" stroke-width="3" stroke="#414288" fill="none" stroke-linejoin="round" />
<path d="M434.396 871.724 L349.117 185.41 Z" stroke-width="3" stroke="#414288" fill="none" stroke-linejoin="round" />
<path d="M434.396 871.724 L334.526 193.541 Z" stroke-width="3" stroke="#414288" fill="none" stroke-linejoin="round" />
<path d="M481.591 876.835 L319.936 201.672 Z" stroke-width="3" stroke="#414288" fill="none" stroke-linejoin="round" />
<path d="M465.142 873.934 L305.346 209.803 Z" stroke-width="3" stroke="#414288" fill="none" stroke-linejoin="round" />
<path d="M448.693 871.034 L345.18 183.983 Z" stroke-width="3" stroke="#414288" fill="none" stroke-linejoin="round" />
<path d="M432.243 868.133 L345.18 183.983 Z" stroke-width="3" stroke="#414288" fill="none" stroke-linejoin="round" />
<path d="M415.794 865.233 L278.9 229.7 Z" stroke-width="3" stroke="#414288" fill="none" stroke-linejoin="round" />
<path d="M340.222 837.448 L267.044 241.466 Z" stroke-width="3" stroke="#414288" fill="none" stroke-linejoin="round" />
<path d="M340.222 837.448 L255.188 253.232 Z" stroke-width="3" stroke="#414288" fill="none" stroke-linejoin="round" />
<path d="M384.288 855.101 L243.333 264.998 Z" stroke-width="3" stroke="#414288" fill="none" stroke-linejoin="round" />
<path d="M369.231 847.871 L231.477 276.764 Z" stroke-width="3" stroke="#414288" fill="none" stroke-linejoin="round" />
<path d="M354.174 840.64 L262.869 241.154 Z" stroke-width="3" stroke="#414288" fill="none" stroke-linejoin="round" />
<path d="M339.117 833.409 L262.869 241.154 Z" stroke-width="3" stroke="#414288" fill="none" stroke-linejoin="round" />
<path d="M324.06 826.178 L211.38 303.058 Z" stroke-width="3" stroke="#414288" fill="none" stroke-linejoin="round" />
<path d="M258.787 779.034 L203.138 317.587 Z" stroke-width="3" stroke="#414288" fill="none" stroke-linejoin="round" />
<path d="M258.787 779.034 L194.897 332.115 Z" stroke-width="3" stroke="#414288" fill="none" stroke-linejoin="round" />
<path d="M296.456 807.922 L186.655 346.643 Z" stroke-width="3" stroke="#414288" fill="none" stroke-linejoin="round" />
<path d="M283.908 796.897 L178.414 361.171 Z" stroke-width="3" stroke="#414288" fill="none" stroke-linejoin="round" />
<path d="M271.361 785.872 L199.034 318.413 Z" stroke-width="3" stroke="#414288" fill="none" stroke-linejoin="round" />
<path d="M258.813 774.847 L199.034 318.413 Z" stroke-width="3" stroke="#414288" fill="none" stroke-linejoin="round" />
<path d="M246.266 763.822 L166.156 391.913 Z" stroke-width="3" stroke="#414288" fill="none" stroke-linejoin="round" />
<path d="M196.132 700.815 L162.14 408.126 Z" stroke-width="3" stroke="#414288" fill="none" stroke-linejoin="round" />
<path d="M196.132 700.815 L158.123 424.339 Z" stroke-width="3" stroke="#414288" fill="none" stroke-linejoin="round" />
<path d="M224.61 738.795 L154.107 440.552 Z" stroke-width="3" stroke="#414288" fill="none" stroke-linejoin="round" />
<path d="M215.502 724.794 L150.091 456.765 Z" stroke-width="3" stroke="#414288" fill="none" stroke-linejoin="round" />
<path d="M206.395 710.792 L158.41 410.029 Z" stroke-width="3" stroke="#414288" fill="none" stroke-linejoin="round" />
<path d="M197.287 696.791 L158.41 410.029 Z" stroke-width="3" stroke="#414288" fill="none" stroke-linejoin="round" />
<path d="M188.179 682.789 L146.582 489.674 Z" stroke-width="3" stroke="#414288" fill="none" stroke-linejoin="round" />
<path d="M156.903 608.593 L147.089 506.369 Z" stroke-width="3" stroke="#414288" fill="none" stroke-linejoin="round" />
<path d="M156.903 608.593 L147.596 523.064 Z" stroke-width="3" stroke="#414288" fill="none" stroke-linejoin="round" />
<path d="M174.079 652.848 L148.102 539.76 Z" stroke-width="3" stroke="#414288" fill="none" stroke-linejoin="round" />
<path d="M169.086 636.909 L148.609 556.455 Z" stroke-width="3" stroke="#414288" fill="none" stroke-linejoin="round" />
<path d="M164.094 620.969 L144.011 509.207 Z" stroke-width="3" stroke="#414288" fill="none" stroke-linejoin="round" />
<path d="M159.101 605.03 L144.011 509.207 Z" stroke-width="3" stroke="#414288" fill="none" stroke-linejoin="round" />
<path d="M154.109 589.09 L154.109 589.09 Z" stroke-width="3" stroke="#414288" fill="none" stroke-linejoin="round" />
<path d="M144.011 509.207 L159.101 605.03 Z" stroke-width="3" stroke="#414288" fill="none" stroke-linejoin="round" />
<path d="M144.011 509.207 L164.094 620.969 Z" stroke-width="3" stroke="#414288" fill="none" stroke-linejoin="round" />
<path d="M148.609 556.455 L169.086 636.909 Z" stroke-width="3" stroke="#414288" fill="none" stroke-linejoin="round" />
<path d="M148.102 539.76 L174.079 652.848 Z" stroke-width="3" stroke="#414288" fill="none" stroke-linejoin="round" />
<path d="M147.596 523.064 L156.903 608.593 Z" stroke-width="3" stroke="#414288" fill="none" stroke-linejoin="round" />
<path d="M147.089 506.369 L156.903 608.593 Z" stroke-width="3" stroke="#414288" fill="none" stroke-linejoin="round" />
<path d="M146.582 489.674 L188.179 682.789 Z" stroke-width="3" stroke="#414288" fill="none" stroke-linejoin="round" />
<path d="M158.41 410.029 L197.287 696.791 Z" stroke-width="3" stroke="#414288" fill="none" stroke-linejoin="round" />
<path d="M158.41 410.029 L206.395 710.792 Z" stroke-width="3" stroke="#414288" fill="none" stroke-linejoin="round" />
<path d="M150.091 456.765 L215.502 724.794 Z" stroke-width="3" stroke="#414288" fill="none" stroke-linejoin="round" />
<path d="M154.107 440.552 L224.61 738.795 Z" stroke-width="3" stroke="#414288" fill="none" stroke-linejoin="round" />
<path d="M158.123 424.339 L196.132 700.815 Z" stroke-width="3" stroke="#414288" fill="none" stroke-linejoin="round" />
<path d="M162.14 408.126 L196.132 700.815 Z" stroke-width="3" stroke="#414288" fill="none" stroke-linejoin="round" />
<path d="M166.156 391.913 L246.266 763.822 Z" stroke-width="3" stroke="#414288" fill="none" stroke-linejoin="round" />
<path d="M199.034 318.413 L258.813 774.847 Z" stroke-width="3" stroke="#414288" fill="none" stroke-linejoin="round" />
<path d="M199.034 318.413 L271.361 785.872 Z" stroke-width="3" stroke="#414288" fill="none" stroke-linejoin="round" />
<path d="M178.414 361.171 L283.908 796.897 Z" stroke-width="3" stroke="#414288" fill="none" stroke-linejoin="round" />
<path d="M186.655 346.643 L296.456 807.922 Z" stroke-width="3" stroke="#414288" fill="none" stroke-linejoin="round" />
<path d="M194.897 332.115 L258.787 779.034 Z" stroke-width="3" stroke="#414288" fill="none" stroke-linejoin="round" />
<path d="M203.138 317.587 L258.787 779.034 Z" stroke-width="3" stroke="#414288" fill="none" stroke-linejoin="round" />
<path d="M211.38 303.058 L324.06 826.178 Z" stroke-width="3" stroke="#414288" fill="none" stroke-linejoin="round" />
<path d="M262.869 241.154 L339.117 833.409 Z" stroke-width="3" stroke="#414288" fill="none" stroke-linejoin="round" />
<path d="M262.869 241.154 L354.174 840.64 Z" stroke-width="3" stroke="#414288" fill="none" stroke-linejoin="round" />
<path d="M231.477 276.764 L369.231 847.871 Z" stroke-width="3" stroke="#414288" fill="none" stroke-linejoin="round" />
<path d="M243.333 264.998 L384.288 855.101 Z" stroke-width="3" stroke="#414288" fill="none" stroke-linejoin="round" />
<path d="M255.188 253.232 L340.222 837.448 Z" stroke-width="3" stroke="#414288" fill="none" stroke-linejoin="round" />
<path d="M267.044 241.466 L340.222 837.448 Z" stroke-width="3" stroke="#414288" fill="none" stroke-linejoin="round" />
<path d="M278.9 229.7 L415.794 865.233 Z" stroke-width="3" stroke="#414288" fill="none" stroke-linejoin="round" />
<path d="M345.18 183.983 L432.243 868.133 Z" stroke-width="3" stroke="#414288" fill="none" stroke-linejoin="round" />
<path d="M345.18 183.983 L448.693 871.034 Z" stroke-width="3" stroke="#414288" fill="none" stroke-linejoin="round" />
<path d="M305.346 209.803 L465.142 873.934 Z" stroke-width="3" stroke="#414288" fill="none" stroke-linejoin="round" />
<path d="M319.936 201.672 L481.591 876.835 Z" stroke-width="3" stroke="#414288" fill="none" stroke-linejoin="round" />
<path d="M334.526 193.541 L434.396 871.724 Z" stroke-width="3" stroke="#414288" fill="none" stroke-linejoin="round" />
<path d="M349.117 185.41 L434.396 871.724 Z" stroke-width="3" stroke="#414288" fill="none" stroke-linejoin="round" />
<path d="M363.707 177.279 L514.663 878.09 Z" stroke-width="3" stroke="#414288" fill="none" stroke-linejoin="round" />
<path d="M439.864 151.139 L531.285 876.445 Z" stroke-width="3" stroke="#414288" fill="none" stroke-linejoin="round" />
<path d="M439.864 151.139 L547.906 874.8 Z" stroke-width="3" stroke="#414288" fill="none" stroke-linejoin="round" />
<path d="M394.541 165.255 L564.528 873.155 Z" stroke-width="3" stroke="#414288" fill="none" stroke-linejoin="round" />
<path d="M410.784 161.362 L581.15 871.51 Z" stroke-width="3" stroke="#414288" fill="none" stroke-linejoin="round" />
<path d="M427.027 157.468 L534.326 879.322 Z" stroke-width="3" stroke="#414288" fill="none" stroke-linejoin="round" />
<path d="M443.27 153.575 L534.326 879.322 Z" stroke-width="3" stroke="#414288" fill="none" stroke-linejoin="round" />
<path d="M459.513 149.682 L613.334 863.796 Z" stroke-width="3" stroke="#414288" fill="none" stroke-linejoin="round" />
<path d="M539.898 145.059 L628.895 857.727 Z" stroke-width="3" stroke="#414288" fill="none" stroke-linejoin="round" />
<path d="M539.898 145.059 L644.457 851.659 Z" stroke-width="3" stroke="#414288" fill="none" stroke-linejoin="round" />
<path d="M492.447 146.423 L660.019 845.59 Z" stroke-width="3" stroke="#414288" fill="none" stroke-linejoin="round" />
<path d="M509.138 147.056 L675.581 839.522 Z" stroke-width="3" stroke="#414288" fill="none" stroke-linejoin="round" />
<path d="M525.829 147.69 L632.601 859.677 Z" stroke-width="3" stroke="#414288" fill="none" stroke-linejoin="round" />
<path d="M542.52 148.324 L632.601 859.677 Z" stroke-width="3" stroke="#414288" fill="none" stroke-linejoin="round" />
<path d="M559.211 148.957 L704.49 823.411 Z" stroke-width="3" stroke="#414288" fill="none" stroke-linejoin="round" />
<path d="M637.863 166.193 L717.837 813.369 Z" stroke-width="3" stroke="#414288" fill="none" stroke-linejoin="round" />
<path d="M637.863 166.193 L731.184 803.327 Z" stroke-width="3" stroke="#414288" fill="none" stroke-linejoin="round" />
<path d="M591.804 154.704 L744.531 793.285 Z" stroke-width="3" stroke="#414288" fill="none" stroke-linejoin="round" />
<path d="M607.705 159.817 L757.879 783.243 Z" stroke-width="3" stroke="#414288" fill="none" stroke-linejoin="round" />
<path d="M623.606 164.931 L721.931 814.247 Z" stroke-width="3" stroke="#414288" fill="none" stroke-linejoin="round" />
<path d="M639.507 170.044 L721.931 814.247 Z" stroke-width="3" stroke="#414288" fill="none" stroke-linejoin="round" />
<path d="M655.409 175.157 L781.369 759.93 Z" stroke-width="3" stroke="#414288" fill="none" stroke-linejoin="round" />
<path d="M726.494 212.974 L791.512 746.659 Z" stroke-width="3" stroke="#414288" fill="none" stroke-linejoin="round" />
<path d="M726.494 212.974 L801.655 733.389 Z" stroke-width="3" stroke="#414288" fill="none" stroke-linejoin="round" />
<path d="M685.242 189.484 L811.798 720.118 Z" stroke-width="3" stroke="#414288" fill="none" stroke-linejoin="round" />
<path d="M699.174 198.698 L821.941 706.847 Z" stroke-width="3" stroke="#414288" fill="none" stroke-linejoin="round" />
<path d="M713.106 207.912 L795.691 746.4 Z" stroke-width="3" stroke="#414288" fill="none" stroke-linejoin="round" />
<path d="M727.038 217.126 L795.691 746.4 Z" stroke-width="3" stroke="#414288" fill="none" stroke-linejoin="round" />
<path d="M740.97 226.339 L838.271 678.061 Z" stroke-width="3" stroke="#414288" fill="none" stroke-linejoin="round" />
<path d="M799.216 281.932 L844.457 662.546 Z" stroke-width="3" stroke="#414288" fill="none" stroke-linejoin="round" />
<path d="M799.216 281.932 L850.644 647.031 Z" stroke-width="3" stroke="#414288" fill="none" stroke-linejoin="round" />
<path d="M765.831 248.184 L856.83 631.516 Z" stroke-width="3" stroke="#414288" fill="none" stroke-linejoin="round" />
<path d="M776.761 260.815 L863.017 616.0 Z" stroke-width="3" stroke="#414288" fill="none" stroke-linejoin="round" />
<path d="M787.69 273.446 L848.412 661.169 Z" stroke-width="3" stroke="#414288" fill="none" stroke-linejoin="round" />
<path d="M798.62 286.077 L848.412 661.169 Z" stroke-width="3" stroke="#414288" fill="none" stroke-linejoin="round" />
<path d="M809.549 298.708 L870.975 583.876 Z" stroke-width="3" stroke="#414288" fill="none" stroke-linejoin="round" />
<path d="M850.637 367.954 L872.746 567.267 Z" stroke-width="3" stroke="#414288" fill="none" stroke-linejoin="round" />
<path d="M850.637 367.954 L874.517 550.658 Z" stroke-width="3" stroke="#414288" fill="none" stroke-linejoin="round" />
<path d="M827.595 326.45 L876.288 534.049 Z" stroke-width="3" stroke="#414288" fill="none" stroke-linejoin="round" />
<path d="M834.711 341.561 L878.059 517.441 Z" stroke-width="3" stroke="#414288" fill="none" stroke-linejoin="round" />
<path d="M841.828 356.672 L876.182 564.874 Z" stroke-width="3" stroke="#414288" fill="none" stroke-linejoin="round" />
<path d="M848.944 371.784 L876.182 564.874 Z" stroke-width="3" stroke="#414288" fill="none" stroke-linejoin="round" />
<path d="M856.061 386.895 L877.055 484.361 Z" stroke-width="3" stroke="#414288" fill="none" stroke-linejoin="round" />
<path d="M876.942 464.659 L874.279 467.89 Z" stroke-width="3" stroke="#414288" fill="none" stroke-linejoin="round" />
<path d="M876.942 464.659 L871.504 451.419 Z" stroke-width="3" stroke="#414288" fill="none" stroke-linejoin="round" />
<path d="M865.953 418.477 L868.728 434.948 Z" stroke-width="3" stroke="#414288" fill="none" stroke-linejoin="round" />
<path d="M868.728 434.948 L865.953 418.477 Z" stroke-width="3" stroke="#414288" fill="none" stroke-linejoin="round" />
<path d="M871.504 451.419 L876.942 464.659 Z" stroke-width="3" stroke="#414288" fill="none" stroke-linejoin="round" />
<path d="M874.279 467.89 L876.942 464.659 Z" stroke-width="3" stroke="#414288" fill="none" stroke-linejoin="round" />
<path d="M877.055 484.361 L856.061 386.895 Z" stroke-width="3" stroke="#414288" fill="none" stroke-linejoin="round" />
<path d="M876.182 564.874 L848.944 371.784 Z" stroke-width="3" stroke="#414288" fill="none" stroke-linejoin="round" />
<path d="M876.182 564.874 L841.828 356.672 Z" stroke-width="3" stroke="#414288" fill="none" stroke-linejoin="round" />
<path d="M878.059 517.441 L834.711 341.561 Z" stroke-width="3" stroke="#414288" fill="none" stroke-linejoin="round" />
<path d="M876.288 534.049 L827.595 326.45 Z" stroke-width="3" stroke="#414288" fill="none" stroke-linejoin="round" />
<path d="M874.517 550.658 L850.637 367.954 Z" stroke-width="3" stroke="#414288" fill="none" stroke-linejoin="round" />
<path d="M872.746 567.267 L850.637 367.954 Z" stroke-width="3" stroke="#414288" fill="none" stroke-linejoin="round" />
<path d="M870.975 583.876 L809.549 298.708 Z" stroke-width="3" stroke="#414288" fill="none" stroke-linejoin="round" />
<path d="M848.412 661.169 L798.62 286.077 Z" stroke-width="3" stroke="#414288" fill="none" stroke-linejoin="round" />
<path d="M848.412 661.169 L787.69 273.446 Z" stroke-width="3" stroke="#414288" fill="none" stroke-linejoin="round" />
<path d="M863.017 616.0 L776.761 260.815 Z" stroke-width="3" stroke="#414288" fill="none" stroke-linejoin="round" />
<path d="M856.83 631.516 L765.831 248.184 Z" stroke-width="3" stroke="#414288" fill="none" stroke-linejoin="round" />
<path d="M850.644 647.031 L799.216 281.932 Z" stroke-width="3" stroke="#414288" fill="none" stroke-linejoin="round" />
<path d="M844.457 662.546 L799.216 281.932 Z" stroke-width="3" stroke="#414288" fill="none" stroke-linejoin="round" />
<path d="M838.271 678.061 L740.97 226.339 Z" stroke-width="3" stroke="#414288" fill="none" stroke-linejoin="round" />
<path d="M795.691 746.4 L727.038 217.126 Z" stroke-width="3" stroke="#414288" fill="none" stroke-linejoin="round" />
<path d="M795.691 746.4 L713.106 207.912 Z" stroke-width="3" stroke="#414288" fill="none" stroke-linejoin="round" />
<path d="M821.941 706.847 L699.174 198.698 Z" stroke-width="3" stroke="#414288" fill="none" stroke-linejoin="round" />
<path d="M811.798 720.118 L685.242 189.484 Z" stroke-width="3" stroke="#414288" fill="none" stroke-linejoin="round" />
<path d="M801.655 733.389 L726.494 212.974 Z" stroke-width="3" stroke="#414288" fill="none" stroke-linejoin="round" />
<path d="M791.512 746.659 L726.494 212.974 Z" stroke-width="3" stroke="#414288" fill="none" stroke-linejoin="round" />
<path d="M781.369 759.93 L655.409 175.157 Z" stroke-width="3" stroke="#414288" fill="none" stroke-linejoin="round" />
<path d="M721.931 814.247 L639.507 170.044 Z" stroke-width="3" stroke="#414288" fill="none" stroke-linejoin="round" />
<path d="M721.931 814.247 L623.606 164.931 Z" stroke-width="3" stroke="#414288" fill="none" stroke-linejoin="round" />
<path d="M757.879 783.243 L607.705 159.817 Z" stroke-width="3" stroke="#414288" fill="none" stroke-linejoin="round" />
<path d="M744.531 793.285 L591.804 154.704 Z" stroke-width="3" stroke="#414288" fill="none" stroke-linejoin="round" />
<path d="M731.184 803.327 L637.863 166.193 Z" stroke-width="3" stroke="#414288" fill="none" stroke-linejoin="round" />
<path d="M717.837 813.369 L637.863 166.193 Z" stroke-width="3" stroke="#414288" fill="none" stroke-linejoin="round" />
<path d="M704.49 823.411 L559.211 148.957 Z" stroke-width="3" stroke="#414288" fill="none" stroke-linejoin="round" />
<path d="M632.601 859.677 L542.52 148.324 Z" stroke-width="3" stroke="#414288" fill="none" stroke-linejoin="round" />
<path d="M632.601 859.677 L525.829 147.69 Z" stroke-width="3" stroke="#414288" fill="none" stroke-linejoin="round" />
<path d="M675.581 839.522 L509.138 147.056 Z" stroke-width="3" stroke="#414288" fill="none" stroke-linejoin="round" />
<path d="M660.019 845.59 L492.447 146.423 Z" stroke-width="3" stroke="#414288" fill="none" stroke-linejoin="round" />
<path d="M644.457 851.659 L539.898 145.059 Z" stroke-width="3" stroke="#414288" fill="none" stroke-linejoin="round" />
<path d="M628.895 857.727 L539.898 145.059 Z" stroke-width="3" stroke="#414288" fill="none" stroke-linejoin="round" />
<path d="M613.334 863.796 L459.513 149.682 Z" stroke-width="3" stroke="#414288" fill="none" stroke-linejoin="round" />
<path d="M534.326 879.322 L443.27 153.575 Z" stroke-width="3" stroke="#414288" fill="none" stroke-linejoin="round" />
</svg>